<ttFont>
<head>
    <!-- Most of this table will be recalculated by the compiler -->
    <tableVersion value="1.0"/>
    <fontRevision value="1.0"/>
    <checkSumAdjustment value="0xd11df23"/>
    <magicNumber value="0x5f0f3cf5"/>
    <flags value="00000000 00011111"/>
    <unitsPerEm value="1000"/>
    <created value="Tue Jan 17 04:00:36 2017"/>
    <modified value="Tue Jan 17 04:00:36 2017"/>
    <xMin value="-39"/>
    <yMin value="-218"/>
    <xMax value="1051"/>
    <yMax value="717"/>
    <macStyle value="00000000 00000000"/>
    <lowestRecPPEM value="8"/>
    <fontDirectionHint value="2"/>
    <indexToLocFormat value="0"/>
    <glyphDataFormat value="0"/>
  </head>
    <TTGlyph name=".notdef" xMin="50" yMin="0" xMax="200" yMax="533">
      <contour>
        <pt x="50" y="0" on="1"/>
        <pt x="50" y="533" on="1"/>
        <pt x="200" y="533" on="1"/>
        <pt x="200" y="0" on="1"/>
      </contour>
      <contour>
        <pt x="100" y="50" on="1"/>
        <pt x="150" y="50" on="1"/>
        <pt x="150" y="483" on="1"/>
        <pt x="100" y="483" on="1"/>
      </contour>
    </TTGlyph>
    <TTGlyph name="A" xMin="35" yMin="0" xMax="726" yMax="716">
      <contour>
        <pt x="42" y="0" on="1"/>
        <pt x="35" y="7" on="0"/>
        <pt x="35" y="15" on="0"/>
        <pt x="42" y="41" on="0"/>
        <pt x="44" y="43" on="1"/>
        <pt x="48" y="46" on="1"/>
        <pt x="62" y="46" on="1"/>
        <pt x="132" y="49" on="0"/>
        <pt x="164" y="96" on="1"/>
        <pt x="170" y="102" on="0"/>
        <pt x="521" y="701" on="0"/>
        <pt x="523" y="704" on="1"/>
        <pt x="528" y="713" on="0"/>
        <pt x="537" y="716" on="0"/>
        <pt x="555" y="716" on="1"/>
        <pt x="572" y="716" on="1"/>
        <pt x="578" y="707" on="0"/>
        <pt x="578" y="706" on="1"/>
        <pt x="606" y="383" on="1"/>
        <pt x="634" y="60" on="0"/>
        <pt x="636" y="57" on="1"/>
        <pt x="641" y="46" on="0"/>
        <pt x="701" y="46" on="1"/>
        <pt x="712" y="46" on="0"/>
        <pt x="721" y="45" on="0"/>
        <pt x="726" y="41" on="0"/>
        <pt x="726" y="36" on="1"/>
        <pt x="726" y="34" on="0"/>
        <pt x="723" y="22" on="1"/>
        <pt x="720" y="7" on="0"/>
        <pt x="715" y="0" on="0"/>
        <pt x="704" y="0" on="1"/>
        <pt x="686" y="0" on="0"/>
        <pt x="603" y="2" on="0"/>
        <pt x="578" y="2" on="1"/>
        <pt x="484" y="2" on="0"/>
        <pt x="455" y="0" on="1"/>
        <pt x="443" y="0" on="1"/>
        <pt x="437" y="6" on="0"/>
        <pt x="436" y="11" on="0"/>
        <pt x="439" y="27" on="1"/>
        <pt x="443" y="40" on="0"/>
        <pt x="445" y="43" on="1"/>
        <pt x="449" y="46" on="1"/>
        <pt x="469" y="46" on="1"/>
        <pt x="523" y="48" on="0"/>
        <pt x="533" y="63" on="1"/>
        <pt x="521" y="213" on="1"/>
        <pt x="283" y="213" on="1"/>
        <pt x="249" y="155" on="1"/>
        <pt x="213" y="95" on="0"/>
        <pt x="212" y="90" on="1"/>
        <pt x="208" y="82" on="0"/>
        <pt x="208" y="75" on="1"/>
        <pt x="208" y="50" on="0"/>
        <pt x="254" y="46" on="1"/>
        <pt x="273" y="46" on="0"/>
        <pt x="273" y="36" on="1"/>
        <pt x="273" y="31" on="0"/>
        <pt x="270" y="22" on="1"/>
        <pt x="267" y="8" on="0"/>
        <pt x="261" y="0" on="0"/>
        <pt x="251" y="0" on="1"/>
        <pt x="234" y="0" on="0"/>
        <pt x="160" y="2" on="0"/>
        <pt x="141" y="2" on="1"/>
        <pt x="70" y="2" on="0"/>
        <pt x="50" y="0" on="1"/>
      </contour>
      <contour>
        <pt x="516" y="260" on="1"/>
        <pt x="516" y="271" on="0"/>
        <pt x="491" y="561" on="0"/>
        <pt x="490" y="562" on="1"/>
        <pt x="463" y="519" on="1"/>
        <pt x="447" y="492" on="0"/>
        <pt x="400" y="412" on="1"/>
        <pt x="310" y="260" on="1"/>
        <pt x="413" y="259" on="1"/>
        <pt x="516" y="259" on="0"/>
      </contour>
    </TTGlyph>
    <TTGlyph name="B" xMin="35" yMin="0" xMax="756" yMax="683">
      <contour>
        <pt x="288" y="628" on="1"/>
        <pt x="288" y="629" on="0"/>
        <pt x="286" y="632" on="0"/>
        <pt x="282" y="633" on="0"/>
        <pt x="278" y="635" on="0"/>
        <pt x="270" y="636" on="0"/>
        <pt x="264" y="636" on="0"/>
        <pt x="254" y="636" on="0"/>
        <pt x="247" y="637" on="0"/>
        <pt x="235" y="637" on="0"/>
        <pt x="231" y="637" on="1"/>
        <pt x="207" y="637" on="0"/>
        <pt x="197" y="639" on="0"/>
        <pt x="195" y="644" on="1"/>
        <pt x="193" y="647" on="0"/>
        <pt x="196" y="662" on="1"/>
        <pt x="201" y="680" on="0"/>
        <pt x="205" y="682" on="1"/>
        <pt x="206" y="683" on="0"/>
        <pt x="335" y="683" on="1"/>
        <pt x="594" y="683" on="0"/>
        <pt x="608" y="681" on="1"/>
        <pt x="677" y="671" on="0"/>
        <pt x="716" y="633" on="1"/>
        <pt x="756" y="595" on="0"/>
        <pt x="756" y="544" on="1"/>
        <pt x="756" y="509" on="0"/>
        <pt x="737" y="476" on="1"/>
        <pt x="715" y="436" on="0"/>
        <pt x="618" y="371" on="0"/>
        <pt x="565" y="360" on="1"/>
        <pt x="555" y="357" on="1"/>
        <pt x="621" y="348" on="0"/>
        <pt x="702" y="274" on="0"/>
        <pt x="702" y="219" on="1"/>
        <pt x="702" y="147" on="0"/>
        <pt x="636" y="84" on="1"/>
        <pt x="559" y="10" on="0"/>
        <pt x="453" y="1" on="1"/>
        <pt x="446" y="0" on="0"/>
        <pt x="242" y="0" on="1"/>
        <pt x="42" y="0" on="0"/>
        <pt x="39" y="2" on="1"/>
        <pt x="35" y="5" on="0"/>
        <pt x="35" y="10" on="1"/>
        <pt x="35" y="17" on="0"/>
        <pt x="37" y="24" on="1"/>
        <pt x="42" y="43" on="0"/>
        <pt x="47" y="45" on="1"/>
        <pt x="51" y="46" on="0"/>
        <pt x="62" y="46" on="1"/>
        <pt x="68" y="46" on="1"/>
        <pt x="95" y="46" on="0"/>
        <pt x="128" y="49" on="1"/>
        <pt x="142" y="52" on="0"/>
        <pt x="147" y="61" on="1"/>
        <pt x="150" y="65" on="0"/>
        <pt x="288" y="613" on="0"/>
      </contour>
      <contour>
        <pt x="649" y="544" on="1"/>
        <pt x="649" y="578" on="0"/>
        <pt x="614" y="626" on="0"/>
        <pt x="585" y="634" on="1"/>
        <pt x="578" y="636" on="0"/>
        <pt x="493" y="637" on="1"/>
        <pt x="473" y="637" on="0"/>
        <pt x="429" y="636" on="0"/>
        <pt x="416" y="636" on="1"/>
        <pt x="403" y="636" on="1"/>
        <pt x="389" y="635" on="0"/>
        <pt x="385" y="629" on="1"/>
        <pt x="382" y="625" on="0"/>
        <pt x="321" y="381" on="0"/>
        <pt x="320" y="374" on="1"/>
        <pt x="401" y="374" on="1"/>
        <pt x="482" y="374" on="0"/>
        <pt x="494" y="376" on="1"/>
        <pt x="535" y="383" on="0"/>
        <pt x="608" y="434" on="0"/>
        <pt x="628" y="470" on="1"/>
        <pt x="649" y="508" on="0"/>
      </contour>
      <contour>
        <pt x="595" y="229" on="1"/>
        <pt x="595" y="273" on="0"/>
        <pt x="548" y="331" on="0"/>
        <pt x="512" y="336" on="1"/>
        <pt x="506" y="337" on="0"/>
        <pt x="429" y="337" on="1"/>
        <pt x="311" y="337" on="0"/>
        <pt x="310" y="336" on="1"/>
        <pt x="310" y="334" on="0"/>
        <pt x="275" y="192" on="0"/>
        <pt x="258" y="122" on="1"/>
        <pt x="240" y="52" on="1"/>
        <pt x="240" y="48" on="0"/>
        <pt x="264" y="47" on="0"/>
        <pt x="333" y="46" on="1"/>
        <pt x="422" y="46" on="0"/>
        <pt x="429" y="47" on="1"/>
        <pt x="494" y="54" on="0"/>
        <pt x="595" y="156" on="0"/>
      </contour>
    </TTGlyph>
    <TTGlyph name="C" xMin="50" yMin="-22" xMax="760" yMax="705">
      <contour>
        <pt x="651" y="481" on="1"/>
        <pt x="651" y="564" on="0"/>
        <pt x="578" y="659" on="0"/>
        <pt x="510" y="659" on="1"/>
        <pt x="457" y="659" on="0"/>
        <pt x="395" y="634" on="1"/>
        <pt x="287" y="588" on="0"/>
        <pt x="226" y="479" on="1"/>
        <pt x="171" y="382" on="0"/>
        <pt x="157" y="251" on="1"/>
        <pt x="156" y="243" on="0"/>
        <pt x="156" y="222" on="1"/>
        <pt x="156" y="108" on="0"/>
        <pt x="232" y="58" on="1"/>
        <pt x="280" y="24" on="0"/>
        <pt x="350" y="24" on="1"/>
        <pt x="388" y="24" on="0"/>
        <pt x="433" y="41" on="1"/>
        <pt x="492" y="65" on="0"/>
        <pt x="588" y="175" on="0"/>
        <pt x="606" y="240" on="1"/>
        <pt x="610" y="253" on="0"/>
        <pt x="615" y="257" on="0"/>
        <pt x="628" y="257" on="1"/>
        <pt x="649" y="257" on="0"/>
        <pt x="649" y="249" on="1"/>
        <pt x="649" y="247" on="0"/>
        <pt x="647" y="239" on="1"/>
        <pt x="623" y="150" on="0"/>
        <pt x="479" y="8" on="0"/>
        <pt x="389" y="-13" on="1"/>
        <pt x="354" y="-22" on="0"/>
        <pt x="319" y="-22" on="1"/>
        <pt x="216" y="-22" on="0"/>
        <pt x="76" y="96" on="0"/>
        <pt x="57" y="187" on="1"/>
        <pt x="50" y="216" on="0"/>
        <pt x="50" y="252" on="1"/>
        <pt x="50" y="372" on="0"/>
        <pt x="125" y="485" on="1"/>
        <pt x="170" y="554" on="0"/>
        <pt x="302" y="660" on="0"/>
        <pt x="382" y="686" on="1"/>
        <pt x="441" y="704" on="0"/>
        <pt x="490" y="704" on="1"/>
        <pt x="526" y="704" on="0"/>
        <pt x="532" y="703" on="1"/>
        <pt x="592" y="693" on="0"/>
        <pt x="633" y="653" on="1"/>
        <pt x="635" y="651" on="0"/>
        <pt x="647" y="635" on="0"/>
        <pt x="656" y="623" on="0"/>
        <pt x="657" y="623" on="1"/>
        <pt x="660" y="623" on="0"/>
        <pt x="684" y="649" on="1"/>
        <pt x="691" y="655" on="0"/>
        <pt x="707" y="671" on="0"/>
        <pt x="723" y="688" on="0"/>
        <pt x="725" y="690" on="1"/>
        <pt x="740" y="705" on="1"/>
        <pt x="746" y="705" on="1"/>
        <pt x="760" y="705" on="0"/>
        <pt x="760" y="698" on="1"/>
        <pt x="760" y="694" on="0"/>
        <pt x="728" y="561" on="1"/>
        <pt x="692" y="422" on="0"/>
        <pt x="692" y="421" on="1"/>
        <pt x="690" y="416" on="0"/>
        <pt x="684" y="413" on="0"/>
        <pt x="669" y="413" on="1"/>
        <pt x="653" y="413" on="1"/>
        <pt x="648" y="418" on="0"/>
        <pt x="647" y="421" on="0"/>
        <pt x="649" y="437" on="1"/>
        <pt x="651" y="457" on="0"/>
      </contour>
    </TTGlyph>
    <TTGlyph name="D" xMin="33" yMin="0" xMax="803" yMax="683">
      <contour>
        <pt x="287" y="628" on="1"/>
        <pt x="287" y="629" on="0"/>
        <pt x="285" y="632" on="0"/>
        <pt x="281" y="633" on="0"/>
        <pt x="277" y="635" on="0"/>
        <pt x="269" y="636" on="0"/>
        <pt x="263" y="636" on="0"/>
        <pt x="253" y="636" on="0"/>
        <pt x="246" y="637" on="0"/>
        <pt x="234" y="637" on="0"/>
        <pt x="230" y="637" on="1"/>
        <pt x="196" y="637" on="0"/>
        <pt x="193" y="644" on="1"/>
        <pt x="192" y="647" on="0"/>
        <pt x="195" y="661" on="1"/>
        <pt x="200" y="680" on="0"/>
        <pt x="204" y="682" on="1"/>
        <pt x="206" y="683" on="0"/>
        <pt x="403" y="683" on="1"/>
        <pt x="570" y="682" on="0"/>
        <pt x="610" y="681" on="0"/>
        <pt x="630" y="676" on="1"/>
        <pt x="709" y="658" on="0"/>
        <pt x="803" y="528" on="0"/>
        <pt x="803" y="431" on="1"/>
        <pt x="803" y="381" on="0"/>
        <pt x="791" y="333" on="1"/>
        <pt x="763" y="220" on="0"/>
        <pt x="674" y="128" on="1"/>
        <pt x="573" y="24" on="0"/>
        <pt x="444" y="3" on="1"/>
        <pt x="430" y="1" on="1"/>
        <pt x="236" y="0" on="1"/>
        <pt x="125" y="0" on="1"/>
        <pt x="36" y="0" on="0"/>
        <pt x="35" y="5" on="1"/>
        <pt x="35" y="6" on="1"/>
        <pt x="33" y="10" on="0"/>
        <pt x="33" y="11" on="1"/>
        <pt x="33" y="13" on="0"/>
        <pt x="36" y="25" on="1"/>
        <pt x="40" y="41" on="0"/>
        <pt x="48" y="46" on="0"/>
        <pt x="67" y="46" on="1"/>
        <pt x="94" y="46" on="0"/>
        <pt x="127" y="49" on="1"/>
        <pt x="141" y="52" on="0"/>
        <pt x="146" y="61" on="1"/>
        <pt x="149" y="65" on="0"/>
        <pt x="287" y="613" on="0"/>
      </contour>
      <contour>
        <pt x="703" y="469" on="1"/>
        <pt x="703" y="543" on="0"/>
        <pt x="625" y="629" on="0"/>
        <pt x="555" y="636" on="1"/>
        <pt x="553" y="636" on="0"/>
        <pt x="529" y="636" on="0"/>
        <pt x="494" y="637" on="0"/>
        <pt x="464" y="637" on="0"/>
        <pt x="429" y="636" on="0"/>
        <pt x="405" y="636" on="0"/>
        <pt x="404" y="636" on="1"/>
        <pt x="391" y="635" on="0"/>
        <pt x="386" y="627" on="1"/>
        <pt x="384" y="623" on="0"/>
        <pt x="242" y="55" on="0"/>
        <pt x="242" y="52" on="1"/>
        <pt x="242" y="48" on="0"/>
        <pt x="265" y="47" on="0"/>
        <pt x="330" y="47" on="1"/>
        <pt x="411" y="47" on="0"/>
        <pt x="421" y="48" on="1"/>
        <pt x="516" y="63" on="0"/>
        <pt x="581" y="128" on="1"/>
        <pt x="617" y="164" on="0"/>
        <pt x="663" y="260" on="0"/>
        <pt x="703" y="418" on="0"/>
      </contour>
    </TTGlyph>
    <TTGlyph name="Delta" xMin="48" yMin="0" xMax="788" yMax="716">
      <contour>
        <pt x="788" y="8" on="1"/>
        <pt x="787" y="6" on="1"/>
        <pt x="783" y="1" on="0"/>
        <pt x="781" y="0" on="1"/>
        <pt x="416" y="0" on="1"/>
        <pt x="52" y="0" on="0"/>
        <pt x="48" y="4" on="0"/>
        <pt x="48" y="6" on="1"/>
        <pt x="48" y="9" on="0"/>
        <pt x="562" y="707" on="0"/>
        <pt x="567" y="711" on="1"/>
        <pt x="572" y="712" on="0"/>
        <pt x="574" y="715" on="1"/>
        <pt x="582" y="716" on="1"/>
        <pt x="589" y="716" on="0"/>
        <pt x="595" y="716" on="1"/>
        <pt x="612" y="716" on="0"/>
        <pt x="616" y="714" on="1"/>
        <pt x="621" y="712" on="0"/>
        <pt x="621" y="709" on="1"/>
        <pt x="622" y="707" on="0"/>
        <pt x="788" y="11" on="0"/>
      </contour>
      <contour>
        <pt x="599" y="346" on="1"/>
        <pt x="538" y="602" on="1"/>
        <pt x="442" y="474" on="1"/>
        <pt x="347" y="345" on="0"/>
        <pt x="157" y="88" on="0"/>
        <pt x="157" y="86" on="0"/>
        <pt x="661" y="86" on="0"/>
        <pt x="661" y="88" on="1"/>
        <pt x="654" y="120" on="1"/>
        <pt x="646" y="151" on="0"/>
        <pt x="612" y="290" on="0"/>
      </contour>
    </TTGlyph>
    <TTGlyph name="E" xMin="31" yMin="0" xMax="764" yMax="680">
      <contour>
        <pt x="698" y="450" on="1"/>
        <pt x="698" y="460" on="0"/>
        <pt x="704" y="520" on="0"/>
        <pt x="704" y="528" on="1"/>
        <pt x="704" y="572" on="0"/>
        <pt x="675" y="618" on="0"/>
        <pt x="638" y="627" on="1"/>
        <pt x="605" y="634" on="0"/>
        <pt x="485" y="634" on="1"/>
        <pt x="400" y="633" on="0"/>
        <pt x="396" y="632" on="1"/>
        <pt x="389" y="629" on="0"/>
        <pt x="386" y="622" on="1"/>
        <pt x="385" y="619" on="0"/>
        <pt x="324" y="379" on="0"/>
        <pt x="324" y="377" on="1"/>
        <pt x="347" y="376" on="0"/>
        <pt x="372" y="376" on="1"/>
        <pt x="381" y="376" on="1"/>
        <pt x="446" y="376" on="0"/>
        <pt x="503" y="393" on="0"/>
        <pt x="519" y="429" on="1"/>
        <pt x="525" y="440" on="0"/>
        <pt x="534" y="472" on="1"/>
        <pt x="535" y="475" on="0"/>
        <pt x="536" y="484" on="0"/>
        <pt x="537" y="487" on="0"/>
        <pt x="539" y="491" on="0"/>
        <pt x="544" y="492" on="0"/>
        <pt x="551" y="493" on="0"/>
        <pt x="557" y="493" on="1"/>
        <pt x="562" y="493" on="0"/>
        <pt x="568" y="492" on="0"/>
        <pt x="572" y="490" on="0"/>
        <pt x="573" y="489" on="0"/>
        <pt x="576" y="484" on="0"/>
        <pt x="577" y="483" on="1"/>
        <pt x="544" y="351" on="1"/>
        <pt x="511" y="218" on="0"/>
        <pt x="508" y="216" on="1"/>
        <pt x="505" y="213" on="0"/>
        <pt x="479" y="213" on="0"/>
        <pt x="476" y="216" on="1"/>
        <pt x="470" y="219" on="0"/>
        <pt x="475" y="240" on="1"/>
        <pt x="482" y="266" on="0"/>
        <pt x="482" y="285" on="1"/>
        <pt x="482" y="314" on="0"/>
        <pt x="462" y="322" on="1"/>
        <pt x="444" y="330" on="0"/>
        <pt x="364" y="330" on="1"/>
        <pt x="312" y="330" on="1"/>
        <pt x="306" y="309" on="0"/>
        <pt x="243" y="54" on="0"/>
        <pt x="243" y="52" on="1"/>
        <pt x="243" y="48" on="0"/>
        <pt x="266" y="47" on="0"/>
        <pt x="334" y="46" on="1"/>
        <pt x="428" y="46" on="0"/>
        <pt x="489" y="51" on="0"/>
        <pt x="518" y="61" on="1"/>
        <pt x="567" y="77" on="0"/>
        <pt x="632" y="157" on="0"/>
        <pt x="670" y="248" on="1"/>
        <pt x="680" y="270" on="0"/>
        <pt x="686" y="274" on="0"/>
        <pt x="709" y="274" on="0"/>
        <pt x="712" y="272" on="1"/>
        <pt x="718" y="268" on="0"/>
        <pt x="718" y="261" on="1"/>
        <pt x="613" y="7" on="0"/>
        <pt x="608" y="2" on="1"/>
        <pt x="605" y="0" on="0"/>
        <pt x="322" y="0" on="1"/>
        <pt x="106" y="0" on="0"/>
        <pt x="34" y="1" on="0"/>
        <pt x="33" y="5" on="1"/>
        <pt x="33" y="6" on="1"/>
        <pt x="31" y="10" on="0"/>
        <pt x="31" y="11" on="1"/>
        <pt x="31" y="13" on="0"/>
        <pt x="34" y="25" on="1"/>
        <pt x="38" y="41" on="0"/>
        <pt x="46" y="46" on="0"/>
        <pt x="65" y="46" on="1"/>
        <pt x="92" y="46" on="0"/>
        <pt x="125" y="49" on="1"/>
        <pt x="139" y="52" on="0"/>
        <pt x="144" y="61" on="1"/>
        <pt x="146" y="66" on="0"/>
        <pt x="285" y="618" on="0"/>
        <pt x="285" y="622" on="1"/>
        <pt x="285" y="629" on="0"/>
        <pt x="281" y="629" on="1"/>
        <pt x="273" y="632" on="0"/>
        <pt x="228" y="634" on="1"/>
        <pt x="197" y="634" on="1"/>
        <pt x="191" y="640" on="0"/>
        <pt x="190" y="645" on="0"/>
        <pt x="193" y="659" on="1"/>
        <pt x="197" y="677" on="0"/>
        <pt x="203" y="680" on="1"/>
        <pt x="757" y="680" on="1"/>
        <pt x="764" y="673" on="0"/>
        <pt x="764" y="669" on="1"/>
        <pt x="764" y="664" on="0"/>
        <pt x="738" y="449" on="0"/>
        <pt x="737" y="447" on="1"/>
        <pt x="735" y="440" on="0"/>
        <pt x="717" y="440" on="1"/>
        <pt x="705" y="440" on="1"/>
        <pt x="698" y="446" on="0"/>
      </contour>
    </TTGlyph>
    <TTGlyph name="F" xMin="31" yMin="0" xMax="749" yMax="680">
      <contour>
        <pt x="185" y="2" on="1"/>
        <pt x="157" y="2" on="0"/>
        <pt x="68" y="1" on="0"/>
        <pt x="48" y="1" on="1"/>
        <pt x="36" y="1" on="0"/>
        <pt x="33" y="6" on="1"/>
        <pt x="31" y="10" on="0"/>
        <pt x="31" y="11" on="1"/>
        <pt x="31" y="13" on="0"/>
        <pt x="34" y="25" on="1"/>
        <pt x="38" y="41" on="0"/>
        <pt x="46" y="46" on="0"/>
        <pt x="65" y="46" on="1"/>
        <pt x="92" y="46" on="0"/>
        <pt x="125" y="49" on="1"/>
        <pt x="139" y="52" on="0"/>
        <pt x="144" y="61" on="1"/>
        <pt x="146" y="66" on="0"/>
        <pt x="285" y="618" on="0"/>
        <pt x="285" y="622" on="1"/>
        <pt x="285" y="629" on="0"/>
        <pt x="281" y="629" on="1"/>
        <pt x="273" y="632" on="0"/>
        <pt x="228" y="634" on="1"/>
        <pt x="197" y="634" on="1"/>
        <pt x="191" y="640" on="0"/>
        <pt x="190" y="645" on="0"/>
        <pt x="193" y="659" on="1"/>
        <pt x="197" y="677" on="0"/>
        <pt x="203" y="680" on="1"/>
        <pt x="742" y="680" on="1"/>
        <pt x="749" y="673" on="0"/>
        <pt x="749" y="669" on="1"/>
        <pt x="749" y="664" on="0"/>
        <pt x="723" y="449" on="0"/>
        <pt x="722" y="447" on="1"/>
        <pt x="720" y="440" on="0"/>
        <pt x="702" y="440" on="1"/>
        <pt x="690" y="440" on="1"/>
        <pt x="683" y="446" on="0"/>
        <pt x="683" y="450" on="1"/>
        <pt x="683" y="452" on="0"/>
        <pt x="684" y="457" on="0"/>
        <pt x="685" y="467" on="0"/>
        <pt x="685" y="472" on="1"/>
        <pt x="689" y="501" on="0"/>
        <pt x="689" y="530" on="1"/>
        <pt x="689" y="602" on="0"/>
        <pt x="643" y="621" on="1"/>
        <pt x="622" y="630" on="0"/>
        <pt x="566" y="634" on="0"/>
        <pt x="480" y="634" on="1"/>
        <pt x="400" y="633" on="0"/>
        <pt x="396" y="632" on="1"/>
        <pt x="388" y="629" on="0"/>
        <pt x="386" y="623" on="1"/>
        <pt x="385" y="622" on="0"/>
        <pt x="352" y="492" on="1"/>
        <pt x="320" y="363" on="1"/>
        <pt x="375" y="363" on="1"/>
        <pt x="435" y="364" on="0"/>
        <pt x="441" y="365" on="1"/>
        <pt x="474" y="371" on="0"/>
        <pt x="489" y="386" on="1"/>
        <pt x="510" y="404" on="0"/>
        <pt x="524" y="458" on="1"/>
        <pt x="525" y="461" on="0"/>
        <pt x="527" y="469" on="0"/>
        <pt x="527" y="472" on="0"/>
        <pt x="529" y="477" on="0"/>
        <pt x="532" y="478" on="0"/>
        <pt x="537" y="480" on="0"/>
        <pt x="543" y="480" on="0"/>
        <pt x="548" y="480" on="1"/>
        <pt x="560" y="480" on="1"/>
        <pt x="567" y="475" on="0"/>
        <pt x="567" y="470" on="1"/>
        <pt x="567" y="467" on="0"/>
        <pt x="504" y="211" on="0"/>
        <pt x="502" y="207" on="1"/>
        <pt x="500" y="200" on="0"/>
        <pt x="482" y="200" on="1"/>
        <pt x="470" y="200" on="1"/>
        <pt x="464" y="205" on="0"/>
        <pt x="462" y="212" on="0"/>
        <pt x="466" y="226" on="1"/>
        <pt x="473" y="254" on="0"/>
        <pt x="473" y="274" on="1"/>
        <pt x="473" y="304" on="0"/>
        <pt x="448" y="311" on="1"/>
        <pt x="430" y="317" on="0"/>
        <pt x="364" y="317" on="1"/>
        <pt x="309" y="317" on="1"/>
        <pt x="277" y="190" on="1"/>
        <pt x="245" y="66" on="0"/>
        <pt x="245" y="54" on="0"/>
        <pt x="251" y="52" on="1"/>
        <pt x="263" y="46" on="0"/>
        <pt x="334" y="46" on="1"/>
        <pt x="359" y="46" on="1"/>
        <pt x="365" y="40" on="0"/>
        <pt x="366" y="35" on="0"/>
        <pt x="363" y="19" on="1"/>
        <pt x="359" y="6" on="0"/>
        <pt x="353" y="0" on="1"/>
        <pt x="336" y="0" on="1"/>
        <pt x="295" y="2" on="0"/>
      </contour>
    </TTGlyph>
    <TTGlyph name="G" xMin="50" yMin="-22" xMax="760" yMax="705">
      <contour>
        <pt x="322" y="-22" on="1"/>
        <pt x="204" y="-22" on="0"/>
        <pt x="50" y="127" on="0"/>
        <pt x="50" y="252" on="1"/>
        <pt x="50" y="372" on="0"/>
        <pt x="125" y="485" on="1"/>
        <pt x="170" y="554" on="0"/>
        <pt x="302" y="660" on="0"/>
        <pt x="382" y="686" on="1"/>
        <pt x="441" y="704" on="0"/>
        <pt x="490" y="704" on="1"/>
        <pt x="526" y="704" on="0"/>
        <pt x="532" y="703" on="1"/>
        <pt x="592" y="693" on="0"/>
        <pt x="633" y="653" on="1"/>
        <pt x="635" y="651" on="0"/>
        <pt x="647" y="635" on="0"/>
        <pt x="656" y="623" on="0"/>
        <pt x="657" y="623" on="1"/>
        <pt x="660" y="623" on="0"/>
        <pt x="684" y="649" on="1"/>
        <pt x="691" y="655" on="0"/>
        <pt x="707" y="671" on="0"/>
        <pt x="723" y="688" on="0"/>
        <pt x="725" y="690" on="1"/>
        <pt x="740" y="705" on="1"/>
        <pt x="746" y="705" on="1"/>
        <pt x="760" y="705" on="0"/>
        <pt x="760" y="698" on="1"/>
        <pt x="760" y="694" on="0"/>
        <pt x="728" y="561" on="1"/>
        <pt x="692" y="422" on="0"/>
        <pt x="692" y="421" on="1"/>
        <pt x="690" y="416" on="0"/>
        <pt x="684" y="413" on="0"/>
        <pt x="669" y="413" on="1"/>
        <pt x="653" y="413" on="1"/>
        <pt x="648" y="418" on="0"/>
        <pt x="647" y="421" on="0"/>
        <pt x="649" y="437" on="1"/>
        <pt x="651" y="457" on="0"/>
        <pt x="651" y="481" on="1"/>
        <pt x="651" y="564" on="0"/>
        <pt x="578" y="659" on="0"/>
        <pt x="510" y="659" on="1"/>
        <pt x="457" y="659" on="0"/>
        <pt x="395" y="634" on="1"/>
        <pt x="295" y="592" on="0"/>
        <pt x="176" y="397" on="0"/>
        <pt x="158" y="260" on="1"/>
        <pt x="156" y="242" on="0"/>
        <pt x="156" y="221" on="1"/>
        <pt x="156" y="164" on="0"/>
        <pt x="176" y="122" on="1"/>
        <pt x="223" y="31" on="0"/>
        <pt x="347" y="24" on="1"/>
        <pt x="353" y="24" on="1"/>
        <pt x="407" y="24" on="0"/>
        <pt x="497" y="70" on="0"/>
        <pt x="514" y="106" on="1"/>
        <pt x="517" y="114" on="0"/>
        <pt x="541" y="209" on="0"/>
        <pt x="541" y="214" on="1"/>
        <pt x="541" y="222" on="0"/>
        <pt x="514" y="226" on="0"/>
        <pt x="468" y="227" on="1"/>
        <pt x="431" y="227" on="1"/>
        <pt x="425" y="233" on="0"/>
        <pt x="424" y="237" on="0"/>
        <pt x="427" y="254" on="1"/>
        <pt x="431" y="267" on="0"/>
        <pt x="437" y="273" on="1"/>
        <pt x="454" y="273" on="1"/>
        <pt x="494" y="271" on="0"/>
        <pt x="594" y="271" on="1"/>
        <pt x="620" y="271" on="0"/>
        <pt x="692" y="272" on="0"/>
        <pt x="707" y="272" on="1"/>
        <pt x="721" y="272" on="0"/>
        <pt x="721" y="264" on="1"/>
        <pt x="721" y="261" on="0"/>
        <pt x="719" y="249" on="1"/>
        <pt x="718" y="246" on="0"/>
        <pt x="716" y="237" on="0"/>
        <pt x="715" y="234" on="0"/>
        <pt x="712" y="229" on="0"/>
        <pt x="708" y="228" on="0"/>
        <pt x="700" y="227" on="0"/>
        <pt x="694" y="227" on="1"/>
        <pt x="674" y="227" on="0"/>
        <pt x="653" y="224" on="1"/>
        <pt x="645" y="221" on="0"/>
        <pt x="642" y="213" on="1"/>
        <pt x="638" y="200" on="1"/>
        <pt x="635" y="187" on="0"/>
        <pt x="620" y="130" on="0"/>
        <pt x="614" y="108" on="1"/>
        <pt x="611" y="96" on="0"/>
        <pt x="605" y="70" on="0"/>
        <pt x="601" y="53" on="0"/>
        <pt x="596" y="35" on="0"/>
        <pt x="593" y="24" on="0"/>
        <pt x="590" y="13" on="0"/>
        <pt x="588" y="6" on="0"/>
        <pt x="585" y="1" on="0"/>
        <pt x="583" y="-1" on="0"/>
        <pt x="581" y="-1" on="1"/>
        <pt x="578" y="-1" on="0"/>
        <pt x="575" y="2" on="1"/>
        <pt x="566" y="7" on="0"/>
        <pt x="535" y="42" on="0"/>
        <pt x="530" y="52" on="1"/>
        <pt x="530" y="53" on="0"/>
        <pt x="526" y="50" on="0"/>
        <pt x="522" y="47" on="1"/>
        <pt x="489" y="16" on="0"/>
        <pt x="381" y="-22" on="0"/>
      </contour>
    </TTGlyph>
    <TTGlyph name="Gamma" xMin="31" yMin="1" xMax="721" yMax="680">
      <contour>
        <pt x="49" y="1" on="1"/>
        <pt x="31" y="1" on="0"/>
        <pt x="31" y="10" on="1"/>
        <pt x="31" y="12" on="0"/>
        <pt x="34" y="24" on="1"/>
        <pt x="39" y="43" on="0"/>
        <pt x="44" y="45" on="1"/>
        <pt x="48" y="46" on="0"/>
        <pt x="59" y="46" on="1"/>
        <pt x="65" y="46" on="1"/>
        <pt x="92" y="46" on="0"/>
        <pt x="125" y="49" on="1"/>
        <pt x="139" y="52" on="0"/>
        <pt x="144" y="61" on="1"/>
        <pt x="146" y="66" on="0"/>
        <pt x="285" y="618" on="0"/>
        <pt x="285" y="622" on="1"/>
        <pt x="285" y="629" on="0"/>
        <pt x="281" y="629" on="1"/>
        <pt x="273" y="632" on="0"/>
        <pt x="228" y="634" on="1"/>
        <pt x="197" y="634" on="1"/>
        <pt x="191" y="640" on="0"/>
        <pt x="190" y="644" on="0"/>
        <pt x="193" y="661" on="1"/>
        <pt x="197" y="674" on="0"/>
        <pt x="203" y="680" on="1"/>
        <pt x="714" y="680" on="1"/>
        <pt x="721" y="673" on="0"/>
        <pt x="721" y="669" on="1"/>
        <pt x="721" y="664" on="0"/>
        <pt x="695" y="449" on="0"/>
        <pt x="694" y="447" on="1"/>
        <pt x="692" y="440" on="0"/>
        <pt x="674" y="440" on="1"/>
        <pt x="662" y="440" on="1"/>
        <pt x="656" y="445" on="0"/>
        <pt x="655" y="451" on="0"/>
        <pt x="656" y="468" on="1"/>
        <pt x="661" y="511" on="0"/>
        <pt x="661" y="534" on="1"/>
        <pt x="661" y="582" on="0"/>
        <pt x="630" y="622" on="0"/>
        <pt x="587" y="630" on="1"/>
        <pt x="560" y="634" on="0"/>
        <pt x="471" y="634" on="1"/>
        <pt x="400" y="633" on="0"/>
        <pt x="396" y="632" on="1"/>
        <pt x="389" y="629" on="0"/>
        <pt x="386" y="622" on="1"/>
        <pt x="385" y="619" on="0"/>
        <pt x="245" y="62" on="0"/>
        <pt x="245" y="60" on="1"/>
        <pt x="245" y="54" on="0"/>
        <pt x="251" y="52" on="1"/>
        <pt x="263" y="46" on="0"/>
        <pt x="333" y="46" on="1"/>
        <pt x="358" y="46" on="0"/>
        <pt x="360" y="44" on="1"/>
        <pt x="366" y="42" on="0"/>
        <pt x="366" y="35" on="1"/>
        <pt x="366" y="33" on="0"/>
        <pt x="359" y="8" on="0"/>
        <pt x="358" y="6" on="1"/>
        <pt x="356" y="1" on="0"/>
        <pt x="339" y="1" on="1"/>
        <pt x="319" y="1" on="0"/>
        <pt x="223" y="2" on="0"/>
        <pt x="187" y="2" on="1"/>
        <pt x="152" y="2" on="0"/>
        <pt x="65" y="1" on="0"/>
      </contour>
    </TTGlyph>
    <TTGlyph name="H" xMin="31" yMin="0" xMax="888" yMax="683">
      <contour>
        <pt x="871" y="682" on="1"/>
        <pt x="882" y="682" on="0"/>
        <pt x="888" y="678" on="0"/>
        <pt x="888" y="666" on="0"/>
        <pt x="886" y="658" on="1"/>
        <pt x="881" y="641" on="0"/>
        <pt x="876" y="638" on="1"/>
        <pt x="874" y="638" on="1"/>
        <pt x="872" y="638" on="0"/>
        <pt x="866" y="638" on="0"/>
        <pt x="858" y="637" on="0"/>
        <pt x="848" y="637" on="0"/>
        <pt x="844" y="637" on="1"/>
        <pt x="791" y="636" on="0"/>
        <pt x="783" y="630" on="1"/>
        <pt x="779" y="628" on="0"/>
        <pt x="776" y="623" on="1"/>
        <pt x="773" y="618" on="0"/>
        <pt x="634" y="61" on="0"/>
        <pt x="634" y="58" on="1"/>
        <pt x="634" y="51" on="0"/>
        <pt x="638" y="51" on="1"/>
        <pt x="646" y="48" on="0"/>
        <pt x="692" y="46" on="1"/>
        <pt x="723" y="46" on="1"/>
        <pt x="728" y="39" on="0"/>
        <pt x="729" y="36" on="0"/>
        <pt x="726" y="19" on="1"/>
        <pt x="722" y="6" on="0"/>
        <pt x="716" y="0" on="1"/>
        <pt x="701" y="0" on="1"/>
        <pt x="664" y="2" on="0"/>
        <pt x="567" y="2" on="1"/>
        <pt x="542" y="2" on="0"/>
        <pt x="457" y="1" on="0"/>
        <pt x="437" y="1" on="1"/>
        <pt x="420" y="1" on="0"/>
        <pt x="420" y="9" on="1"/>
        <pt x="420" y="10" on="0"/>
        <pt x="422" y="21" on="0"/>
        <pt x="423" y="24" on="1"/>
        <pt x="428" y="43" on="0"/>
        <pt x="433" y="45" on="1"/>
        <pt x="437" y="46" on="0"/>
        <pt x="448" y="46" on="1"/>
        <pt x="454" y="46" on="1"/>
        <pt x="481" y="46" on="0"/>
        <pt x="514" y="49" on="1"/>
        <pt x="528" y="52" on="0"/>
        <pt x="533" y="61" on="1"/>
        <pt x="536" y="66" on="0"/>
        <pt x="602" y="328" on="0"/>
        <pt x="602" y="331" on="1"/>
        <pt x="602" y="332" on="0"/>
        <pt x="457" y="332" on="1"/>
        <pt x="312" y="332" on="1"/>
        <pt x="279" y="197" on="1"/>
        <pt x="245" y="63" on="0"/>
        <pt x="245" y="58" on="1"/>
        <pt x="245" y="52" on="0"/>
        <pt x="248" y="51" on="1"/>
        <pt x="255" y="48" on="0"/>
        <pt x="303" y="46" on="1"/>
        <pt x="334" y="46" on="1"/>
        <pt x="339" y="39" on="0"/>
        <pt x="340" y="36" on="0"/>
        <pt x="337" y="19" on="1"/>
        <pt x="333" y="6" on="0"/>
        <pt x="327" y="0" on="1"/>
        <pt x="312" y="0" on="1"/>
        <pt x="275" y="2" on="0"/>
        <pt x="178" y="2" on="1"/>
        <pt x="153" y="2" on="0"/>
        <pt x="68" y="1" on="0"/>
        <pt x="48" y="1" on="1"/>
        <pt x="31" y="1" on="0"/>
        <pt x="31" y="10" on="1"/>
        <pt x="31" y="12" on="0"/>
        <pt x="34" y="24" on="1"/>
        <pt x="39" y="43" on="0"/>
        <pt x="44" y="45" on="1"/>
        <pt x="48" y="46" on="0"/>
        <pt x="59" y="46" on="1"/>
        <pt x="65" y="46" on="1"/>
        <pt x="92" y="46" on="0"/>
        <pt x="125" y="49" on="1"/>
        <pt x="139" y="52" on="0"/>
        <pt x="144" y="61" on="1"/>
        <pt x="147" y="65" on="0"/>
        <pt x="285" y="613" on="0"/>
        <pt x="285" y="628" on="1"/>
        <pt x="285" y="629" on="0"/>
        <pt x="283" y="632" on="0"/>
        <pt x="279" y="633" on="0"/>
        <pt x="275" y="635" on="0"/>
        <pt x="267" y="636" on="0"/>
        <pt x="261" y="636" on="0"/>
        <pt x="251" y="636" on="0"/>
        <pt x="244" y="637" on="0"/>
        <pt x="232" y="637" on="0"/>
        <pt x="228" y="637" on="1"/>
        <pt x="204" y="637" on="0"/>
        <pt x="194" y="639" on="0"/>
        <pt x="192" y="644" on="1"/>
        <pt x="190" y="647" on="0"/>
        <pt x="193" y="662" on="1"/>
        <pt x="197" y="679" on="0"/>
        <pt x="202" y="682" on="1"/>
        <pt x="204" y="683" on="0"/>
        <pt x="219" y="683" on="1"/>
        <pt x="260" y="681" on="0"/>
        <pt x="355" y="681" on="1"/>
        <pt x="379" y="681" on="0"/>
        <pt x="464" y="682" on="0"/>
        <pt x="483" y="682" on="1"/>
        <pt x="496" y="682" on="0"/>
        <pt x="498" y="676" on="1"/>
        <pt x="500" y="673" on="0"/>
        <pt x="497" y="658" on="1"/>
        <pt x="492" y="641" on="0"/>
        <pt x="487" y="638" on="1"/>
        <pt x="485" y="638" on="1"/>
        <pt x="483" y="638" on="0"/>
        <pt x="477" y="638" on="0"/>
        <pt x="469" y="637" on="0"/>
        <pt x="459" y="637" on="0"/>
        <pt x="455" y="637" on="1"/>
        <pt x="402" y="636" on="0"/>
        <pt x="394" y="630" on="1"/>
        <pt x="390" y="628" on="0"/>
        <pt x="387" y="623" on="1"/>
        <pt x="384" y="619" on="0"/>
        <pt x="355" y="500" on="1"/>
        <pt x="348" y="474" on="0"/>
        <pt x="332" y="410" on="0"/>
        <pt x="328" y="395" on="1"/>
        <pt x="324" y="380" on="1"/>
        <pt x="324" y="378" on="0"/>
        <pt x="469" y="378" on="1"/>
        <pt x="614" y="378" on="1"/>
        <pt x="615" y="381" on="1"/>
        <pt x="615" y="384" on="0"/>
        <pt x="646" y="504" on="1"/>
        <pt x="674" y="619" on="0"/>
        <pt x="674" y="627" on="1"/>
        <pt x="674" y="629" on="0"/>
        <pt x="671" y="633" on="0"/>
        <pt x="665" y="635" on="0"/>
        <pt x="658" y="636" on="0"/>
        <pt x="646" y="636" on="0"/>
        <pt x="637" y="637" on="0"/>
        <pt x="622" y="637" on="0"/>
        <pt x="617" y="637" on="1"/>
        <pt x="581" y="637" on="0"/>
        <pt x="581" y="647" on="1"/>
        <pt x="581" y="668" on="0"/>
        <pt x="587" y="677" on="1"/>
        <pt x="590" y="682" on="0"/>
        <pt x="604" y="682" on="1"/>
        <pt x="622" y="682" on="0"/>
        <pt x="707" y="680" on="0"/>
        <pt x="740" y="680" on="1"/>
        <pt x="772" y="680" on="0"/>
        <pt x="855" y="682" on="0"/>
      </contour>
    </TTGlyph>
    <TTGlyph name="I" xMin="26" yMin="0" xMax="504" yMax="683">
      <contour>
        <pt x="43" y="1" on="1"/>
        <pt x="26" y="1" on="0"/>
        <pt x="26" y="10" on="1"/>
        <pt x="26" y="12" on="0"/>
        <pt x="29" y="24" on="1"/>
        <pt x="34" y="43" on="0"/>
        <pt x="39" y="45" on="1"/>
        <pt x="42" y="46" on="0"/>
        <pt x="54" y="46" on="1"/>
        <pt x="60" y="46" on="1"/>
        <pt x="121" y="46" on="0"/>
        <pt x="136" y="53" on="1"/>
        <pt x="137" y="53" on="0"/>
        <pt x="138" y="54" on="1"/>
        <pt x="143" y="56" on="0"/>
        <pt x="155" y="98" on="0"/>
        <pt x="198" y="273" on="1"/>
        <pt x="210" y="318" on="0"/>
        <pt x="216" y="344" on="1"/>
        <pt x="286" y="624" on="0"/>
        <pt x="286" y="626" on="1"/>
        <pt x="284" y="630" on="0"/>
        <pt x="284" y="631" on="1"/>
        <pt x="274" y="637" on="0"/>
        <pt x="213" y="637" on="1"/>
        <pt x="193" y="637" on="1"/>
        <pt x="187" y="642" on="0"/>
        <pt x="185" y="649" on="0"/>
        <pt x="189" y="662" on="1"/>
        <pt x="192" y="677" on="0"/>
        <pt x="196" y="681" on="1"/>
        <pt x="199" y="683" on="0"/>
        <pt x="213" y="683" on="1"/>
        <pt x="285" y="681" on="0"/>
        <pt x="359" y="681" on="1"/>
        <pt x="414" y="681" on="1"/>
        <pt x="478" y="681" on="0"/>
        <pt x="487" y="683" on="1"/>
        <pt x="497" y="683" on="1"/>
        <pt x="504" y="676" on="0"/>
        <pt x="504" y="668" on="0"/>
        <pt x="501" y="658" on="1"/>
        <pt x="498" y="643" on="0"/>
        <pt x="494" y="639" on="1"/>
        <pt x="491" y="637" on="0"/>
        <pt x="471" y="637" on="1"/>
        <pt x="440" y="637" on="0"/>
        <pt x="407" y="634" on="1"/>
        <pt x="394" y="631" on="0"/>
        <pt x="388" y="624" on="1"/>
        <pt x="385" y="620" on="0"/>
        <pt x="313" y="338" on="0"/>
        <pt x="279" y="198" on="1"/>
        <pt x="245" y="59" on="1"/>
        <pt x="245" y="51" on="0"/>
        <pt x="252" y="50" on="1"/>
        <pt x="262" y="47" on="0"/>
        <pt x="307" y="46" on="1"/>
        <pt x="339" y="46" on="1"/>
        <pt x="344" y="39" on="0"/>
        <pt x="345" y="36" on="0"/>
        <pt x="342" y="19" on="1"/>
        <pt x="338" y="6" on="0"/>
        <pt x="332" y="0" on="1"/>
        <pt x="316" y="0" on="1"/>
        <pt x="279" y="2" on="0"/>
        <pt x="179" y="2" on="1"/>
        <pt x="154" y="2" on="0"/>
        <pt x="63" y="1" on="0"/>
      </contour>
    </TTGlyph>
    <TTGlyph name="J" xMin="57" yMin="-22" xMax="633" yMax="683">
      <contour>
        <pt x="447" y="625" on="1"/>
        <pt x="447" y="637" on="0"/>
        <pt x="354" y="637" on="1"/>
        <pt x="329" y="637" on="1"/>
        <pt x="323" y="642" on="0"/>
        <pt x="321" y="649" on="0"/>
        <pt x="325" y="664" on="1"/>
        <pt x="329" y="677" on="0"/>
        <pt x="335" y="683" on="1"/>
        <pt x="352" y="683" on="1"/>
        <pt x="393" y="681" on="0"/>
        <pt x="498" y="681" on="1"/>
        <pt x="525" y="681" on="0"/>
        <pt x="603" y="682" on="0"/>
        <pt x="619" y="682" on="1"/>
        <pt x="630" y="682" on="0"/>
        <pt x="631" y="677" on="1"/>
        <pt x="633" y="673" on="0"/>
        <pt x="633" y="672" on="1"/>
        <pt x="633" y="670" on="0"/>
        <pt x="630" y="658" on="1"/>
        <pt x="626" y="642" on="0"/>
        <pt x="619" y="637" on="0"/>
        <pt x="604" y="637" on="1"/>
        <pt x="595" y="637" on="1"/>
        <pt x="551" y="637" on="0"/>
        <pt x="545" y="623" on="1"/>
        <pt x="541" y="610" on="0"/>
        <pt x="483" y="376" on="1"/>
        <pt x="420" y="128" on="0"/>
        <pt x="419" y="127" on="1"/>
        <pt x="398" y="66" on="0"/>
        <pt x="274" y="-22" on="0"/>
        <pt x="195" y="-22" on="1"/>
        <pt x="134" y="-22" on="0"/>
        <pt x="57" y="39" on="0"/>
        <pt x="57" y="88" on="1"/>
        <pt x="57" y="123" on="0"/>
        <pt x="98" y="174" on="0"/>
        <pt x="132" y="174" on="1"/>
        <pt x="177" y="174" on="0"/>
        <pt x="182" y="130" on="1"/>
        <pt x="182" y="101" on="0"/>
        <pt x="149" y="61" on="0"/>
        <pt x="123" y="56" on="1"/>
        <pt x="115" y="54" on="0"/>
        <pt x="115" y="51" on="0"/>
        <pt x="122" y="44" on="1"/>
        <pt x="148" y="15" on="0"/>
        <pt x="197" y="15" on="1"/>
        <pt x="235" y="15" on="0"/>
        <pt x="308" y="82" on="0"/>
        <pt x="324" y="130" on="1"/>
        <pt x="328" y="142" on="0"/>
        <pt x="447" y="618" on="0"/>
      </contour>
    </TTGlyph>
    <TTGlyph name="K" xMin="31" yMin="0" xMax="889" yMax="683">
      <contour>
        <pt x="285" y="628" on="1"/>
        <pt x="285" y="629" on="0"/>
        <pt x="283" y="632" on="0"/>
        <pt x="279" y="633" on="0"/>
        <pt x="275" y="635" on="0"/>
        <pt x="267" y="636" on="0"/>
        <pt x="261" y="636" on="0"/>
        <pt x="251" y="636" on="0"/>
        <pt x="244" y="637" on="0"/>
        <pt x="232" y="637" on="0"/>
        <pt x="228" y="637" on="1"/>
        <pt x="194" y="637" on="0"/>
        <pt x="191" y="644" on="1"/>
        <pt x="190" y="647" on="0"/>
        <pt x="193" y="661" on="1"/>
        <pt x="198" y="679" on="0"/>
        <pt x="202" y="682" on="1"/>
        <pt x="204" y="683" on="0"/>
        <pt x="219" y="683" on="1"/>
        <pt x="260" y="681" on="0"/>
        <pt x="355" y="681" on="1"/>
        <pt x="379" y="681" on="0"/>
        <pt x="464" y="682" on="0"/>
        <pt x="483" y="682" on="1"/>
        <pt x="500" y="682" on="0"/>
        <pt x="500" y="674" on="1"/>
        <pt x="500" y="669" on="0"/>
        <pt x="497" y="660" on="1"/>
        <pt x="492" y="640" on="0"/>
        <pt x="488" y="639" on="1"/>
        <pt x="484" y="637" on="0"/>
        <pt x="456" y="637" on="1"/>
        <pt x="402" y="636" on="0"/>
        <pt x="394" y="630" on="1"/>
        <pt x="390" y="628" on="0"/>
        <pt x="387" y="623" on="1"/>
        <pt x="306" y="305" on="1"/>
        <pt x="307" y="305" on="0"/>
        <pt x="674" y="593" on="0"/>
        <pt x="678" y="597" on="1"/>
        <pt x="692" y="611" on="0"/>
        <pt x="692" y="620" on="1"/>
        <pt x="692" y="635" on="0"/>
        <pt x="667" y="637" on="1"/>
        <pt x="651" y="637" on="0"/>
        <pt x="651" y="648" on="1"/>
        <pt x="651" y="650" on="0"/>
        <pt x="658" y="675" on="0"/>
        <pt x="659" y="677" on="1"/>
        <pt x="662" y="682" on="0"/>
        <pt x="676" y="682" on="1"/>
        <pt x="692" y="682" on="0"/>
        <pt x="767" y="680" on="0"/>
        <pt x="791" y="680" on="1"/>
        <pt x="845" y="680" on="0"/>
        <pt x="865" y="682" on="1"/>
        <pt x="880" y="683" on="0"/>
        <pt x="889" y="680" on="0"/>
        <pt x="889" y="672" on="1"/>
        <pt x="889" y="668" on="0"/>
        <pt x="882" y="643" on="0"/>
        <pt x="881" y="642" on="1"/>
        <pt x="878" y="637" on="0"/>
        <pt x="862" y="637" on="1"/>
        <pt x="787" y="632" on="0"/>
        <pt x="726" y="586" on="1"/>
        <pt x="714" y="578" on="1"/>
        <pt x="712" y="577" on="0"/>
        <pt x="510" y="419" on="0"/>
        <pt x="509" y="418" on="1"/>
        <pt x="518" y="396" on="1"/>
        <pt x="527" y="374" on="0"/>
        <pt x="565" y="284" on="0"/>
        <pt x="581" y="244" on="1"/>
        <pt x="656" y="67" on="0"/>
        <pt x="661" y="61" on="1"/>
        <pt x="663" y="59" on="0"/>
        <pt x="666" y="57" on="1"/>
        <pt x="680" y="47" on="0"/>
        <pt x="717" y="46" on="1"/>
        <pt x="738" y="46" on="1"/>
        <pt x="743" y="39" on="0"/>
        <pt x="744" y="36" on="0"/>
        <pt x="741" y="19" on="1"/>
        <pt x="737" y="6" on="0"/>
        <pt x="731" y="0" on="1"/>
        <pt x="720" y="0" on="1"/>
        <pt x="680" y="3" on="0"/>
        <pt x="625" y="3" on="1"/>
        <pt x="506" y="3" on="0"/>
        <pt x="488" y="0" on="1"/>
        <pt x="478" y="0" on="1"/>
        <pt x="472" y="6" on="0"/>
        <pt x="471" y="11" on="0"/>
        <pt x="474" y="27" on="1"/>
        <pt x="477" y="39" on="0"/>
        <pt x="481" y="43" on="1"/>
        <pt x="484" y="46" on="0"/>
        <pt x="494" y="46" on="1"/>
        <pt x="544" y="46" on="0"/>
        <pt x="544" y="71" on="1"/>
        <pt x="544" y="76" on="0"/>
        <pt x="485" y="216" on="1"/>
        <pt x="427" y="354" on="1"/>
        <pt x="359" y="301" on="1"/>
        <pt x="291" y="248" on="1"/>
        <pt x="268" y="155" on="1"/>
        <pt x="245" y="63" on="0"/>
        <pt x="245" y="58" on="1"/>
        <pt x="245" y="52" on="0"/>
        <pt x="248" y="51" on="1"/>
        <pt x="255" y="48" on="0"/>
        <pt x="303" y="46" on="1"/>
        <pt x="334" y="46" on="1"/>
        <pt x="340" y="37" on="0"/>
        <pt x="340" y="35" on="1"/>
        <pt x="340" y="19" on="0"/>
        <pt x="333" y="5" on="1"/>
        <pt x="328" y="0" on="0"/>
        <pt x="317" y="0" on="1"/>
        <pt x="300" y="0" on="0"/>
        <pt x="213" y="2" on="0"/>
        <pt x="180" y="2" on="1"/>
        <pt x="148" y="2" on="0"/>
        <pt x="65" y="1" on="0"/>
        <pt x="49" y="1" on="1"/>
        <pt x="36" y="1" on="0"/>
        <pt x="33" y="6" on="1"/>
        <pt x="31" y="10" on="0"/>
        <pt x="31" y="11" on="1"/>
        <pt x="31" y="13" on="0"/>
        <pt x="34" y="25" on="1"/>
        <pt x="38" y="41" on="0"/>
        <pt x="46" y="46" on="0"/>
        <pt x="65" y="46" on="1"/>
        <pt x="92" y="46" on="0"/>
        <pt x="125" y="49" on="1"/>
        <pt x="139" y="52" on="0"/>
        <pt x="144" y="61" on="1"/>
        <pt x="147" y="65" on="0"/>
        <pt x="285" y="613" on="0"/>
      </contour>
    </TTGlyph>
    <TTGlyph name="L" xMin="32" yMin="0" xMax="647" yMax="683">
      <contour>
        <pt x="285" y="628" on="1"/>
        <pt x="285" y="629" on="0"/>
        <pt x="283" y="632" on="0"/>
        <pt x="279" y="633" on="0"/>
        <pt x="275" y="635" on="0"/>
        <pt x="267" y="636" on="0"/>
        <pt x="261" y="636" on="0"/>
        <pt x="251" y="636" on="0"/>
        <pt x="244" y="637" on="0"/>
        <pt x="232" y="637" on="0"/>
        <pt x="228" y="637" on="1"/>
        <pt x="204" y="637" on="0"/>
        <pt x="194" y="639" on="0"/>
        <pt x="192" y="644" on="1"/>
        <pt x="190" y="647" on="0"/>
        <pt x="193" y="662" on="1"/>
        <pt x="198" y="681" on="0"/>
        <pt x="202" y="682" on="1"/>
        <pt x="205" y="683" on="0"/>
        <pt x="217" y="683" on="1"/>
        <pt x="271" y="680" on="0"/>
        <pt x="344" y="680" on="1"/>
        <pt x="358" y="680" on="0"/>
        <pt x="410" y="681" on="0"/>
        <pt x="422" y="681" on="1"/>
        <pt x="437" y="681" on="0"/>
        <pt x="480" y="682" on="0"/>
        <pt x="503" y="683" on="0"/>
        <pt x="506" y="683" on="1"/>
        <pt x="518" y="683" on="1"/>
        <pt x="524" y="677" on="0"/>
        <pt x="525" y="672" on="0"/>
        <pt x="522" y="656" on="1"/>
        <pt x="518" y="642" on="0"/>
        <pt x="513" y="637" on="1"/>
        <pt x="475" y="637" on="1"/>
        <pt x="406" y="636" on="0"/>
        <pt x="394" y="628" on="1"/>
        <pt x="387" y="624" on="0"/>
        <pt x="373" y="575" on="0"/>
        <pt x="313" y="336" on="1"/>
        <pt x="297" y="271" on="0"/>
        <pt x="261" y="124" on="0"/>
        <pt x="252" y="88" on="1"/>
        <pt x="243" y="52" on="1"/>
        <pt x="243" y="48" on="0"/>
        <pt x="261" y="47" on="0"/>
        <pt x="311" y="46" on="1"/>
        <pt x="386" y="46" on="0"/>
        <pt x="449" y="56" on="0"/>
        <pt x="487" y="78" on="1"/>
        <pt x="527" y="101" on="0"/>
        <pt x="576" y="178" on="0"/>
        <pt x="600" y="242" on="1"/>
        <pt x="607" y="262" on="0"/>
        <pt x="611" y="270" on="1"/>
        <pt x="616" y="273" on="0"/>
        <pt x="628" y="273" on="1"/>
        <pt x="641" y="273" on="1"/>
        <pt x="647" y="264" on="0"/>
        <pt x="647" y="260" on="0"/>
        <pt x="606" y="146" on="0"/>
        <pt x="560" y="19" on="0"/>
        <pt x="557" y="9" on="1"/>
        <pt x="554" y="3" on="0"/>
        <pt x="552" y="2" on="1"/>
        <pt x="549" y="0" on="0"/>
        <pt x="39" y="0" on="0"/>
        <pt x="36" y="2" on="1"/>
        <pt x="32" y="5" on="0"/>
        <pt x="32" y="10" on="1"/>
        <pt x="32" y="17" on="0"/>
        <pt x="34" y="24" on="1"/>
        <pt x="39" y="43" on="0"/>
        <pt x="44" y="45" on="1"/>
        <pt x="48" y="46" on="0"/>
        <pt x="59" y="46" on="1"/>
        <pt x="65" y="46" on="1"/>
        <pt x="92" y="46" on="0"/>
        <pt x="125" y="49" on="1"/>
        <pt x="139" y="52" on="0"/>
        <pt x="144" y="61" on="1"/>
        <pt x="147" y="65" on="0"/>
        <pt x="285" y="613" on="0"/>
      </contour>
    </TTGlyph>
    <TTGlyph name="Lambda" xMin="35" yMin="0" xMax="670" yMax="716">
      <contour>
        <pt x="240" y="0" on="1"/>
        <pt x="226" y="0" on="0"/>
        <pt x="158" y="2" on="0"/>
        <pt x="135" y="2" on="1"/>
        <pt x="74" y="2" on="0"/>
        <pt x="62" y="1" on="1"/>
        <pt x="45" y="0" on="0"/>
        <pt x="38" y="2" on="0"/>
        <pt x="36" y="7" on="1"/>
        <pt x="35" y="8" on="0"/>
        <pt x="35" y="11" on="1"/>
        <pt x="35" y="26" on="0"/>
        <pt x="42" y="40" on="1"/>
        <pt x="45" y="46" on="0"/>
        <pt x="55" y="46" on="1"/>
        <pt x="119" y="46" on="0"/>
        <pt x="151" y="94" on="1"/>
        <pt x="153" y="97" on="0"/>
        <pt x="498" y="708" on="0"/>
        <pt x="498" y="709" on="1"/>
        <pt x="505" y="716" on="0"/>
        <pt x="526" y="716" on="1"/>
        <pt x="543" y="716" on="0"/>
        <pt x="549" y="710" on="1"/>
        <pt x="550" y="709" on="0"/>
        <pt x="570" y="387" on="0"/>
        <pt x="590" y="61" on="0"/>
        <pt x="591" y="57" on="1"/>
        <pt x="594" y="52" on="0"/>
        <pt x="595" y="52" on="1"/>
        <pt x="603" y="47" on="0"/>
        <pt x="638" y="46" on="1"/>
        <pt x="663" y="46" on="1"/>
        <pt x="670" y="39" on="0"/>
        <pt x="670" y="35" on="1"/>
        <pt x="670" y="13" on="0"/>
        <pt x="657" y="0" on="1"/>
        <pt x="644" y="0" on="1"/>
        <pt x="613" y="2" on="0"/>
        <pt x="530" y="2" on="1"/>
        <pt x="509" y="2" on="0"/>
        <pt x="425" y="1" on="0"/>
        <pt x="405" y="1" on="1"/>
        <pt x="389" y="1" on="0"/>
        <pt x="389" y="8" on="1"/>
        <pt x="389" y="12" on="0"/>
        <pt x="395" y="39" on="0"/>
        <pt x="396" y="40" on="1"/>
        <pt x="398" y="46" on="0"/>
        <pt x="415" y="46" on="1"/>
        <pt x="472" y="46" on="0"/>
        <pt x="487" y="64" on="1"/>
        <pt x="472" y="306" on="1"/>
        <pt x="468" y="365" on="0"/>
        <pt x="461" y="487" on="0"/>
        <pt x="459" y="518" on="1"/>
        <pt x="457" y="550" on="1"/>
        <pt x="456" y="550" on="0"/>
        <pt x="200" y="93" on="0"/>
        <pt x="198" y="88" on="1"/>
        <pt x="196" y="84" on="0"/>
        <pt x="196" y="76" on="1"/>
        <pt x="196" y="50" on="0"/>
        <pt x="243" y="46" on="1"/>
        <pt x="262" y="46" on="0"/>
        <pt x="262" y="36" on="1"/>
        <pt x="262" y="31" on="0"/>
        <pt x="259" y="22" on="1"/>
        <pt x="256" y="7" on="0"/>
        <pt x="251" y="0" on="0"/>
      </contour>
    </TTGlyph>
    <TTGlyph name="M" xMin="35" yMin="0" xMax="1051" yMax="683">
      <contour>
        <pt x="267" y="0" on="1"/>
        <pt x="253" y="0" on="0"/>
        <pt x="184" y="2" on="0"/>
        <pt x="157" y="2" on="1"/>
        <pt x="85" y="2" on="0"/>
        <pt x="68" y="1" on="1"/>
        <pt x="44" y="0" on="0"/>
        <pt x="41" y="2" on="1"/>
        <pt x="35" y="4" on="0"/>
        <pt x="35" y="11" on="1"/>
        <pt x="35" y="13" on="0"/>
        <pt x="42" y="38" on="0"/>
        <pt x="43" y="40" on="1"/>
        <pt x="45" y="46" on="0"/>
        <pt x="65" y="46" on="1"/>
        <pt x="137" y="50" on="0"/>
        <pt x="154" y="86" on="1"/>
        <pt x="158" y="92" on="0"/>
        <pt x="289" y="617" on="0"/>
        <pt x="289" y="629" on="1"/>
        <pt x="289" y="633" on="0"/>
        <pt x="286" y="633" on="1"/>
        <pt x="285" y="633" on="0"/>
        <pt x="284" y="633" on="1"/>
        <pt x="274" y="636" on="0"/>
        <pt x="232" y="637" on="1"/>
        <pt x="207" y="637" on="0"/>
        <pt x="197" y="640" on="0"/>
        <pt x="195" y="645" on="1"/>
        <pt x="194" y="649" on="0"/>
        <pt x="196" y="659" on="1"/>
        <pt x="202" y="679" on="0"/>
        <pt x="208" y="683" on="0"/>
        <pt x="307" y="683" on="1"/>
        <pt x="386" y="683" on="0"/>
        <pt x="411" y="682" on="0"/>
        <pt x="414" y="678" on="1"/>
        <pt x="415" y="674" on="0"/>
        <pt x="487" y="119" on="0"/>
        <pt x="487" y="117" on="1"/>
        <pt x="487" y="116" on="0"/>
        <pt x="511" y="153" on="0"/>
        <pt x="552" y="218" on="0"/>
        <pt x="605" y="301" on="0"/>
        <pt x="663" y="394" on="0"/>
        <pt x="721" y="487" on="0"/>
        <pt x="774" y="571" on="0"/>
        <pt x="815" y="636" on="0"/>
        <pt x="827" y="656" on="1"/>
        <pt x="839" y="675" on="1"/>
        <pt x="840" y="676" on="0"/>
        <pt x="845" y="680" on="0"/>
        <pt x="846" y="681" on="1"/>
        <pt x="852" y="683" on="1"/>
        <pt x="948" y="683" on="1"/>
        <pt x="1044" y="683" on="0"/>
        <pt x="1047" y="681" on="1"/>
        <pt x="1051" y="678" on="0"/>
        <pt x="1051" y="673" on="1"/>
        <pt x="1051" y="670" on="0"/>
        <pt x="1045" y="645" on="0"/>
        <pt x="1045" y="643" on="1"/>
        <pt x="1041" y="637" on="0"/>
        <pt x="1008" y="637" on="1"/>
        <pt x="954" y="636" on="0"/>
        <pt x="946" y="630" on="1"/>
        <pt x="942" y="628" on="0"/>
        <pt x="939" y="623" on="1"/>
        <pt x="936" y="618" on="0"/>
        <pt x="797" y="62" on="0"/>
        <pt x="797" y="59" on="1"/>
        <pt x="797" y="52" on="0"/>
        <pt x="800" y="51" on="1"/>
        <pt x="807" y="48" on="0"/>
        <pt x="855" y="46" on="1"/>
        <pt x="886" y="46" on="1"/>
        <pt x="892" y="37" on="0"/>
        <pt x="892" y="35" on="1"/>
        <pt x="892" y="19" on="0"/>
        <pt x="885" y="5" on="1"/>
        <pt x="880" y="0" on="0"/>
        <pt x="869" y="0" on="1"/>
        <pt x="852" y="0" on="0"/>
        <pt x="768" y="2" on="0"/>
        <pt x="736" y="2" on="1"/>
        <pt x="705" y="2" on="0"/>
        <pt x="624" y="1" on="0"/>
        <pt x="609" y="1" on="1"/>
        <pt x="596" y="1" on="0"/>
        <pt x="593" y="6" on="1"/>
        <pt x="591" y="9" on="0"/>
        <pt x="594" y="25" on="1"/>
        <pt x="598" y="41" on="0"/>
        <pt x="606" y="46" on="0"/>
        <pt x="625" y="46" on="1"/>
        <pt x="652" y="46" on="0"/>
        <pt x="685" y="49" on="1"/>
        <pt x="699" y="52" on="0"/>
        <pt x="704" y="61" on="1"/>
        <pt x="706" y="65" on="0"/>
        <pt x="778" y="350" on="0"/>
        <pt x="848" y="630" on="0"/>
        <pt x="848" y="631" on="1"/>
        <pt x="760" y="492" on="0"/>
        <pt x="654" y="322" on="1"/>
        <pt x="457" y="9" on="1"/>
        <pt x="448" y="0" on="0"/>
        <pt x="418" y="0" on="0"/>
        <pt x="415" y="7" on="1"/>
        <pt x="412" y="12" on="0"/>
        <pt x="341" y="574" on="0"/>
        <pt x="335" y="624" on="1"/>
        <pt x="200" y="89" on="0"/>
        <pt x="200" y="79" on="1"/>
        <pt x="206" y="46" on="0"/>
        <pt x="272" y="46" on="1"/>
        <pt x="282" y="46" on="1"/>
        <pt x="288" y="41" on="0"/>
        <pt x="290" y="33" on="0"/>
        <pt x="286" y="19" on="1"/>
        <pt x="282" y="3" on="0"/>
        <pt x="278" y="1" on="1"/>
        <pt x="274" y="0" on="0"/>
      </contour>
    </TTGlyph>
    <TTGlyph name="N" xMin="31" yMin="0" xMax="888" yMax="683">
      <contour>
        <pt x="46" y="1" on="1"/>
        <pt x="31" y="1" on="0"/>
        <pt x="31" y="10" on="1"/>
        <pt x="31" y="13" on="0"/>
        <pt x="38" y="39" on="0"/>
        <pt x="39" y="40" on="1"/>
        <pt x="41" y="46" on="0"/>
        <pt x="62" y="46" on="1"/>
        <pt x="130" y="49" on="0"/>
        <pt x="150" y="85" on="1"/>
        <pt x="155" y="94" on="0"/>
        <pt x="289" y="634" on="1"/>
        <pt x="287" y="635" on="0"/>
        <pt x="234" y="637" on="1"/>
        <pt x="204" y="637" on="0"/>
        <pt x="193" y="639" on="0"/>
        <pt x="192" y="644" on="1"/>
        <pt x="190" y="647" on="0"/>
        <pt x="193" y="662" on="1"/>
        <pt x="198" y="680" on="0"/>
        <pt x="202" y="682" on="1"/>
        <pt x="204" y="683" on="0"/>
        <pt x="299" y="683" on="1"/>
        <pt x="376" y="683" on="0"/>
        <pt x="399" y="682" on="0"/>
        <pt x="401" y="677" on="1"/>
        <pt x="454" y="552" on="1"/>
        <pt x="507" y="427" on="0"/>
        <pt x="615" y="173" on="0"/>
        <pt x="616" y="168" on="1"/>
        <pt x="670" y="381" on="1"/>
        <pt x="723" y="592" on="0"/>
        <pt x="723" y="606" on="1"/>
        <pt x="723" y="632" on="0"/>
        <pt x="659" y="637" on="1"/>
        <pt x="638" y="637" on="0"/>
        <pt x="636" y="644" on="1"/>
        <pt x="634" y="647" on="0"/>
        <pt x="637" y="660" on="1"/>
        <pt x="638" y="663" on="0"/>
        <pt x="640" y="671" on="0"/>
        <pt x="640" y="675" on="0"/>
        <pt x="642" y="679" on="0"/>
        <pt x="644" y="681" on="0"/>
        <pt x="646" y="683" on="0"/>
        <pt x="650" y="683" on="0"/>
        <pt x="653" y="683" on="1"/>
        <pt x="667" y="683" on="0"/>
        <pt x="740" y="680" on="0"/>
        <pt x="767" y="680" on="1"/>
        <pt x="793" y="680" on="0"/>
        <pt x="860" y="682" on="0"/>
        <pt x="873" y="682" on="1"/>
        <pt x="888" y="682" on="0"/>
        <pt x="888" y="672" on="1"/>
        <pt x="888" y="668" on="0"/>
        <pt x="881" y="643" on="0"/>
        <pt x="880" y="642" on="1"/>
        <pt x="878" y="637" on="0"/>
        <pt x="858" y="637" on="1"/>
        <pt x="787" y="634" on="0"/>
        <pt x="769" y="597" on="1"/>
        <pt x="620" y="7" on="1"/>
        <pt x="618" y="0" on="0"/>
        <pt x="599" y="0" on="1"/>
        <pt x="585" y="0" on="0"/>
        <pt x="582" y="2" on="1"/>
        <pt x="326" y="604" on="1"/>
        <pt x="196" y="83" on="0"/>
        <pt x="196" y="79" on="1"/>
        <pt x="202" y="46" on="0"/>
        <pt x="268" y="46" on="1"/>
        <pt x="278" y="46" on="1"/>
        <pt x="284" y="41" on="0"/>
        <pt x="286" y="34" on="0"/>
        <pt x="282" y="19" on="1"/>
        <pt x="278" y="6" on="0"/>
        <pt x="272" y="0" on="1"/>
        <pt x="259" y="0" on="1"/>
        <pt x="228" y="2" on="0"/>
        <pt x="151" y="2" on="1"/>
        <pt x="131" y="2" on="0"/>
        <pt x="62" y="1" on="0"/>
      </contour>
    </TTGlyph>
    <TTGlyph name="O" xMin="50" yMin="-22" xMax="740" yMax="704">
      <contour>
        <pt x="459" y="704" on="1"/>
        <pt x="476" y="704" on="1"/>
        <pt x="514" y="704" on="0"/>
        <pt x="524" y="703" on="1"/>
        <pt x="622" y="689" on="0"/>
        <pt x="740" y="545" on="0"/>
        <pt x="740" y="435" on="1"/>
        <pt x="740" y="300" on="0"/>
        <pt x="653" y="179" on="1"/>
        <pt x="596" y="97" on="0"/>
        <pt x="515" y="46" on="1"/>
        <pt x="410" y="-22" on="0"/>
        <pt x="304" y="-22" on="1"/>
        <pt x="197" y="-22" on="0"/>
        <pt x="126" y="46" on="1"/>
        <pt x="50" y="120" on="0"/>
        <pt x="50" y="244" on="1"/>
        <pt x="50" y="279" on="0"/>
        <pt x="51" y="289" on="1"/>
        <pt x="69" y="426" on="0"/>
        <pt x="167" y="541" on="1"/>
        <pt x="195" y="573" on="0"/>
        <pt x="227" y="601" on="1"/>
        <pt x="338" y="693" on="0"/>
      </contour>
      <contour>
        <pt x="637" y="476" on="1"/>
        <pt x="637" y="552" on="0"/>
        <pt x="568" y="650" on="0"/>
        <pt x="507" y="662" on="1"/>
        <pt x="494" y="665" on="0"/>
        <pt x="476" y="665" on="1"/>
        <pt x="455" y="665" on="0"/>
        <pt x="439" y="661" on="1"/>
        <pt x="377" y="650" on="0"/>
        <pt x="322" y="605" on="1"/>
        <pt x="299" y="587" on="0"/>
        <pt x="267" y="550" on="1"/>
        <pt x="221" y="491" on="0"/>
        <pt x="157" y="306" on="0"/>
        <pt x="157" y="216" on="1"/>
        <pt x="157" y="144" on="0"/>
        <pt x="214" y="44" on="0"/>
        <pt x="265" y="27" on="1"/>
        <pt x="291" y="19" on="0"/>
        <pt x="314" y="19" on="1"/>
        <pt x="375" y="19" on="0"/>
        <pt x="434" y="57" on="1"/>
        <pt x="553" y="135" on="0"/>
        <pt x="608" y="313" on="1"/>
        <pt x="637" y="408" on="0"/>
      </contour>
    </TTGlyph>
    <TTGlyph name="Omega" xMin="80" yMin="0" xMax="786" yMax="704">
      <contour>
        <pt x="87" y="0" on="1"/>
        <pt x="83" y="3" on="0"/>
        <pt x="80" y="7" on="1"/>
        <pt x="80" y="18" on="1"/>
        <pt x="80" y="22" on="0"/>
        <pt x="82" y="98" on="1"/>
        <pt x="84" y="156" on="0"/>
        <pt x="86" y="170" on="0"/>
        <pt x="91" y="172" on="1"/>
        <pt x="94" y="173" on="0"/>
        <pt x="115" y="173" on="0"/>
        <pt x="119" y="172" on="1"/>
        <pt x="124" y="169" on="0"/>
        <pt x="124" y="126" on="1"/>
        <pt x="125" y="104" on="0"/>
        <pt x="125" y="84" on="1"/>
        <pt x="126" y="80" on="0"/>
        <pt x="139" y="78" on="1"/>
        <pt x="140" y="78" on="0"/>
        <pt x="155" y="77" on="0"/>
        <pt x="184" y="76" on="0"/>
        <pt x="194" y="76" on="1"/>
        <pt x="243" y="76" on="1"/>
        <pt x="243" y="78" on="1"/>
        <pt x="243" y="90" on="0"/>
        <pt x="239" y="114" on="1"/>
        <pt x="233" y="151" on="0"/>
        <pt x="202" y="232" on="1"/>
        <pt x="173" y="308" on="0"/>
        <pt x="165" y="350" on="1"/>
        <pt x="164" y="359" on="0"/>
        <pt x="162" y="389" on="1"/>
        <pt x="162" y="421" on="0"/>
        <pt x="167" y="447" on="1"/>
        <pt x="176" y="492" on="0"/>
        <pt x="234" y="580" on="0"/>
        <pt x="272" y="610" on="1"/>
        <pt x="336" y="662" on="0"/>
        <pt x="410" y="685" on="1"/>
        <pt x="469" y="704" on="0"/>
        <pt x="525" y="704" on="1"/>
        <pt x="628" y="704" on="0"/>
        <pt x="698" y="661" on="1"/>
        <pt x="739" y="634" on="0"/>
        <pt x="786" y="552" on="0"/>
        <pt x="786" y="504" on="1"/>
        <pt x="786" y="432" on="0"/>
        <pt x="730" y="347" on="1"/>
        <pt x="707" y="311" on="0"/>
        <pt x="630" y="223" on="1"/>
        <pt x="565" y="149" on="0"/>
        <pt x="537" y="109" on="1"/>
        <pt x="518" y="81" on="0"/>
        <pt x="518" y="77" on="1"/>
        <pt x="537" y="76" on="0"/>
        <pt x="557" y="76" on="1"/>
        <pt x="569" y="76" on="0"/>
        <pt x="604" y="77" on="0"/>
        <pt x="605" y="77" on="1"/>
        <pt x="624" y="79" on="0"/>
        <pt x="635" y="83" on="0"/>
        <pt x="640" y="92" on="1"/>
        <pt x="651" y="107" on="0"/>
        <pt x="676" y="161" on="1"/>
        <pt x="680" y="171" on="0"/>
        <pt x="683" y="172" on="1"/>
        <pt x="686" y="174" on="0"/>
        <pt x="709" y="174" on="0"/>
        <pt x="712" y="172" on="1"/>
        <pt x="718" y="168" on="0"/>
        <pt x="718" y="162" on="1"/>
        <pt x="681" y="82" on="1"/>
        <pt x="645" y="3" on="0"/>
        <pt x="642" y="2" on="1"/>
        <pt x="639" y="0" on="0"/>
        <pt x="550" y="0" on="1"/>
        <pt x="461" y="0" on="1"/>
        <pt x="455" y="5" on="0"/>
        <pt x="454" y="13" on="0"/>
        <pt x="458" y="28" on="1"/>
        <pt x="469" y="68" on="0"/>
        <pt x="495" y="119" on="1"/>
        <pt x="512" y="157" on="0"/>
        <pt x="560" y="234" on="1"/>
        <pt x="600" y="301" on="0"/>
        <pt x="626" y="351" on="1"/>
        <pt x="677" y="447" on="0"/>
        <pt x="677" y="525" on="1"/>
        <pt x="677" y="591" on="0"/>
        <pt x="597" y="668" on="0"/>
        <pt x="530" y="668" on="1"/>
        <pt x="455" y="668" on="0"/>
        <pt x="385" y="617" on="1"/>
        <pt x="290" y="547" on="0"/>
        <pt x="271" y="400" on="1"/>
        <pt x="270" y="388" on="0"/>
        <pt x="270" y="348" on="1"/>
        <pt x="270" y="302" on="0"/>
        <pt x="277" y="233" on="1"/>
        <pt x="285" y="151" on="0"/>
        <pt x="285" y="115" on="1"/>
        <pt x="285" y="94" on="0"/>
        <pt x="281" y="56" on="1"/>
        <pt x="276" y="16" on="0"/>
        <pt x="271" y="6" on="1"/>
        <pt x="269" y="1" on="0"/>
        <pt x="247" y="0" on="0"/>
        <pt x="175" y="0" on="1"/>
      </contour>
    </TTGlyph>
    <TTGlyph name="P" xMin="33" yMin="0" xMax="751" yMax="683">
      <contour>
        <pt x="287" y="628" on="1"/>
        <pt x="287" y="629" on="0"/>
        <pt x="285" y="632" on="0"/>
        <pt x="281" y="633" on="0"/>
        <pt x="277" y="635" on="0"/>
        <pt x="269" y="636" on="0"/>
        <pt x="263" y="636" on="0"/>
        <pt x="253" y="636" on="0"/>
        <pt x="246" y="637" on="0"/>
        <pt x="234" y="637" on="0"/>
        <pt x="230" y="637" on="1"/>
        <pt x="205" y="637" on="0"/>
        <pt x="195" y="640" on="0"/>
        <pt x="193" y="645" on="1"/>
        <pt x="192" y="649" on="0"/>
        <pt x="194" y="659" on="1"/>
        <pt x="200" y="679" on="0"/>
        <pt x="206" y="683" on="0"/>
        <pt x="397" y="683" on="1"/>
        <pt x="587" y="682" on="0"/>
        <pt x="600" y="680" on="1"/>
        <pt x="659" y="670" on="0"/>
        <pt x="738" y="607" on="0"/>
        <pt x="750" y="556" on="1"/>
        <pt x="751" y="550" on="0"/>
        <pt x="751" y="530" on="1"/>
        <pt x="751" y="505" on="0"/>
        <pt x="749" y="497" on="1"/>
        <pt x="737" y="440" on="0"/>
        <pt x="685" y="389" on="1"/>
        <pt x="616" y="321" on="0"/>
        <pt x="507" y="303" on="1"/>
        <pt x="500" y="302" on="0"/>
        <pt x="402" y="301" on="1"/>
        <pt x="307" y="301" on="1"/>
        <pt x="277" y="182" on="1"/>
        <pt x="247" y="66" on="0"/>
        <pt x="247" y="52" on="0"/>
        <pt x="250" y="51" on="1"/>
        <pt x="257" y="48" on="0"/>
        <pt x="305" y="46" on="1"/>
        <pt x="336" y="46" on="1"/>
        <pt x="342" y="37" on="0"/>
        <pt x="342" y="35" on="1"/>
        <pt x="342" y="19" on="0"/>
        <pt x="335" y="5" on="1"/>
        <pt x="330" y="0" on="0"/>
        <pt x="319" y="0" on="1"/>
        <pt x="302" y="0" on="0"/>
        <pt x="215" y="2" on="0"/>
        <pt x="182" y="2" on="1"/>
        <pt x="150" y="2" on="0"/>
        <pt x="67" y="1" on="0"/>
        <pt x="51" y="1" on="1"/>
        <pt x="38" y="1" on="0"/>
        <pt x="35" y="6" on="1"/>
        <pt x="33" y="10" on="0"/>
        <pt x="33" y="11" on="1"/>
        <pt x="33" y="13" on="0"/>
        <pt x="36" y="25" on="1"/>
        <pt x="40" y="41" on="0"/>
        <pt x="48" y="46" on="0"/>
        <pt x="67" y="46" on="1"/>
        <pt x="94" y="46" on="0"/>
        <pt x="127" y="49" on="1"/>
        <pt x="141" y="52" on="0"/>
        <pt x="146" y="61" on="1"/>
        <pt x="149" y="65" on="0"/>
        <pt x="287" y="613" on="0"/>
      </contour>
      <contour>
        <pt x="645" y="554" on="1"/>
        <pt x="645" y="592" on="0"/>
        <pt x="601" y="627" on="0"/>
        <pt x="560" y="635" on="1"/>
        <pt x="553" y="636" on="0"/>
        <pt x="480" y="637" on="1"/>
        <pt x="463" y="637" on="0"/>
        <pt x="427" y="636" on="0"/>
        <pt x="405" y="636" on="0"/>
        <pt x="404" y="636" on="1"/>
        <pt x="391" y="635" on="0"/>
        <pt x="386" y="627" on="1"/>
        <pt x="384" y="621" on="0"/>
        <pt x="349" y="479" on="0"/>
        <pt x="315" y="345" on="0"/>
        <pt x="314" y="344" on="1"/>
        <pt x="314" y="342" on="0"/>
        <pt x="395" y="342" on="1"/>
        <pt x="479" y="343" on="0"/>
        <pt x="487" y="344" on="1"/>
        <pt x="554" y="354" on="0"/>
        <pt x="590" y="392" on="1"/>
        <pt x="617" y="419" on="0"/>
        <pt x="635" y="489" on="1"/>
        <pt x="645" y="530" on="0"/>
      </contour>
    </TTGlyph>
    <TTGlyph name="Phi" xMin="24" yMin="0" xMax="642" yMax="683">
      <contour>
        <pt x="356" y="624" on="1"/>
        <pt x="356" y="637" on="0"/>
        <pt x="267" y="637" on="1"/>
        <pt x="243" y="637" on="1"/>
        <pt x="237" y="642" on="0"/>
        <pt x="235" y="649" on="0"/>
        <pt x="239" y="664" on="1"/>
        <pt x="243" y="677" on="0"/>
        <pt x="249" y="683" on="1"/>
        <pt x="264" y="683" on="1"/>
        <pt x="342" y="681" on="0"/>
        <pt x="429" y="681" on="1"/>
        <pt x="490" y="681" on="1"/>
        <pt x="561" y="681" on="0"/>
        <pt x="571" y="683" on="1"/>
        <pt x="583" y="683" on="1"/>
        <pt x="589" y="677" on="0"/>
        <pt x="590" y="672" on="0"/>
        <pt x="587" y="656" on="1"/>
        <pt x="583" y="642" on="0"/>
        <pt x="578" y="637" on="1"/>
        <pt x="540" y="637" on="1"/>
        <pt x="471" y="636" on="0"/>
        <pt x="459" y="628" on="1"/>
        <pt x="452" y="624" on="0"/>
        <pt x="447" y="611" on="0"/>
        <pt x="438" y="576" on="1"/>
        <pt x="436" y="566" on="0"/>
        <pt x="431" y="545" on="0"/>
        <pt x="430" y="539" on="1"/>
        <pt x="428" y="533" on="1"/>
        <pt x="430" y="532" on="1"/>
        <pt x="432" y="532" on="0"/>
        <pt x="438" y="531" on="0"/>
        <pt x="440" y="531" on="1"/>
        <pt x="520" y="522" on="0"/>
        <pt x="642" y="437" on="0"/>
        <pt x="642" y="373" on="1"/>
        <pt x="642" y="343" on="0"/>
        <pt x="627" y="313" on="1"/>
        <pt x="602" y="260" on="0"/>
        <pt x="470" y="175" on="0"/>
        <pt x="386" y="158" on="1"/>
        <pt x="381" y="157" on="0"/>
        <pt x="368" y="155" on="0"/>
        <pt x="345" y="151" on="0"/>
        <pt x="336" y="150" on="1"/>
        <pt x="332" y="150" on="0"/>
        <pt x="331" y="146" on="1"/>
        <pt x="310" y="66" on="0"/>
        <pt x="310" y="54" on="0"/>
        <pt x="316" y="52" on="1"/>
        <pt x="328" y="46" on="0"/>
        <pt x="399" y="46" on="1"/>
        <pt x="424" y="46" on="1"/>
        <pt x="430" y="40" on="0"/>
        <pt x="431" y="35" on="0"/>
        <pt x="428" y="19" on="1"/>
        <pt x="424" y="6" on="0"/>
        <pt x="418" y="0" on="1"/>
        <pt x="401" y="0" on="1"/>
        <pt x="360" y="2" on="0"/>
        <pt x="247" y="2" on="1"/>
        <pt x="219" y="2" on="0"/>
        <pt x="118" y="1" on="0"/>
        <pt x="95" y="1" on="1"/>
        <pt x="84" y="1" on="0"/>
        <pt x="78" y="4" on="0"/>
        <pt x="78" y="10" on="1"/>
        <pt x="78" y="31" on="0"/>
        <pt x="84" y="40" on="1"/>
        <pt x="85" y="44" on="0"/>
        <pt x="94" y="46" on="0"/>
        <pt x="115" y="46" on="1"/>
        <pt x="183" y="46" on="0"/>
        <pt x="201" y="52" on="1"/>
        <pt x="209" y="54" on="0"/>
        <pt x="216" y="62" on="1"/>
        <pt x="218" y="67" on="0"/>
        <pt x="239" y="150" on="1"/>
        <pt x="223" y="152" on="1"/>
        <pt x="179" y="158" on="0"/>
        <pt x="147" y="170" on="1"/>
        <pt x="40" y="211" on="0"/>
        <pt x="26" y="290" on="1"/>
        <pt x="24" y="302" on="0"/>
        <pt x="24" y="311" on="1"/>
        <pt x="24" y="321" on="0"/>
        <pt x="26" y="333" on="1"/>
        <pt x="35" y="385" on="0"/>
        <pt x="130" y="473" on="0"/>
        <pt x="254" y="523" on="0"/>
        <pt x="318" y="531" on="1"/>
        <pt x="335" y="533" on="1"/>
        <pt x="356" y="620" on="0"/>
      </contour>
      <contour>
        <pt x="249" y="188" on="1"/>
        <pt x="249" y="189" on="0"/>
        <pt x="325" y="494" on="0"/>
        <pt x="325" y="495" on="1"/>
        <pt x="324" y="495" on="1"/>
        <pt x="306" y="495" on="0"/>
        <pt x="282" y="488" on="1"/>
        <pt x="203" y="468" on="0"/>
        <pt x="168" y="414" on="1"/>
        <pt x="130" y="357" on="0"/>
        <pt x="130" y="291" on="1"/>
        <pt x="130" y="240" on="0"/>
        <pt x="166" y="215" on="1"/>
        <pt x="196" y="194" on="0"/>
        <pt x="241" y="188" on="1"/>
      </contour>
      <contour>
        <pt x="418" y="496" on="1"/>
        <pt x="389" y="374" on="0"/>
        <pt x="341" y="187" on="1"/>
        <pt x="351" y="189" on="1"/>
        <pt x="443" y="201" on="0"/>
        <pt x="487" y="255" on="1"/>
        <pt x="536" y="314" on="0"/>
        <pt x="536" y="393" on="1"/>
        <pt x="536" y="441" on="0"/>
        <pt x="475" y="487" on="0"/>
      </contour>
    </TTGlyph>
    <TTGlyph name="Pi" xMin="31" yMin="0" xMax="887" yMax="680">
      <contour>
        <pt x="48" y="1" on="1"/>
        <pt x="31" y="1" on="0"/>
        <pt x="31" y="10" on="1"/>
        <pt x="31" y="12" on="0"/>
        <pt x="34" y="24" on="1"/>
        <pt x="39" y="43" on="0"/>
        <pt x="44" y="45" on="1"/>
        <pt x="48" y="46" on="0"/>
        <pt x="59" y="46" on="1"/>
        <pt x="65" y="46" on="1"/>
        <pt x="92" y="46" on="0"/>
        <pt x="125" y="49" on="1"/>
        <pt x="139" y="52" on="0"/>
        <pt x="144" y="61" on="1"/>
        <pt x="146" y="66" on="0"/>
        <pt x="285" y="618" on="0"/>
        <pt x="285" y="622" on="1"/>
        <pt x="285" y="629" on="0"/>
        <pt x="281" y="629" on="1"/>
        <pt x="273" y="632" on="0"/>
        <pt x="228" y="634" on="1"/>
        <pt x="197" y="634" on="1"/>
        <pt x="191" y="640" on="0"/>
        <pt x="190" y="644" on="0"/>
        <pt x="193" y="661" on="1"/>
        <pt x="197" y="674" on="0"/>
        <pt x="203" y="680" on="1"/>
        <pt x="541" y="680" on="1"/>
        <pt x="880" y="680" on="0"/>
        <pt x="883" y="678" on="1"/>
        <pt x="887" y="675" on="0"/>
        <pt x="887" y="670" on="1"/>
        <pt x="887" y="663" on="0"/>
        <pt x="885" y="656" on="1"/>
        <pt x="880" y="637" on="0"/>
        <pt x="875" y="635" on="1"/>
        <pt x="871" y="634" on="0"/>
        <pt x="860" y="634" on="1"/>
        <pt x="854" y="634" on="1"/>
        <pt x="827" y="634" on="0"/>
        <pt x="794" y="631" on="1"/>
        <pt x="780" y="628" on="0"/>
        <pt x="775" y="619" on="1"/>
        <pt x="773" y="614" on="0"/>
        <pt x="634" y="62" on="0"/>
        <pt x="634" y="58" on="1"/>
        <pt x="634" y="51" on="0"/>
        <pt x="638" y="51" on="1"/>
        <pt x="646" y="48" on="0"/>
        <pt x="692" y="46" on="1"/>
        <pt x="723" y="46" on="1"/>
        <pt x="728" y="39" on="0"/>
        <pt x="729" y="36" on="0"/>
        <pt x="726" y="19" on="1"/>
        <pt x="722" y="6" on="0"/>
        <pt x="716" y="0" on="1"/>
        <pt x="701" y="0" on="1"/>
        <pt x="664" y="2" on="0"/>
        <pt x="567" y="2" on="1"/>
        <pt x="542" y="2" on="0"/>
        <pt x="457" y="1" on="0"/>
        <pt x="437" y="1" on="1"/>
        <pt x="420" y="1" on="0"/>
        <pt x="420" y="9" on="1"/>
        <pt x="420" y="10" on="0"/>
        <pt x="422" y="21" on="0"/>
        <pt x="423" y="24" on="1"/>
        <pt x="428" y="43" on="0"/>
        <pt x="433" y="45" on="1"/>
        <pt x="437" y="46" on="0"/>
        <pt x="448" y="46" on="1"/>
        <pt x="454" y="46" on="1"/>
        <pt x="481" y="46" on="0"/>
        <pt x="514" y="49" on="1"/>
        <pt x="528" y="52" on="0"/>
        <pt x="533" y="61" on="1"/>
        <pt x="536" y="67" on="0"/>
        <pt x="608" y="352" on="0"/>
        <pt x="677" y="631" on="0"/>
        <pt x="678" y="632" on="1"/>
        <pt x="678" y="634" on="0"/>
        <pt x="533" y="634" on="1"/>
        <pt x="388" y="634" on="1"/>
        <pt x="379" y="601" on="0"/>
        <pt x="245" y="62" on="0"/>
        <pt x="245" y="59" on="1"/>
        <pt x="245" y="52" on="0"/>
        <pt x="248" y="51" on="1"/>
        <pt x="255" y="48" on="0"/>
        <pt x="303" y="46" on="1"/>
        <pt x="334" y="46" on="1"/>
        <pt x="339" y="39" on="0"/>
        <pt x="340" y="36" on="0"/>
        <pt x="337" y="19" on="1"/>
        <pt x="333" y="6" on="0"/>
        <pt x="327" y="0" on="1"/>
        <pt x="312" y="0" on="1"/>
        <pt x="275" y="2" on="0"/>
        <pt x="178" y="2" on="1"/>
        <pt x="153" y="2" on="0"/>
        <pt x="68" y="1" on="0"/>
      </contour>
    </TTGlyph>
    <TTGlyph name="Psi" xMin="21" yMin="0" xMax="692" yMax="683">
      <contour>
        <pt x="216" y="151" on="1"/>
        <pt x="48" y="176" on="0"/>
        <pt x="48" y="329" on="1"/>
        <pt x="48" y="368" on="0"/>
        <pt x="59" y="417" on="1"/>
        <pt x="65" y="440" on="0"/>
        <pt x="65" y="458" on="1"/>
        <pt x="65" y="505" on="0"/>
        <pt x="35" y="509" on="1"/>
        <pt x="21" y="511" on="0"/>
        <pt x="21" y="520" on="1"/>
        <pt x="21" y="535" on="0"/>
        <pt x="32" y="546" on="1"/>
        <pt x="72" y="546" on="1"/>
        <pt x="114" y="546" on="0"/>
        <pt x="118" y="545" on="1"/>
        <pt x="159" y="537" on="0"/>
        <pt x="159" y="476" on="1"/>
        <pt x="159" y="465" on="1"/>
        <pt x="159" y="440" on="0"/>
        <pt x="149" y="402" on="1"/>
        <pt x="138" y="354" on="0"/>
        <pt x="138" y="314" on="1"/>
        <pt x="141" y="229" on="0"/>
        <pt x="197" y="201" on="1"/>
        <pt x="223" y="187" on="0"/>
        <pt x="226" y="190" on="1"/>
        <pt x="233" y="218" on="1"/>
        <pt x="240" y="246" on="0"/>
        <pt x="267" y="355" on="0"/>
        <pt x="280" y="407" on="1"/>
        <pt x="333" y="619" on="0"/>
        <pt x="333" y="631" on="0"/>
        <pt x="318" y="634" on="1"/>
        <pt x="279" y="637" on="0"/>
        <pt x="244" y="637" on="1"/>
        <pt x="220" y="637" on="1"/>
        <pt x="214" y="642" on="0"/>
        <pt x="212" y="649" on="0"/>
        <pt x="216" y="664" on="1"/>
        <pt x="220" y="677" on="0"/>
        <pt x="226" y="683" on="1"/>
        <pt x="241" y="683" on="1"/>
        <pt x="321" y="681" on="0"/>
        <pt x="405" y="681" on="1"/>
        <pt x="467" y="681" on="1"/>
        <pt x="539" y="681" on="0"/>
        <pt x="549" y="683" on="1"/>
        <pt x="560" y="683" on="1"/>
        <pt x="566" y="677" on="0"/>
        <pt x="567" y="672" on="0"/>
        <pt x="564" y="656" on="1"/>
        <pt x="560" y="642" on="0"/>
        <pt x="555" y="637" on="1"/>
        <pt x="517" y="637" on="1"/>
        <pt x="448" y="636" on="0"/>
        <pt x="436" y="628" on="1"/>
        <pt x="429" y="623" on="0"/>
        <pt x="416" y="576" on="0"/>
        <pt x="373" y="404" on="1"/>
        <pt x="320" y="192" on="1"/>
        <pt x="321" y="192" on="0"/>
        <pt x="333" y="196" on="1"/>
        <pt x="380" y="210" on="0"/>
        <pt x="419" y="248" on="1"/>
        <pt x="476" y="307" on="0"/>
        <pt x="503" y="410" on="1"/>
        <pt x="510" y="437" on="0"/>
        <pt x="518" y="457" on="1"/>
        <pt x="547" y="534" on="0"/>
        <pt x="597" y="545" on="1"/>
        <pt x="602" y="546" on="0"/>
        <pt x="644" y="546" on="1"/>
        <pt x="676" y="546" on="1"/>
        <pt x="688" y="546" on="0"/>
        <pt x="691" y="539" on="1"/>
        <pt x="691" y="538" on="0"/>
        <pt x="692" y="536" on="1"/>
        <pt x="692" y="535" on="0"/>
        <pt x="691" y="531" on="1"/>
        <pt x="690" y="528" on="0"/>
        <pt x="690" y="525" on="1"/>
        <pt x="687" y="515" on="0"/>
        <pt x="682" y="509" on="0"/>
        <pt x="676" y="509" on="1"/>
        <pt x="652" y="509" on="0"/>
        <pt x="631" y="483" on="1"/>
        <pt x="608" y="456" on="0"/>
        <pt x="593" y="399" on="1"/>
        <pt x="569" y="307" on="0"/>
        <pt x="448" y="181" on="0"/>
        <pt x="359" y="159" on="1"/>
        <pt x="324" y="151" on="0"/>
        <pt x="314" y="151" on="1"/>
        <pt x="311" y="151" on="0"/>
        <pt x="309" y="149" on="0"/>
        <pt x="287" y="63" on="0"/>
        <pt x="287" y="60" on="1"/>
        <pt x="287" y="54" on="0"/>
        <pt x="293" y="52" on="1"/>
        <pt x="305" y="46" on="0"/>
        <pt x="376" y="46" on="1"/>
        <pt x="401" y="46" on="1"/>
        <pt x="407" y="40" on="0"/>
        <pt x="408" y="35" on="0"/>
        <pt x="405" y="19" on="1"/>
        <pt x="401" y="6" on="0"/>
        <pt x="395" y="0" on="1"/>
        <pt x="378" y="0" on="1"/>
        <pt x="337" y="2" on="0"/>
        <pt x="224" y="2" on="1"/>
        <pt x="196" y="2" on="0"/>
        <pt x="95" y="1" on="0"/>
        <pt x="72" y="1" on="1"/>
        <pt x="61" y="1" on="0"/>
        <pt x="55" y="4" on="0"/>
        <pt x="55" y="10" on="1"/>
        <pt x="55" y="31" on="0"/>
        <pt x="61" y="40" on="1"/>
        <pt x="62" y="44" on="0"/>
        <pt x="71" y="46" on="0"/>
        <pt x="92" y="46" on="1"/>
        <pt x="160" y="46" on="0"/>
        <pt x="178" y="52" on="1"/>
        <pt x="186" y="54" on="0"/>
        <pt x="193" y="62" on="1"/>
        <pt x="216" y="148" on="0"/>
      </contour>
    </TTGlyph>
    <TTGlyph name="Q" xMin="50" yMin="-194" xMax="740" yMax="704">
      <contour>
        <pt x="399" y="-80" on="1"/>
        <pt x="399" y="-69" on="0"/>
        <pt x="402" y="-18" on="0"/>
        <pt x="402" y="-11" on="1"/>
        <pt x="402" y="-7" on="1"/>
        <pt x="387" y="-11" on="1"/>
        <pt x="341" y="-22" on="0"/>
        <pt x="303" y="-22" on="1"/>
        <pt x="197" y="-22" on="0"/>
        <pt x="126" y="46" on="1"/>
        <pt x="50" y="120" on="0"/>
        <pt x="50" y="244" on="1"/>
        <pt x="50" y="279" on="0"/>
        <pt x="51" y="289" on="1"/>
        <pt x="69" y="426" on="0"/>
        <pt x="167" y="541" on="1"/>
        <pt x="195" y="573" on="0"/>
        <pt x="227" y="601" on="1"/>
        <pt x="338" y="693" on="0"/>
        <pt x="459" y="704" on="1"/>
        <pt x="476" y="704" on="1"/>
        <pt x="514" y="704" on="0"/>
        <pt x="524" y="703" on="1"/>
        <pt x="622" y="689" on="0"/>
        <pt x="740" y="545" on="0"/>
        <pt x="740" y="435" on="1"/>
        <pt x="740" y="301" on="0"/>
        <pt x="574" y="68" on="0"/>
        <pt x="461" y="16" on="1"/>
        <pt x="444" y="8" on="1"/>
        <pt x="444" y="3" on="1"/>
        <pt x="444" y="2" on="0"/>
        <pt x="446" y="-3" on="0"/>
        <pt x="447" y="-10" on="0"/>
        <pt x="448" y="-13" on="1"/>
        <pt x="457" y="-52" on="0"/>
        <pt x="485" y="-82" on="0"/>
        <pt x="516" y="-82" on="1"/>
        <pt x="554" y="-82" on="0"/>
        <pt x="616" y="-35" on="0"/>
        <pt x="625" y="-3" on="1"/>
        <pt x="631" y="11" on="0"/>
        <pt x="638" y="11" on="1"/>
        <pt x="647" y="11" on="0"/>
        <pt x="649" y="2" on="1"/>
        <pt x="649" y="-4" on="0"/>
        <pt x="642" y="-27" on="1"/>
        <pt x="601" y="-148" on="0"/>
        <pt x="531" y="-183" on="1"/>
        <pt x="506" y="-194" on="0"/>
        <pt x="481" y="-194" on="1"/>
        <pt x="435" y="-194" on="0"/>
        <pt x="399" y="-135" on="0"/>
      </contour>
      <contour>
        <pt x="347" y="155" on="1"/>
        <pt x="383" y="155" on="0"/>
        <pt x="430" y="103" on="0"/>
        <pt x="435" y="55" on="1"/>
        <pt x="448" y="64" on="1"/>
        <pt x="525" y="117" on="0"/>
        <pt x="620" y="305" on="0"/>
        <pt x="635" y="425" on="1"/>
        <pt x="636" y="435" on="0"/>
        <pt x="636" y="468" on="1"/>
        <pt x="636" y="585" on="0"/>
        <pt x="568" y="635" on="1"/>
        <pt x="529" y="665" on="0"/>
        <pt x="477" y="665" on="1"/>
        <pt x="429" y="665" on="0"/>
        <pt x="379" y="640" on="1"/>
        <pt x="289" y="596" on="0"/>
        <pt x="169" y="387" on="0"/>
        <pt x="154" y="257" on="1"/>
        <pt x="153" y="246" on="0"/>
        <pt x="153" y="216" on="1"/>
        <pt x="153" y="112" on="0"/>
        <pt x="207" y="59" on="1"/>
        <pt x="231" y="38" on="0"/>
        <pt x="236" y="38" on="1"/>
        <pt x="236" y="46" on="1"/>
        <pt x="236" y="91" on="0"/>
        <pt x="307" y="155" on="0"/>
      </contour>
      <contour>
        <pt x="314" y="18" on="1"/>
        <pt x="360" y="18" on="0"/>
        <pt x="404" y="39" on="1"/>
        <pt x="403" y="49" on="1"/>
        <pt x="399" y="104" on="0"/>
        <pt x="366" y="115" on="1"/>
        <pt x="354" y="117" on="0"/>
        <pt x="347" y="117" on="1"/>
        <pt x="344" y="117" on="0"/>
        <pt x="338" y="118" on="0"/>
        <pt x="337" y="118" on="1"/>
        <pt x="333" y="118" on="0"/>
        <pt x="324" y="115" on="1"/>
        <pt x="304" y="109" on="0"/>
        <pt x="274" y="74" on="0"/>
        <pt x="274" y="52" on="1"/>
        <pt x="274" y="18" on="0"/>
      </contour>
    </TTGlyph>
    <TTGlyph name="R" xMin="33" yMin="-21" xMax="755" yMax="683">
      <contour>
        <pt x="287" y="628" on="1"/>
        <pt x="287" y="629" on="0"/>
        <pt x="285" y="632" on="0"/>
        <pt x="281" y="633" on="0"/>
        <pt x="277" y="635" on="0"/>
        <pt x="269" y="636" on="0"/>
        <pt x="263" y="636" on="0"/>
        <pt x="253" y="636" on="0"/>
        <pt x="246" y="637" on="0"/>
        <pt x="234" y="637" on="0"/>
        <pt x="230" y="637" on="1"/>
        <pt x="206" y="637" on="0"/>
        <pt x="196" y="639" on="0"/>
        <pt x="194" y="644" on="1"/>
        <pt x="192" y="647" on="0"/>
        <pt x="195" y="662" on="1"/>
        <pt x="200" y="680" on="0"/>
        <pt x="204" y="682" on="1"/>
        <pt x="206" y="683" on="0"/>
        <pt x="378" y="683" on="1"/>
        <pt x="550" y="682" on="0"/>
        <pt x="564" y="680" on="1"/>
        <pt x="655" y="667" on="0"/>
        <pt x="702" y="618" on="1"/>
        <pt x="739" y="578" on="0"/>
        <pt x="739" y="529" on="1"/>
        <pt x="739" y="519" on="0"/>
        <pt x="735" y="499" on="1"/>
        <pt x="712" y="410" on="0"/>
        <pt x="588" y="355" on="1"/>
        <pt x="544" y="338" on="0"/>
        <pt x="538" y="338" on="1"/>
        <pt x="545" y="333" on="1"/>
        <pt x="612" y="295" on="0"/>
        <pt x="612" y="223" on="1"/>
        <pt x="612" y="211" on="0"/>
        <pt x="607" y="159" on="1"/>
        <pt x="602" y="111" on="0"/>
        <pt x="602" y="80" on="1"/>
        <pt x="602" y="45" on="0"/>
        <pt x="616" y="16" on="0"/>
        <pt x="640" y="16" on="1"/>
        <pt x="654" y="16" on="0"/>
        <pt x="658" y="18" on="1"/>
        <pt x="696" y="33" on="0"/>
        <pt x="712" y="85" on="1"/>
        <pt x="717" y="99" on="0"/>
        <pt x="723" y="105" on="0"/>
        <pt x="735" y="105" on="1"/>
        <pt x="755" y="105" on="0"/>
        <pt x="755" y="93" on="1"/>
        <pt x="755" y="75" on="0"/>
        <pt x="731" y="36" on="1"/>
        <pt x="701" y="-8" on="0"/>
        <pt x="661" y="-19" on="1"/>
        <pt x="653" y="-21" on="0"/>
        <pt x="632" y="-21" on="1"/>
        <pt x="528" y="-21" on="0"/>
        <pt x="497" y="42" on="1"/>
        <pt x="488" y="58" on="0"/>
        <pt x="487" y="82" on="1"/>
        <pt x="487" y="93" on="0"/>
        <pt x="488" y="106" on="0"/>
        <pt x="490" y="122" on="0"/>
        <pt x="492" y="130" on="0"/>
        <pt x="500" y="156" on="0"/>
        <pt x="502" y="166" on="1"/>
        <pt x="517" y="223" on="0"/>
        <pt x="517" y="239" on="1"/>
        <pt x="517" y="289" on="0"/>
        <pt x="474" y="313" on="1"/>
        <pt x="459" y="320" on="0"/>
        <pt x="439" y="322" on="0"/>
        <pt x="378" y="323" on="1"/>
        <pt x="309" y="323" on="1"/>
        <pt x="277" y="193" on="1"/>
        <pt x="244" y="61" on="0"/>
        <pt x="244" y="59" on="1"/>
        <pt x="244" y="52" on="0"/>
        <pt x="247" y="51" on="1"/>
        <pt x="254" y="48" on="0"/>
        <pt x="302" y="46" on="1"/>
        <pt x="333" y="46" on="1"/>
        <pt x="338" y="39" on="0"/>
        <pt x="339" y="36" on="0"/>
        <pt x="336" y="19" on="1"/>
        <pt x="332" y="6" on="0"/>
        <pt x="326" y="0" on="1"/>
        <pt x="311" y="0" on="1"/>
        <pt x="275" y="2" on="0"/>
        <pt x="180" y="2" on="1"/>
        <pt x="156" y="2" on="0"/>
        <pt x="70" y="1" on="0"/>
        <pt x="50" y="1" on="1"/>
        <pt x="33" y="1" on="0"/>
        <pt x="33" y="10" on="1"/>
        <pt x="33" y="12" on="0"/>
        <pt x="36" y="24" on="1"/>
        <pt x="41" y="43" on="0"/>
        <pt x="46" y="45" on="1"/>
        <pt x="50" y="46" on="0"/>
        <pt x="61" y="46" on="1"/>
        <pt x="67" y="46" on="1"/>
        <pt x="94" y="46" on="0"/>
        <pt x="127" y="49" on="1"/>
        <pt x="141" y="52" on="0"/>
        <pt x="146" y="61" on="1"/>
        <pt x="149" y="65" on="0"/>
        <pt x="287" y="613" on="0"/>
      </contour>
      <contour>
        <pt x="614" y="602" on="1"/>
        <pt x="593" y="624" on="0"/>
        <pt x="525" y="637" on="0"/>
        <pt x="462" y="637" on="1"/>
        <pt x="450" y="637" on="0"/>
        <pt x="424" y="636" on="0"/>
        <pt x="405" y="636" on="0"/>
        <pt x="404" y="636" on="1"/>
        <pt x="391" y="635" on="0"/>
        <pt x="386" y="627" on="1"/>
        <pt x="385" y="624" on="0"/>
        <pt x="319" y="363" on="0"/>
        <pt x="319" y="361" on="1"/>
        <pt x="319" y="360" on="0"/>
        <pt x="388" y="360" on="1"/>
        <pt x="466" y="361" on="0"/>
        <pt x="492" y="367" on="1"/>
        <pt x="557" y="378" on="0"/>
        <pt x="592" y="426" on="1"/>
        <pt x="608" y="449" on="0"/>
        <pt x="630" y="524" on="0"/>
        <pt x="630" y="554" on="1"/>
        <pt x="630" y="585" on="0"/>
      </contour>
    </TTGlyph>
    <TTGlyph name="S" xMin="52" yMin="-22" xMax="645" yMax="705">
      <contour>
        <pt x="553" y="520" on="1"/>
        <pt x="553" y="588" on="0"/>
        <pt x="484" y="662" on="0"/>
        <pt x="419" y="662" on="1"/>
        <pt x="364" y="662" on="0"/>
        <pt x="263" y="572" on="0"/>
        <pt x="263" y="510" on="1"/>
        <pt x="263" y="479" on="0"/>
        <pt x="294" y="435" on="0"/>
        <pt x="319" y="427" on="1"/>
        <pt x="322" y="425" on="0"/>
        <pt x="455" y="390" on="0"/>
        <pt x="456" y="390" on="1"/>
        <pt x="471" y="386" on="0"/>
        <pt x="494" y="370" on="1"/>
        <pt x="554" y="327" on="0"/>
        <pt x="554" y="242" on="1"/>
        <pt x="554" y="216" on="0"/>
        <pt x="546" y="186" on="1"/>
        <pt x="541" y="159" on="0"/>
        <pt x="526" y="131" on="1"/>
        <pt x="464" y="8" on="0"/>
        <pt x="332" y="-20" on="1"/>
        <pt x="320" y="-22" on="0"/>
        <pt x="298" y="-22" on="1"/>
        <pt x="199" y="-22" on="0"/>
        <pt x="144" y="33" on="1"/>
        <pt x="134" y="44" on="1"/>
        <pt x="106" y="13" on="1"/>
        <pt x="78" y="-18" on="0"/>
        <pt x="72" y="-22" on="0"/>
        <pt x="65" y="-22" on="1"/>
        <pt x="52" y="-22" on="0"/>
        <pt x="52" y="-14" on="1"/>
        <pt x="52" y="-11" on="0"/>
        <pt x="110" y="221" on="1"/>
        <pt x="112" y="227" on="0"/>
        <pt x="130" y="227" on="1"/>
        <pt x="143" y="227" on="1"/>
        <pt x="148" y="222" on="0"/>
        <pt x="149" y="219" on="0"/>
        <pt x="147" y="204" on="1"/>
        <pt x="142" y="179" on="0"/>
        <pt x="142" y="153" on="1"/>
        <pt x="146" y="88" on="0"/>
        <pt x="233" y="24" on="0"/>
        <pt x="308" y="24" on="1"/>
        <pt x="318" y="24" on="0"/>
        <pt x="332" y="26" on="1"/>
        <pt x="379" y="37" on="0"/>
        <pt x="454" y="115" on="0"/>
        <pt x="464" y="166" on="1"/>
        <pt x="466" y="174" on="0"/>
        <pt x="466" y="197" on="1"/>
        <pt x="466" y="261" on="0"/>
        <pt x="414" y="284" on="1"/>
        <pt x="408" y="285" on="0"/>
        <pt x="276" y="320" on="0"/>
        <pt x="273" y="322" on="1"/>
        <pt x="229" y="335" on="0"/>
        <pt x="176" y="410" on="0"/>
        <pt x="176" y="462" on="1"/>
        <pt x="176" y="512" on="0"/>
        <pt x="233" y="619" on="0"/>
        <pt x="273" y="648" on="1"/>
        <pt x="324" y="692" on="0"/>
        <pt x="396" y="703" on="1"/>
        <pt x="400" y="704" on="0"/>
        <pt x="407" y="704" on="1"/>
        <pt x="418" y="704" on="1"/>
        <pt x="522" y="704" on="0"/>
        <pt x="564" y="640" on="1"/>
        <pt x="623" y="704" on="1"/>
        <pt x="624" y="704" on="0"/>
        <pt x="630" y="705" on="0"/>
        <pt x="632" y="705" on="1"/>
        <pt x="645" y="705" on="0"/>
        <pt x="645" y="691" on="0"/>
        <pt x="588" y="462" on="0"/>
        <pt x="582" y="456" on="0"/>
        <pt x="569" y="456" on="1"/>
        <pt x="549" y="456" on="0"/>
        <pt x="549" y="465" on="1"/>
        <pt x="549" y="471" on="0"/>
        <pt x="550" y="475" on="1"/>
        <pt x="550" y="480" on="0"/>
        <pt x="553" y="513" on="0"/>
      </contour>
    </TTGlyph>
    <TTGlyph name="Sigma" xMin="58" yMin="0" xMax="806" yMax="683">
      <contour>
        <pt x="739" y="455" on="1"/>
        <pt x="739" y="465" on="0"/>
        <pt x="743" y="508" on="0"/>
        <pt x="743" y="516" on="1"/>
        <pt x="743" y="554" on="0"/>
        <pt x="734" y="578" on="1"/>
        <pt x="721" y="605" on="0"/>
        <pt x="679" y="627" on="0"/>
        <pt x="638" y="632" on="1"/>
        <pt x="609" y="636" on="0"/>
        <pt x="469" y="637" on="1"/>
        <pt x="339" y="637" on="1"/>
        <pt x="344" y="627" on="0"/>
        <pt x="478" y="344" on="0"/>
        <pt x="478" y="341" on="1"/>
        <pt x="478" y="339" on="1"/>
        <pt x="477" y="337" on="0"/>
        <pt x="477" y="336" on="1"/>
        <pt x="457" y="318" on="1"/>
        <pt x="437" y="300" on="0"/>
        <pt x="358" y="229" on="0"/>
        <pt x="322" y="196" on="1"/>
        <pt x="168" y="57" on="1"/>
        <pt x="167" y="56" on="0"/>
        <pt x="210" y="56" on="0"/>
        <pt x="258" y="56" on="1"/>
        <pt x="440" y="56" on="0"/>
        <pt x="462" y="58" on="1"/>
        <pt x="554" y="65" on="0"/>
        <pt x="590" y="93" on="1"/>
        <pt x="642" y="134" on="0"/>
        <pt x="680" y="225" on="1"/>
        <pt x="686" y="243" on="0"/>
        <pt x="692" y="250" on="0"/>
        <pt x="702" y="250" on="1"/>
        <pt x="705" y="250" on="1"/>
        <pt x="726" y="250" on="0"/>
        <pt x="726" y="239" on="1"/>
        <pt x="726" y="238" on="0"/>
        <pt x="640" y="8" on="0"/>
        <pt x="639" y="5" on="1"/>
        <pt x="637" y="1" on="0"/>
        <pt x="610" y="1" on="1"/>
        <pt x="577" y="0" on="0"/>
        <pt x="348" y="0" on="1"/>
        <pt x="65" y="0" on="1"/>
        <pt x="58" y="7" on="0"/>
        <pt x="58" y="15" on="0"/>
        <pt x="63" y="20" on="1"/>
        <pt x="377" y="287" on="0"/>
        <pt x="377" y="304" on="1"/>
        <pt x="377" y="308" on="0"/>
        <pt x="220" y="639" on="0"/>
        <pt x="218" y="644" on="1"/>
        <pt x="217" y="648" on="0"/>
        <pt x="219" y="660" on="1"/>
        <pt x="224" y="678" on="0"/>
        <pt x="228" y="681" on="1"/>
        <pt x="231" y="683" on="0"/>
        <pt x="515" y="683" on="1"/>
        <pt x="799" y="683" on="1"/>
        <pt x="802" y="680" on="0"/>
        <pt x="806" y="674" on="1"/>
        <pt x="806" y="667" on="0"/>
        <pt x="779" y="450" on="0"/>
        <pt x="778" y="448" on="1"/>
        <pt x="774" y="443" on="0"/>
        <pt x="759" y="443" on="1"/>
        <pt x="747" y="443" on="0"/>
        <pt x="739" y="448" on="0"/>
      </contour>
    </TTGlyph>
    <TTGlyph name="T" xMin="21" yMin="0" xMax="704" yMax="677">
      <contour>
        <pt x="415" y="0" on="1"/>
        <pt x="388" y="0" on="0"/>
        <pt x="263" y="2" on="0"/>
        <pt x="228" y="2" on="1"/>
        <pt x="99" y="2" on="0"/>
        <pt x="64" y="0" on="1"/>
        <pt x="49" y="0" on="1"/>
        <pt x="43" y="6" on="0"/>
        <pt x="42" y="11" on="0"/>
        <pt x="45" y="27" on="1"/>
        <pt x="49" y="40" on="0"/>
        <pt x="55" y="46" on="1"/>
        <pt x="83" y="46" on="1"/>
        <pt x="143" y="46" on="0"/>
        <pt x="164" y="49" on="1"/>
        <pt x="181" y="50" on="0"/>
        <pt x="189" y="55" on="1"/>
        <pt x="190" y="56" on="0"/>
        <pt x="191" y="56" on="1"/>
        <pt x="196" y="59" on="0"/>
        <pt x="206" y="94" on="0"/>
        <pt x="241" y="233" on="1"/>
        <pt x="258" y="301" on="0"/>
        <pt x="269" y="344" on="1"/>
        <pt x="339" y="619" on="0"/>
        <pt x="339" y="625" on="1"/>
        <pt x="339" y="630" on="0"/>
        <pt x="310" y="630" on="1"/>
        <pt x="279" y="630" on="1"/>
        <pt x="212" y="630" on="0"/>
        <pt x="191" y="624" on="1"/>
        <pt x="148" y="615" on="0"/>
        <pt x="126" y="589" on="1"/>
        <pt x="99" y="559" on="0"/>
        <pt x="67" y="467" on="1"/>
        <pt x="60" y="445" on="0"/>
        <pt x="54" y="437" on="0"/>
        <pt x="43" y="437" on="1"/>
        <pt x="40" y="437" on="1"/>
        <pt x="27" y="437" on="0"/>
        <pt x="21" y="443" on="0"/>
        <pt x="21" y="445" on="1"/>
        <pt x="21" y="451" on="0"/>
        <pt x="51" y="541" on="1"/>
        <pt x="73" y="610" on="0"/>
        <pt x="88" y="651" on="1"/>
        <pt x="94" y="670" on="0"/>
        <pt x="101" y="677" on="1"/>
        <pt x="569" y="677" on="1"/>
        <pt x="703" y="677" on="0"/>
        <pt x="703" y="672" on="1"/>
        <pt x="703" y="671" on="1"/>
        <pt x="704" y="670" on="1"/>
        <pt x="704" y="668" on="0"/>
        <pt x="704" y="667" on="1"/>
        <pt x="704" y="661" on="0"/>
        <pt x="669" y="445" on="0"/>
        <pt x="668" y="444" on="1"/>
        <pt x="668" y="441" on="0"/>
        <pt x="664" y="439" on="1"/>
        <pt x="662" y="437" on="0"/>
        <pt x="649" y="437" on="1"/>
        <pt x="643" y="437" on="0"/>
        <pt x="636" y="438" on="0"/>
        <pt x="634" y="439" on="0"/>
        <pt x="630" y="444" on="0"/>
        <pt x="629" y="445" on="1"/>
        <pt x="629" y="452" on="0"/>
        <pt x="632" y="472" on="1"/>
        <pt x="641" y="526" on="0"/>
        <pt x="641" y="551" on="1"/>
        <pt x="641" y="574" on="0"/>
        <pt x="629" y="604" on="0"/>
        <pt x="614" y="620" on="0"/>
        <pt x="575" y="628" on="0"/>
        <pt x="547" y="630" on="0"/>
        <pt x="515" y="631" on="1"/>
        <pt x="469" y="631" on="0"/>
        <pt x="444" y="628" on="0"/>
        <pt x="439" y="622" on="1"/>
        <pt x="438" y="621" on="0"/>
        <pt x="298" y="64" on="0"/>
        <pt x="298" y="60" on="1"/>
        <pt x="298" y="53" on="0"/>
        <pt x="311" y="51" on="1"/>
        <pt x="325" y="47" on="0"/>
        <pt x="386" y="46" on="1"/>
        <pt x="420" y="46" on="0"/>
        <pt x="433" y="44" on="0"/>
        <pt x="435" y="39" on="1"/>
        <pt x="436" y="36" on="0"/>
        <pt x="433" y="22" on="1"/>
        <pt x="429" y="4" on="0"/>
        <pt x="424" y="1" on="1"/>
        <pt x="422" y="0" on="1"/>
        <pt x="419" y="0" on="0"/>
      </contour>
    </TTGlyph>
    <TTGlyph name="Theta" xMin="50" yMin="-22" xMax="740" yMax="704">
      <contour>
        <pt x="459" y="704" on="1"/>
        <pt x="476" y="704" on="1"/>
        <pt x="514" y="704" on="0"/>
        <pt x="524" y="703" on="1"/>
        <pt x="622" y="689" on="0"/>
        <pt x="740" y="545" on="0"/>
        <pt x="740" y="435" on="1"/>
        <pt x="740" y="300" on="0"/>
        <pt x="653" y="179" on="1"/>
        <pt x="596" y="97" on="0"/>
        <pt x="515" y="46" on="1"/>
        <pt x="410" y="-22" on="0"/>
        <pt x="304" y="-22" on="1"/>
        <pt x="197" y="-22" on="0"/>
        <pt x="126" y="46" on="1"/>
        <pt x="50" y="120" on="0"/>
        <pt x="50" y="244" on="1"/>
        <pt x="50" y="279" on="0"/>
        <pt x="51" y="289" on="1"/>
        <pt x="69" y="426" on="0"/>
        <pt x="167" y="541" on="1"/>
        <pt x="195" y="573" on="0"/>
        <pt x="227" y="601" on="1"/>
        <pt x="338" y="693" on="0"/>
      </contour>
      <contour>
        <pt x="640" y="466" on="1"/>
        <pt x="640" y="551" on="0"/>
        <pt x="567" y="657" on="0"/>
        <pt x="498" y="667" on="1"/>
        <pt x="496" y="667" on="0"/>
        <pt x="483" y="668" on="0"/>
        <pt x="475" y="668" on="0"/>
        <pt x="462" y="667" on="0"/>
        <pt x="460" y="667" on="1"/>
        <pt x="388" y="659" on="0"/>
        <pt x="256" y="554" on="0"/>
        <pt x="213" y="469" on="1"/>
        <pt x="165" y="372" on="0"/>
        <pt x="151" y="255" on="1"/>
        <pt x="150" y="245" on="0"/>
        <pt x="150" y="213" on="1"/>
        <pt x="150" y="131" on="0"/>
        <pt x="219" y="31" on="0"/>
        <pt x="282" y="19" on="1"/>
        <pt x="290" y="17" on="0"/>
        <pt x="313" y="17" on="1"/>
        <pt x="337" y="17" on="0"/>
        <pt x="346" y="19" on="1"/>
        <pt x="408" y="29" on="0"/>
        <pt x="521" y="117" on="0"/>
        <pt x="561" y="184" on="1"/>
        <pt x="622" y="289" on="0"/>
        <pt x="638" y="426" on="1"/>
        <pt x="640" y="444" on="0"/>
      </contour>
      <contour>
        <pt x="510" y="275" on="1"/>
        <pt x="510" y="277" on="0"/>
        <pt x="512" y="288" on="1"/>
        <pt x="515" y="298" on="1"/>
        <pt x="515" y="299" on="0"/>
        <pt x="384" y="299" on="1"/>
        <pt x="253" y="299" on="1"/>
        <pt x="250" y="285" on="1"/>
        <pt x="246" y="270" on="0"/>
        <pt x="243" y="268" on="1"/>
        <pt x="240" y="265" on="0"/>
        <pt x="227" y="265" on="1"/>
        <pt x="215" y="265" on="0"/>
        <pt x="210" y="267" on="0"/>
        <pt x="207" y="274" on="1"/>
        <pt x="207" y="281" on="0"/>
        <pt x="224" y="346" on="1"/>
        <pt x="241" y="414" on="0"/>
        <pt x="244" y="416" on="1"/>
        <pt x="247" y="419" on="0"/>
        <pt x="260" y="419" on="1"/>
        <pt x="280" y="419" on="0"/>
        <pt x="280" y="409" on="1"/>
        <pt x="280" y="407" on="0"/>
        <pt x="278" y="396" on="1"/>
        <pt x="275" y="386" on="1"/>
        <pt x="275" y="385" on="0"/>
        <pt x="406" y="385" on="1"/>
        <pt x="537" y="385" on="1"/>
        <pt x="540" y="399" on="1"/>
        <pt x="544" y="414" on="0"/>
        <pt x="547" y="416" on="1"/>
        <pt x="550" y="419" on="0"/>
        <pt x="563" y="419" on="1"/>
        <pt x="575" y="419" on="0"/>
        <pt x="580" y="417" on="0"/>
        <pt x="583" y="410" on="1"/>
        <pt x="583" y="403" on="0"/>
        <pt x="566" y="339" on="1"/>
        <pt x="549" y="271" on="0"/>
        <pt x="544" y="267" on="1"/>
        <pt x="542" y="265" on="0"/>
        <pt x="538" y="265" on="1"/>
        <pt x="530" y="265" on="1"/>
        <pt x="510" y="265" on="0"/>
      </contour>
    </TTGlyph>
    <TTGlyph name="U" xMin="60" yMin="-22" xMax="767" yMax="683">
      <contour>
        <pt x="152" y="140" on="1"/>
        <pt x="152" y="85" on="0"/>
        <pt x="213" y="24" on="0"/>
        <pt x="269" y="24" on="1"/>
        <pt x="351" y="24" on="0"/>
        <pt x="476" y="130" on="0"/>
        <pt x="501" y="205" on="1"/>
        <pt x="599" y="596" on="0"/>
        <pt x="599" y="606" on="1"/>
        <pt x="599" y="632" on="0"/>
        <pt x="535" y="637" on="1"/>
        <pt x="514" y="637" on="0"/>
        <pt x="512" y="644" on="1"/>
        <pt x="510" y="647" on="0"/>
        <pt x="513" y="660" on="1"/>
        <pt x="514" y="663" on="0"/>
        <pt x="516" y="671" on="0"/>
        <pt x="516" y="675" on="0"/>
        <pt x="518" y="679" on="0"/>
        <pt x="520" y="681" on="0"/>
        <pt x="522" y="683" on="0"/>
        <pt x="526" y="683" on="0"/>
        <pt x="529" y="683" on="1"/>
        <pt x="544" y="683" on="0"/>
        <pt x="618" y="680" on="0"/>
        <pt x="645" y="680" on="1"/>
        <pt x="671" y="680" on="0"/>
        <pt x="739" y="682" on="0"/>
        <pt x="752" y="682" on="1"/>
        <pt x="767" y="682" on="0"/>
        <pt x="767" y="672" on="1"/>
        <pt x="767" y="668" on="0"/>
        <pt x="760" y="643" on="0"/>
        <pt x="759" y="642" on="1"/>
        <pt x="756" y="637" on="0"/>
        <pt x="737" y="637" on="1"/>
        <pt x="666" y="634" on="0"/>
        <pt x="648" y="597" on="1"/>
        <pt x="646" y="592" on="0"/>
        <pt x="598" y="404" on="1"/>
        <pt x="557" y="235" on="0"/>
        <pt x="548" y="205" on="1"/>
        <pt x="518" y="116" on="0"/>
        <pt x="360" y="-22" on="0"/>
        <pt x="263" y="-22" on="1"/>
        <pt x="182" y="-22" on="0"/>
        <pt x="72" y="70" on="0"/>
        <pt x="61" y="144" on="1"/>
        <pt x="60" y="150" on="0"/>
        <pt x="60" y="167" on="1"/>
        <pt x="60" y="190" on="0"/>
        <pt x="62" y="208" on="1"/>
        <pt x="64" y="217" on="0"/>
        <pt x="115" y="422" on="0"/>
        <pt x="164" y="620" on="0"/>
        <pt x="164" y="628" on="1"/>
        <pt x="164" y="635" on="0"/>
        <pt x="107" y="637" on="1"/>
        <pt x="83" y="637" on="0"/>
        <pt x="73" y="639" on="0"/>
        <pt x="71" y="644" on="1"/>
        <pt x="69" y="647" on="0"/>
        <pt x="72" y="662" on="1"/>
        <pt x="76" y="679" on="0"/>
        <pt x="81" y="682" on="1"/>
        <pt x="83" y="683" on="0"/>
        <pt x="98" y="683" on="1"/>
        <pt x="139" y="681" on="0"/>
        <pt x="234" y="681" on="1"/>
        <pt x="258" y="681" on="0"/>
        <pt x="343" y="682" on="0"/>
        <pt x="362" y="682" on="1"/>
        <pt x="375" y="682" on="0"/>
        <pt x="377" y="676" on="1"/>
        <pt x="379" y="673" on="0"/>
        <pt x="376" y="658" on="1"/>
        <pt x="371" y="641" on="0"/>
        <pt x="366" y="638" on="1"/>
        <pt x="364" y="638" on="1"/>
        <pt x="362" y="638" on="0"/>
        <pt x="356" y="638" on="0"/>
        <pt x="348" y="637" on="0"/>
        <pt x="338" y="637" on="0"/>
        <pt x="334" y="637" on="1"/>
        <pt x="281" y="636" on="0"/>
        <pt x="273" y="630" on="1"/>
        <pt x="269" y="628" on="0"/>
        <pt x="266" y="623" on="1"/>
        <pt x="265" y="621" on="0"/>
        <pt x="211" y="414" on="0"/>
        <pt x="156" y="189" on="0"/>
        <pt x="154" y="169" on="1"/>
        <pt x="152" y="155" on="0"/>
      </contour>
    </TTGlyph>
    <TTGlyph name="Upsilon" xMin="28" yMin="0" xMax="700" yMax="705">
      <contour>
        <pt x="45" y="535" on="1"/>
        <pt x="37" y="535" on="0"/>
        <pt x="31" y="536" on="0"/>
        <pt x="28" y="539" on="0"/>
        <pt x="28" y="544" on="1"/>
        <pt x="28" y="564" on="0"/>
        <pt x="54" y="609" on="1"/>
        <pt x="113" y="705" on="0"/>
        <pt x="206" y="705" on="1"/>
        <pt x="257" y="705" on="0"/>
        <pt x="284" y="681" on="1"/>
        <pt x="344" y="635" on="0"/>
        <pt x="344" y="514" on="1"/>
        <pt x="344" y="477" on="0"/>
        <pt x="342" y="473" on="1"/>
        <pt x="342" y="470" on="0"/>
        <pt x="344" y="474" on="1"/>
        <pt x="345" y="476" on="0"/>
        <pt x="347" y="480" on="1"/>
        <pt x="356" y="502" on="0"/>
        <pt x="380" y="547" on="1"/>
        <pt x="444" y="659" on="0"/>
        <pt x="528" y="692" on="1"/>
        <pt x="561" y="704" on="0"/>
        <pt x="596" y="704" on="1"/>
        <pt x="615" y="704" on="0"/>
        <pt x="625" y="702" on="1"/>
        <pt x="658" y="693" on="0"/>
        <pt x="700" y="636" on="0"/>
        <pt x="700" y="554" on="0"/>
        <pt x="693" y="543" on="1"/>
        <pt x="688" y="536" on="0"/>
        <pt x="670" y="535" on="1"/>
        <pt x="649" y="535" on="0"/>
        <pt x="649" y="544" on="1"/>
        <pt x="649" y="546" on="0"/>
        <pt x="650" y="558" on="0"/>
        <pt x="650" y="562" on="1"/>
        <pt x="650" y="590" on="0"/>
        <pt x="606" y="621" on="0"/>
        <pt x="575" y="621" on="1"/>
        <pt x="519" y="621" on="0"/>
        <pt x="474" y="576" on="1"/>
        <pt x="403" y="508" on="0"/>
        <pt x="365" y="361" on="1"/>
        <pt x="290" y="70" on="0"/>
        <pt x="290" y="60" on="1"/>
        <pt x="290" y="54" on="0"/>
        <pt x="296" y="52" on="1"/>
        <pt x="308" y="46" on="0"/>
        <pt x="379" y="46" on="1"/>
        <pt x="404" y="46" on="1"/>
        <pt x="410" y="40" on="0"/>
        <pt x="411" y="35" on="0"/>
        <pt x="408" y="19" on="1"/>
        <pt x="404" y="6" on="0"/>
        <pt x="398" y="0" on="1"/>
        <pt x="381" y="0" on="1"/>
        <pt x="340" y="2" on="0"/>
        <pt x="225" y="2" on="1"/>
        <pt x="196" y="2" on="0"/>
        <pt x="92" y="1" on="0"/>
        <pt x="69" y="1" on="1"/>
        <pt x="58" y="1" on="0"/>
        <pt x="52" y="4" on="0"/>
        <pt x="52" y="10" on="1"/>
        <pt x="52" y="31" on="0"/>
        <pt x="58" y="40" on="1"/>
        <pt x="59" y="44" on="0"/>
        <pt x="68" y="46" on="0"/>
        <pt x="89" y="46" on="1"/>
        <pt x="157" y="46" on="0"/>
        <pt x="175" y="52" on="1"/>
        <pt x="183" y="54" on="0"/>
        <pt x="190" y="62" on="1"/>
        <pt x="198" y="93" on="1"/>
        <pt x="206" y="124" on="0"/>
        <pt x="229" y="215" on="0"/>
        <pt x="253" y="310" on="0"/>
        <pt x="272" y="390" on="0"/>
        <pt x="274" y="404" on="1"/>
        <pt x="281" y="445" on="0"/>
        <pt x="281" y="486" on="1"/>
        <pt x="281" y="539" on="0"/>
        <pt x="270" y="564" on="1"/>
        <pt x="247" y="621" on="0"/>
        <pt x="185" y="621" on="1"/>
        <pt x="147" y="621" on="0"/>
        <pt x="84" y="581" on="0"/>
        <pt x="74" y="550" on="1"/>
        <pt x="71" y="540" on="0"/>
        <pt x="62" y="535" on="0"/>
        <pt x="51" y="535" on="1"/>
      </contour>
    </TTGlyph>
    <TTGlyph name="V" xMin="52" yMin="-22" xMax="769" yMax="683">
      <contour>
        <pt x="59" y="637" on="1"/>
        <pt x="52" y="644" on="0"/>
        <pt x="52" y="648" on="1"/>
        <pt x="52" y="656" on="0"/>
        <pt x="62" y="680" on="0"/>
        <pt x="65" y="683" on="1"/>
        <pt x="76" y="683" on="1"/>
        <pt x="118" y="680" on="0"/>
        <pt x="181" y="680" on="1"/>
        <pt x="299" y="680" on="0"/>
        <pt x="320" y="683" on="1"/>
        <pt x="330" y="683" on="1"/>
        <pt x="336" y="677" on="0"/>
        <pt x="337" y="672" on="0"/>
        <pt x="334" y="656" on="1"/>
        <pt x="330" y="642" on="0"/>
        <pt x="325" y="637" on="1"/>
        <pt x="304" y="637" on="1"/>
        <pt x="282" y="635" on="0"/>
        <pt x="274" y="635" on="1"/>
        <pt x="245" y="630" on="0"/>
        <pt x="242" y="620" on="1"/>
        <pt x="242" y="618" on="0"/>
        <pt x="300" y="119" on="0"/>
        <pt x="301" y="118" on="1"/>
        <pt x="374" y="235" on="1"/>
        <pt x="447" y="352" on="0"/>
        <pt x="593" y="590" on="0"/>
        <pt x="595" y="594" on="1"/>
        <pt x="600" y="604" on="0"/>
        <pt x="600" y="609" on="1"/>
        <pt x="600" y="632" on="0"/>
        <pt x="555" y="637" on="1"/>
        <pt x="536" y="637" on="0"/>
        <pt x="536" y="647" on="1"/>
        <pt x="536" y="652" on="0"/>
        <pt x="539" y="661" on="1"/>
        <pt x="542" y="675" on="0"/>
        <pt x="548" y="683" on="0"/>
        <pt x="558" y="683" on="1"/>
        <pt x="575" y="683" on="0"/>
        <pt x="650" y="681" on="0"/>
        <pt x="668" y="681" on="1"/>
        <pt x="737" y="681" on="0"/>
        <pt x="755" y="683" on="1"/>
        <pt x="762" y="683" on="1"/>
        <pt x="769" y="676" on="0"/>
        <pt x="769" y="672" on="1"/>
        <pt x="769" y="654" on="0"/>
        <pt x="760" y="640" on="1"/>
        <pt x="757" y="637" on="0"/>
        <pt x="743" y="637" on="1"/>
        <pt x="689" y="634" on="0"/>
        <pt x="657" y="605" on="1"/>
        <pt x="655" y="603" on="0"/>
        <pt x="646" y="593" on="0"/>
        <pt x="645" y="592" on="1"/>
        <pt x="642" y="586" on="0"/>
        <pt x="638" y="582" on="1"/>
        <pt x="270" y="-15" on="0"/>
        <pt x="264" y="-18" on="1"/>
        <pt x="259" y="-21" on="1"/>
        <pt x="241" y="-22" on="1"/>
        <pt x="223" y="-22" on="0"/>
        <pt x="220" y="-20" on="1"/>
        <pt x="216" y="-18" on="0"/>
        <pt x="216" y="-15" on="1"/>
        <pt x="213" y="-9" on="0"/>
        <pt x="177" y="305" on="1"/>
        <pt x="139" y="623" on="0"/>
        <pt x="138" y="626" on="1"/>
        <pt x="132" y="637" on="0"/>
        <pt x="87" y="637" on="1"/>
        <pt x="76" y="637" on="1"/>
      </contour>
    </TTGlyph>
    <TTGlyph name="W" xMin="51" yMin="-22" xMax="1048" yMax="683">
      <contour>
        <pt x="58" y="637" on="1"/>
        <pt x="51" y="644" on="0"/>
        <pt x="51" y="648" on="1"/>
        <pt x="51" y="670" on="0"/>
        <pt x="64" y="683" on="1"/>
        <pt x="76" y="683" on="1"/>
        <pt x="118" y="680" on="0"/>
        <pt x="176" y="680" on="1"/>
        <pt x="186" y="680" on="0"/>
        <pt x="230" y="681" on="0"/>
        <pt x="241" y="681" on="1"/>
        <pt x="254" y="681" on="0"/>
        <pt x="291" y="682" on="0"/>
        <pt x="311" y="683" on="0"/>
        <pt x="313" y="683" on="1"/>
        <pt x="323" y="683" on="1"/>
        <pt x="329" y="677" on="0"/>
        <pt x="330" y="672" on="0"/>
        <pt x="327" y="656" on="1"/>
        <pt x="323" y="642" on="0"/>
        <pt x="318" y="637" on="1"/>
        <pt x="297" y="637" on="1"/>
        <pt x="268" y="636" on="0"/>
        <pt x="249" y="631" on="1"/>
        <pt x="234" y="625" on="0"/>
        <pt x="232" y="620" on="1"/>
        <pt x="232" y="613" on="0"/>
        <pt x="265" y="143" on="0"/>
        <pt x="266" y="136" on="1"/>
        <pt x="422" y="412" on="0"/>
        <pt x="501" y="550" on="1"/>
        <pt x="499" y="587" on="1"/>
        <pt x="496" y="629" on="0"/>
        <pt x="489" y="632" on="1"/>
        <pt x="483" y="636" on="0"/>
        <pt x="447" y="637" on="1"/>
        <pt x="419" y="637" on="0"/>
        <pt x="417" y="644" on="1"/>
        <pt x="415" y="647" on="0"/>
        <pt x="418" y="660" on="1"/>
        <pt x="423" y="680" on="0"/>
        <pt x="427" y="682" on="1"/>
        <pt x="430" y="683" on="0"/>
        <pt x="458" y="682" on="1"/>
        <pt x="492" y="680" on="0"/>
        <pt x="553" y="680" on="1"/>
        <pt x="582" y="680" on="0"/>
        <pt x="661" y="682" on="0"/>
        <pt x="677" y="682" on="1"/>
        <pt x="694" y="682" on="0"/>
        <pt x="694" y="675" on="1"/>
        <pt x="694" y="671" on="0"/>
        <pt x="688" y="644" on="0"/>
        <pt x="687" y="643" on="1"/>
        <pt x="685" y="637" on="0"/>
        <pt x="661" y="637" on="1"/>
        <pt x="609" y="635" on="0"/>
        <pt x="599" y="622" on="1"/>
        <pt x="596" y="619" on="0"/>
        <pt x="597" y="615" on="1"/>
        <pt x="597" y="603" on="0"/>
        <pt x="629" y="150" on="0"/>
        <pt x="629" y="138" on="1"/>
        <pt x="631" y="141" on="1"/>
        <pt x="633" y="144" on="0"/>
        <pt x="642" y="159" on="0"/>
        <pt x="656" y="182" on="0"/>
        <pt x="677" y="218" on="0"/>
        <pt x="703" y="264" on="0"/>
        <pt x="738" y="326" on="0"/>
        <pt x="759" y="362" on="1"/>
        <pt x="888" y="589" on="0"/>
        <pt x="892" y="601" on="0"/>
        <pt x="892" y="604" on="1"/>
        <pt x="892" y="620" on="0"/>
        <pt x="853" y="637" on="0"/>
        <pt x="831" y="637" on="1"/>
        <pt x="817" y="637" on="0"/>
        <pt x="817" y="647" on="1"/>
        <pt x="817" y="650" on="0"/>
        <pt x="819" y="660" on="1"/>
        <pt x="820" y="663" on="0"/>
        <pt x="821" y="671" on="0"/>
        <pt x="822" y="675" on="0"/>
        <pt x="824" y="679" on="0"/>
        <pt x="828" y="681" on="0"/>
        <pt x="834" y="682" on="0"/>
        <pt x="839" y="682" on="1"/>
        <pt x="857" y="682" on="0"/>
        <pt x="932" y="681" on="0"/>
        <pt x="949" y="681" on="1"/>
        <pt x="1015" y="681" on="0"/>
        <pt x="1034" y="683" on="1"/>
        <pt x="1048" y="683" on="0"/>
        <pt x="1048" y="672" on="1"/>
        <pt x="1048" y="666" on="0"/>
        <pt x="1040" y="642" on="0"/>
        <pt x="1038" y="640" on="1"/>
        <pt x="1035" y="637" on="0"/>
        <pt x="1028" y="637" on="1"/>
        <pt x="965" y="637" on="0"/>
        <pt x="931" y="590" on="1"/>
        <pt x="924" y="579" on="0"/>
        <pt x="923" y="578" on="1"/>
        <pt x="754" y="282" on="1"/>
        <pt x="586" y="-14" on="0"/>
        <pt x="585" y="-15" on="1"/>
        <pt x="579" y="-22" on="0"/>
        <pt x="561" y="-22" on="1"/>
        <pt x="546" y="-22" on="0"/>
        <pt x="542" y="-17" on="1"/>
        <pt x="539" y="-14" on="0"/>
        <pt x="506" y="473" on="0"/>
        <pt x="506" y="480" on="1"/>
        <pt x="494" y="462" on="1"/>
        <pt x="472" y="425" on="0"/>
        <pt x="366" y="239" on="1"/>
        <pt x="335" y="184" on="0"/>
        <pt x="260" y="52" on="0"/>
        <pt x="224" y="-11" on="0"/>
        <pt x="223" y="-12" on="1"/>
        <pt x="217" y="-22" on="0"/>
        <pt x="197" y="-22" on="1"/>
        <pt x="178" y="-22" on="0"/>
        <pt x="176" y="-15" on="1"/>
        <pt x="176" y="-12" on="0"/>
        <pt x="132" y="621" on="0"/>
        <pt x="131" y="622" on="1"/>
        <pt x="129" y="631" on="0"/>
        <pt x="113" y="636" on="0"/>
        <pt x="82" y="637" on="1"/>
      </contour>
    </TTGlyph>
    <TTGlyph name="X" xMin="26" yMin="0" xMax="852" yMax="683">
      <contour>
        <pt x="42" y="0" on="1"/>
        <pt x="26" y="0" on="0"/>
        <pt x="26" y="11" on="1"/>
        <pt x="26" y="15" on="0"/>
        <pt x="29" y="27" on="1"/>
        <pt x="33" y="41" on="0"/>
        <pt x="39" y="45" on="0"/>
        <pt x="55" y="46" on="1"/>
        <pt x="141" y="49" on="0"/>
        <pt x="190" y="98" on="1"/>
        <pt x="200" y="108" on="0"/>
        <pt x="412" y="341" on="0"/>
        <pt x="411" y="342" on="1"/>
        <pt x="302" y="620" on="0"/>
        <pt x="297" y="625" on="1"/>
        <pt x="288" y="636" on="0"/>
        <pt x="234" y="637" on="1"/>
        <pt x="206" y="637" on="1"/>
        <pt x="200" y="643" on="0"/>
        <pt x="199" y="648" on="0"/>
        <pt x="202" y="664" on="1"/>
        <pt x="206" y="677" on="0"/>
        <pt x="212" y="683" on="1"/>
        <pt x="226" y="683" on="1"/>
        <pt x="260" y="681" on="0"/>
        <pt x="347" y="681" on="1"/>
        <pt x="369" y="681" on="0"/>
        <pt x="453" y="682" on="0"/>
        <pt x="473" y="682" on="1"/>
        <pt x="483" y="682" on="0"/>
        <pt x="489" y="679" on="0"/>
        <pt x="489" y="673" on="1"/>
        <pt x="489" y="649" on="0"/>
        <pt x="482" y="642" on="1"/>
        <pt x="480" y="637" on="0"/>
        <pt x="465" y="637" on="1"/>
        <pt x="427" y="633" on="0"/>
        <pt x="413" y="621" on="1"/>
        <pt x="411" y="620" on="1"/>
        <pt x="456" y="510" on="0"/>
        <pt x="488" y="426" on="1"/>
        <pt x="541" y="485" on="1"/>
        <pt x="588" y="536" on="0"/>
        <pt x="615" y="567" on="1"/>
        <pt x="637" y="590" on="0"/>
        <pt x="647" y="606" on="0"/>
        <pt x="646" y="614" on="1"/>
        <pt x="643" y="629" on="0"/>
        <pt x="622" y="635" on="1"/>
        <pt x="617" y="635" on="0"/>
        <pt x="609" y="637" on="1"/>
        <pt x="600" y="637" on="0"/>
        <pt x="592" y="645" on="0"/>
        <pt x="596" y="664" on="1"/>
        <pt x="600" y="677" on="0"/>
        <pt x="606" y="683" on="1"/>
        <pt x="618" y="683" on="1"/>
        <pt x="641" y="680" on="0"/>
        <pt x="738" y="680" on="1"/>
        <pt x="825" y="680" on="0"/>
        <pt x="837" y="683" on="1"/>
        <pt x="845" y="683" on="1"/>
        <pt x="852" y="676" on="0"/>
        <pt x="852" y="672" on="1"/>
        <pt x="852" y="664" on="0"/>
        <pt x="843" y="640" on="0"/>
        <pt x="840" y="637" on="1"/>
        <pt x="824" y="637" on="1"/>
        <pt x="747" y="634" on="0"/>
        <pt x="698" y="594" on="1"/>
        <pt x="689" y="585" on="0"/>
        <pt x="687" y="584" on="1"/>
        <pt x="685" y="581" on="0"/>
        <pt x="682" y="579" on="1"/>
        <pt x="678" y="575" on="0"/>
        <pt x="592" y="480" on="1"/>
        <pt x="505" y="384" on="1"/>
        <pt x="505" y="383" on="0"/>
        <pt x="568" y="224" on="0"/>
        <pt x="634" y="60" on="0"/>
        <pt x="638" y="56" on="1"/>
        <pt x="648" y="47" on="0"/>
        <pt x="699" y="46" on="1"/>
        <pt x="734" y="46" on="0"/>
        <pt x="734" y="38" on="1"/>
        <pt x="734" y="27" on="0"/>
        <pt x="727" y="6" on="1"/>
        <pt x="724" y="1" on="0"/>
        <pt x="711" y="1" on="1"/>
        <pt x="696" y="1" on="0"/>
        <pt x="620" y="2" on="0"/>
        <pt x="589" y="2" on="1"/>
        <pt x="559" y="2" on="0"/>
        <pt x="477" y="1" on="0"/>
        <pt x="461" y="1" on="1"/>
        <pt x="448" y="1" on="0"/>
        <pt x="445" y="6" on="1"/>
        <pt x="443" y="9" on="0"/>
        <pt x="446" y="25" on="1"/>
        <pt x="450" y="40" on="0"/>
        <pt x="456" y="45" on="0"/>
        <pt x="468" y="46" on="1"/>
        <pt x="486" y="47" on="0"/>
        <pt x="506" y="54" on="1"/>
        <pt x="523" y="62" on="0"/>
        <pt x="523" y="64" on="1"/>
        <pt x="522" y="64" on="0"/>
        <pt x="476" y="181" on="1"/>
        <pt x="429" y="299" on="1"/>
        <pt x="428" y="299" on="0"/>
        <pt x="241" y="92" on="0"/>
        <pt x="240" y="90" on="1"/>
        <pt x="232" y="82" on="0"/>
        <pt x="232" y="72" on="1"/>
        <pt x="232" y="53" on="0"/>
        <pt x="261" y="47" on="1"/>
        <pt x="262" y="47" on="0"/>
        <pt x="272" y="46" on="0"/>
        <pt x="273" y="46" on="1"/>
        <pt x="285" y="46" on="0"/>
        <pt x="285" y="36" on="1"/>
        <pt x="285" y="30" on="0"/>
        <pt x="282" y="19" on="1"/>
        <pt x="279" y="6" on="0"/>
        <pt x="273" y="1" on="0"/>
        <pt x="261" y="1" on="1"/>
        <pt x="242" y="1" on="0"/>
        <pt x="162" y="2" on="0"/>
        <pt x="142" y="2" on="1"/>
        <pt x="64" y="2" on="0"/>
      </contour>
    </TTGlyph>
    <TTGlyph name="Xi" xMin="53" yMin="0" xMax="777" yMax="677">
      <contour>
        <pt x="222" y="668" on="1"/>
        <pt x="222" y="670" on="0"/>
        <pt x="229" y="677" on="1"/>
        <pt x="654" y="677" on="1"/>
        <pt x="775" y="677" on="0"/>
        <pt x="776" y="672" on="1"/>
        <pt x="776" y="671" on="1"/>
        <pt x="777" y="670" on="0"/>
        <pt x="777" y="667" on="1"/>
        <pt x="777" y="662" on="0"/>
        <pt x="764" y="594" on="1"/>
        <pt x="761" y="579" on="0"/>
        <pt x="753" y="538" on="0"/>
        <pt x="751" y="528" on="1"/>
        <pt x="749" y="519" on="1"/>
        <pt x="747" y="512" on="0"/>
        <pt x="729" y="512" on="1"/>
        <pt x="717" y="512" on="1"/>
        <pt x="710" y="519" on="0"/>
        <pt x="710" y="525" on="1"/>
        <pt x="712" y="532" on="0"/>
        <pt x="719" y="587" on="0"/>
        <pt x="719" y="591" on="1"/>
        <pt x="718" y="595" on="0"/>
        <pt x="711" y="595" on="1"/>
        <pt x="682" y="598" on="0"/>
        <pt x="486" y="598" on="1"/>
        <pt x="252" y="598" on="0"/>
        <pt x="246" y="592" on="1"/>
        <pt x="237" y="584" on="0"/>
        <pt x="223" y="537" on="1"/>
        <pt x="222" y="534" on="0"/>
        <pt x="219" y="520" on="0"/>
        <pt x="218" y="518" on="0"/>
        <pt x="212" y="512" on="0"/>
        <pt x="204" y="512" on="0"/>
        <pt x="197" y="512" on="1"/>
        <pt x="185" y="512" on="1"/>
        <pt x="178" y="517" on="0"/>
        <pt x="178" y="522" on="1"/>
        <pt x="178" y="524" on="0"/>
        <pt x="218" y="659" on="0"/>
      </contour>
      <contour>
        <pt x="227" y="262" on="1"/>
        <pt x="221" y="262" on="0"/>
        <pt x="214" y="263" on="0"/>
        <pt x="212" y="264" on="0"/>
        <pt x="208" y="269" on="0"/>
        <pt x="207" y="270" on="1"/>
        <pt x="227" y="356" on="1"/>
        <pt x="248" y="438" on="0"/>
        <pt x="251" y="440" on="1"/>
        <pt x="254" y="443" on="0"/>
        <pt x="267" y="443" on="1"/>
        <pt x="280" y="443" on="1"/>
        <pt x="287" y="438" on="0"/>
        <pt x="287" y="433" on="1"/>
        <pt x="287" y="431" on="0"/>
        <pt x="282" y="412" on="1"/>
        <pt x="278" y="393" on="1"/>
        <pt x="278" y="392" on="0"/>
        <pt x="431" y="392" on="1"/>
        <pt x="585" y="392" on="1"/>
        <pt x="590" y="415" on="1"/>
        <pt x="595" y="436" on="0"/>
        <pt x="601" y="443" on="0"/>
        <pt x="612" y="443" on="1"/>
        <pt x="628" y="443" on="1"/>
        <pt x="635" y="438" on="0"/>
        <pt x="635" y="433" on="1"/>
        <pt x="635" y="431" on="0"/>
        <pt x="595" y="271" on="0"/>
        <pt x="594" y="268" on="1"/>
        <pt x="592" y="262" on="0"/>
        <pt x="575" y="262" on="1"/>
        <pt x="562" y="262" on="0"/>
        <pt x="559" y="265" on="1"/>
        <pt x="554" y="269" on="0"/>
        <pt x="560" y="293" on="1"/>
        <pt x="565" y="313" on="1"/>
        <pt x="258" y="313" on="1"/>
        <pt x="252" y="292" on="1"/>
        <pt x="249" y="274" on="0"/>
        <pt x="246" y="268" on="1"/>
        <pt x="244" y="262" on="0"/>
      </contour>
      <contour>
        <pt x="60" y="0" on="1"/>
        <pt x="53" y="7" on="0"/>
        <pt x="53" y="11" on="1"/>
        <pt x="53" y="14" on="0"/>
        <pt x="83" y="165" on="0"/>
        <pt x="84" y="169" on="1"/>
        <pt x="88" y="176" on="0"/>
        <pt x="104" y="176" on="1"/>
        <pt x="116" y="176" on="1"/>
        <pt x="123" y="169" on="0"/>
        <pt x="123" y="163" on="1"/>
        <pt x="123" y="162" on="0"/>
        <pt x="121" y="154" on="0"/>
        <pt x="120" y="142" on="0"/>
        <pt x="119" y="138" on="1"/>
        <pt x="112" y="105" on="0"/>
        <pt x="112" y="88" on="1"/>
        <pt x="112" y="85" on="0"/>
        <pt x="115" y="82" on="0"/>
        <pt x="134" y="80" on="0"/>
        <pt x="168" y="80" on="0"/>
        <pt x="202" y="80" on="1"/>
        <pt x="351" y="80" on="1"/>
        <pt x="454" y="80" on="1"/>
        <pt x="554" y="80" on="0"/>
        <pt x="594" y="83" on="0"/>
        <pt x="597" y="88" on="1"/>
        <pt x="597" y="89" on="1"/>
        <pt x="604" y="103" on="0"/>
        <pt x="616" y="137" on="1"/>
        <pt x="627" y="172" on="0"/>
        <pt x="633" y="176" on="0"/>
        <pt x="646" y="176" on="1"/>
        <pt x="658" y="176" on="1"/>
        <pt x="665" y="171" on="0"/>
        <pt x="665" y="166" on="1"/>
        <pt x="665" y="164" on="0"/>
        <pt x="620" y="13" on="0"/>
        <pt x="618" y="7" on="1"/>
        <pt x="617" y="5" on="0"/>
        <pt x="614" y="2" on="1"/>
        <pt x="611" y="0" on="0"/>
        <pt x="335" y="0" on="1"/>
      </contour>
    </TTGlyph>
    <TTGlyph name="Y" xMin="30" yMin="1" xMax="763" yMax="683">
      <contour>
        <pt x="633" y="680" on="0"/>
        <pt x="681" y="680" on="0"/>
        <pt x="739" y="683" on="0"/>
        <pt x="750" y="683" on="1"/>
        <pt x="763" y="683" on="0"/>
        <pt x="763" y="673" on="1"/>
        <pt x="763" y="670" on="0"/>
        <pt x="756" y="644" on="0"/>
        <pt x="755" y="643" on="1"/>
        <pt x="753" y="637" on="0"/>
        <pt x="734" y="637" on="1"/>
        <pt x="662" y="632" on="0"/>
        <pt x="617" y="587" on="1"/>
        <pt x="608" y="578" on="0"/>
        <pt x="477" y="424" on="1"/>
        <pt x="348" y="273" on="1"/>
        <pt x="322" y="169" on="1"/>
        <pt x="295" y="62" on="0"/>
        <pt x="295" y="57" on="1"/>
        <pt x="295" y="46" on="0"/>
        <pt x="363" y="46" on="1"/>
        <pt x="380" y="46" on="0"/>
        <pt x="389" y="43" on="0"/>
        <pt x="389" y="36" on="1"/>
        <pt x="389" y="15" on="0"/>
        <pt x="383" y="6" on="1"/>
        <pt x="380" y="1" on="0"/>
        <pt x="366" y="1" on="1"/>
        <pt x="348" y="1" on="0"/>
        <pt x="264" y="2" on="0"/>
        <pt x="200" y="2" on="0"/>
        <pt x="118" y="1" on="0"/>
        <pt x="102" y="1" on="1"/>
        <pt x="85" y="1" on="0"/>
        <pt x="85" y="8" on="1"/>
        <pt x="85" y="12" on="0"/>
        <pt x="91" y="39" on="0"/>
        <pt x="92" y="40" on="1"/>
        <pt x="94" y="46" on="0"/>
        <pt x="129" y="46" on="1"/>
        <pt x="168" y="47" on="0"/>
        <pt x="193" y="53" on="0"/>
        <pt x="198" y="63" on="1"/>
        <pt x="201" y="68" on="0"/>
        <pt x="227" y="171" on="1"/>
        <pt x="252" y="274" on="1"/>
        <pt x="211" y="391" on="0"/>
        <pt x="129" y="623" on="1"/>
        <pt x="120" y="632" on="0"/>
        <pt x="101" y="636" on="0"/>
        <pt x="66" y="637" on="1"/>
        <pt x="30" y="637" on="0"/>
        <pt x="30" y="647" on="1"/>
        <pt x="30" y="649" on="0"/>
        <pt x="33" y="661" on="1"/>
        <pt x="37" y="679" on="0"/>
        <pt x="42" y="682" on="1"/>
        <pt x="44" y="683" on="0"/>
        <pt x="56" y="683" on="1"/>
        <pt x="104" y="680" on="0"/>
        <pt x="165" y="680" on="1"/>
        <pt x="287" y="680" on="0"/>
        <pt x="306" y="683" on="1"/>
        <pt x="316" y="683" on="1"/>
        <pt x="322" y="677" on="0"/>
        <pt x="323" y="672" on="0"/>
        <pt x="320" y="656" on="1"/>
        <pt x="316" y="643" on="0"/>
        <pt x="310" y="637" on="1"/>
        <pt x="298" y="637" on="1"/>
        <pt x="242" y="637" on="0"/>
        <pt x="242" y="624" on="1"/>
        <pt x="242" y="619" on="0"/>
        <pt x="342" y="334" on="0"/>
        <pt x="343" y="333" on="1"/>
        <pt x="346" y="336" on="1"/>
        <pt x="350" y="340" on="0"/>
        <pt x="366" y="359" on="0"/>
        <pt x="392" y="388" on="0"/>
        <pt x="430" y="432" on="0"/>
        <pt x="454" y="461" on="1"/>
        <pt x="561" y="586" on="0"/>
        <pt x="568" y="596" on="1"/>
        <pt x="577" y="609" on="0"/>
        <pt x="577" y="618" on="1"/>
        <pt x="577" y="634" on="0"/>
        <pt x="545" y="637" on="1"/>
        <pt x="528" y="637" on="0"/>
        <pt x="528" y="647" on="1"/>
        <pt x="528" y="649" on="0"/>
        <pt x="530" y="661" on="1"/>
        <pt x="533" y="676" on="0"/>
        <pt x="538" y="683" on="0"/>
        <pt x="549" y="683" on="1"/>
        <pt x="563" y="683" on="0"/>
      </contour>
    </TTGlyph>
    <TTGlyph name="Z" xMin="58" yMin="0" xMax="723" yMax="683">
      <contour>
        <pt x="58" y="8" on="1"/>
        <pt x="58" y="23" on="0"/>
        <pt x="64" y="35" on="1"/>
        <pt x="64" y="36" on="0"/>
        <pt x="594" y="633" on="0"/>
        <pt x="596" y="635" on="1"/>
        <pt x="586" y="637" on="1"/>
        <pt x="575" y="637" on="0"/>
        <pt x="512" y="637" on="1"/>
        <pt x="422" y="636" on="0"/>
        <pt x="414" y="635" on="1"/>
        <pt x="338" y="625" on="0"/>
        <pt x="252" y="543" on="0"/>
        <pt x="228" y="469" on="1"/>
        <pt x="227" y="466" on="0"/>
        <pt x="225" y="460" on="0"/>
        <pt x="223" y="455" on="0"/>
        <pt x="222" y="451" on="0"/>
        <pt x="222" y="450" on="1"/>
        <pt x="221" y="448" on="1"/>
        <pt x="218" y="443" on="0"/>
        <pt x="202" y="443" on="1"/>
        <pt x="185" y="443" on="0"/>
        <pt x="182" y="453" on="1"/>
        <pt x="214" y="561" on="1"/>
        <pt x="222" y="587" on="0"/>
        <pt x="239" y="643" on="0"/>
        <pt x="248" y="673" on="0"/>
        <pt x="248" y="674" on="1"/>
        <pt x="251" y="680" on="0"/>
        <pt x="253" y="681" on="1"/>
        <pt x="256" y="683" on="0"/>
        <pt x="487" y="683" on="1"/>
        <pt x="718" y="683" on="1"/>
        <pt x="723" y="678" on="0"/>
        <pt x="723" y="675" on="1"/>
        <pt x="723" y="673" on="0"/>
        <pt x="717" y="649" on="1"/>
        <pt x="189" y="54" on="0"/>
        <pt x="188" y="52" on="1"/>
        <pt x="185" y="49" on="1"/>
        <pt x="274" y="49" on="1"/>
        <pt x="369" y="50" on="0"/>
        <pt x="377" y="51" on="1"/>
        <pt x="450" y="60" on="0"/>
        <pt x="535" y="128" on="0"/>
        <pt x="563" y="201" on="1"/>
        <pt x="570" y="217" on="0"/>
        <pt x="579" y="247" on="1"/>
        <pt x="587" y="272" on="0"/>
        <pt x="594" y="282" on="0"/>
        <pt x="603" y="282" on="1"/>
        <pt x="607" y="282" on="1"/>
        <pt x="628" y="282" on="0"/>
        <pt x="628" y="271" on="1"/>
        <pt x="628" y="267" on="0"/>
        <pt x="546" y="5" on="0"/>
        <pt x="541" y="2" on="1"/>
        <pt x="538" y="0" on="0"/>
        <pt x="300" y="0" on="1"/>
        <pt x="63" y="0" on="0"/>
        <pt x="61" y="2" on="1"/>
        <pt x="58" y="5" on="0"/>
      </contour>
    </TTGlyph>
    <TTGlyph name="a" xMin="33" yMin="-10" xMax="506" yMax="441">
      <contour>
        <pt x="487" y="153" on="1"/>
        <pt x="496" y="153" on="0"/>
        <pt x="502" y="152" on="0"/>
        <pt x="506" y="148" on="0"/>
        <pt x="506" y="144" on="1"/>
        <pt x="506" y="141" on="0"/>
        <pt x="503" y="129" on="1"/>
        <pt x="481" y="45" on="0"/>
        <pt x="449" y="13" on="1"/>
        <pt x="436" y="0" on="0"/>
        <pt x="417" y="-8" on="1"/>
        <pt x="409" y="-10" on="0"/>
        <pt x="393" y="-10" on="1"/>
        <pt x="330" y="-10" on="0"/>
        <pt x="305" y="39" on="1"/>
        <pt x="300" y="52" on="0"/>
        <pt x="300" y="51" on="1"/>
        <pt x="299" y="52" on="0"/>
        <pt x="296" y="50" on="1"/>
        <pt x="294" y="48" on="0"/>
        <pt x="292" y="46" on="1"/>
        <pt x="244" y="1" on="0"/>
        <pt x="197" y="-9" on="1"/>
        <pt x="191" y="-10" on="0"/>
        <pt x="172" y="-10" on="1"/>
        <pt x="106" y="-10" on="0"/>
        <pt x="63" y="45" on="1"/>
        <pt x="33" y="89" on="0"/>
        <pt x="33" y="157" on="1"/>
        <pt x="33" y="173" on="0"/>
        <pt x="34" y="179" on="1"/>
        <pt x="41" y="243" on="0"/>
        <pt x="110" y="360" on="0"/>
        <pt x="158" y="396" on="1"/>
        <pt x="216" y="441" on="0"/>
        <pt x="280" y="441" on="1"/>
        <pt x="330" y="441" on="0"/>
        <pt x="370" y="392" on="1"/>
        <pt x="386" y="422" on="0"/>
        <pt x="416" y="422" on="1"/>
        <pt x="429" y="422" on="0"/>
        <pt x="449" y="406" on="0"/>
        <pt x="449" y="394" on="1"/>
        <pt x="449" y="381" on="0"/>
        <pt x="374" y="86" on="0"/>
        <pt x="374" y="68" on="1"/>
        <pt x="374" y="26" on="0"/>
        <pt x="402" y="26" on="1"/>
        <pt x="411" y="27" on="0"/>
        <pt x="422" y="35" on="1"/>
        <pt x="443" y="55" on="0"/>
        <pt x="463" y="131" on="1"/>
        <pt x="469" y="151" on="0"/>
        <pt x="473" y="152" on="1"/>
        <pt x="475" y="153" on="0"/>
        <pt x="483" y="153" on="1"/>
      </contour>
      <contour>
        <pt x="118" y="106" on="1"/>
        <pt x="118" y="70" on="0"/>
        <pt x="149" y="26" on="0"/>
        <pt x="179" y="26" on="1"/>
        <pt x="208" y="26" on="0"/>
        <pt x="241" y="50" on="1"/>
        <pt x="253" y="58" on="0"/>
        <pt x="294" y="102" on="0"/>
        <pt x="298" y="110" on="1"/>
        <pt x="300" y="114" on="0"/>
        <pt x="351" y="320" on="0"/>
        <pt x="351" y="328" on="1"/>
        <pt x="351" y="340" on="0"/>
        <pt x="340" y="362" on="1"/>
        <pt x="318" y="405" on="0"/>
        <pt x="277" y="405" on="1"/>
        <pt x="237" y="405" on="0"/>
        <pt x="176" y="337" on="0"/>
        <pt x="160" y="293" on="1"/>
        <pt x="131" y="214" on="0"/>
        <pt x="119" y="129" on="1"/>
        <pt x="119" y="126" on="0"/>
        <pt x="118" y="110" on="0"/>
      </contour>
    </TTGlyph>
    <TTGlyph name="alpha" xMin="34" yMin="-11" xMax="603" yMax="442">
      <contour>
        <pt x="582" y="393" on="1"/>
        <pt x="603" y="393" on="0"/>
        <pt x="603" y="385" on="1"/>
        <pt x="603" y="382" on="0"/>
        <pt x="599" y="369" on="1"/>
        <pt x="570" y="258" on="0"/>
        <pt x="497" y="161" on="1"/>
        <pt x="486" y="147" on="1"/>
        <pt x="487" y="123" on="1"/>
        <pt x="490" y="42" on="0"/>
        <pt x="505" y="28" on="1"/>
        <pt x="508" y="26" on="0"/>
        <pt x="514" y="26" on="1"/>
        <pt x="528" y="28" on="0"/>
        <pt x="552" y="47" on="0"/>
        <pt x="557" y="60" on="1"/>
        <pt x="559" y="67" on="0"/>
        <pt x="565" y="70" on="0"/>
        <pt x="577" y="70" on="1"/>
        <pt x="597" y="70" on="0"/>
        <pt x="597" y="61" on="1"/>
        <pt x="597" y="55" on="0"/>
        <pt x="591" y="43" on="1"/>
        <pt x="580" y="21" on="0"/>
        <pt x="538" y="-10" on="0"/>
        <pt x="512" y="-10" on="1"/>
        <pt x="505" y="-10" on="1"/>
        <pt x="437" y="-10" on="0"/>
        <pt x="414" y="62" on="1"/>
        <pt x="411" y="69" on="1"/>
        <pt x="358" y="34" on="0"/>
        <pt x="352" y="31" on="1"/>
        <pt x="278" y="-11" on="0"/>
        <pt x="203" y="-11" on="1"/>
        <pt x="132" y="-11" on="0"/>
        <pt x="45" y="69" on="0"/>
        <pt x="35" y="134" on="1"/>
        <pt x="34" y="140" on="0"/>
        <pt x="34" y="156" on="1"/>
        <pt x="34" y="182" on="0"/>
        <pt x="37" y="198" on="1"/>
        <pt x="52" y="288" on="0"/>
        <pt x="196" y="431" on="0"/>
        <pt x="287" y="441" on="1"/>
        <pt x="290" y="441" on="0"/>
        <pt x="305" y="442" on="0"/>
        <pt x="309" y="442" on="1"/>
        <pt x="375" y="442" on="0"/>
        <pt x="462" y="369" on="0"/>
        <pt x="478" y="304" on="1"/>
        <pt x="484" y="275" on="0"/>
        <pt x="485" y="237" on="1"/>
        <pt x="485" y="208" on="1"/>
        <pt x="534" y="282" on="0"/>
        <pt x="560" y="374" on="1"/>
        <pt x="564" y="388" on="0"/>
        <pt x="569" y="393" on="0"/>
      </contour>
      <contour>
        <pt x="121" y="120" on="1"/>
        <pt x="121" y="77" on="0"/>
        <pt x="167" y="26" on="0"/>
        <pt x="208" y="26" on="1"/>
        <pt x="234" y="26" on="0"/>
        <pt x="266" y="34" on="1"/>
        <pt x="322" y="48" on="0"/>
        <pt x="375" y="88" on="1"/>
        <pt x="382" y="93" on="0"/>
        <pt x="395" y="104" on="0"/>
        <pt x="399" y="108" on="1"/>
        <pt x="403" y="112" on="1"/>
        <pt x="402" y="121" on="1"/>
        <pt x="402" y="130" on="0"/>
        <pt x="401" y="165" on="0"/>
        <pt x="401" y="182" on="1"/>
        <pt x="400" y="220" on="0"/>
        <pt x="399" y="262" on="0"/>
        <pt x="392" y="323" on="0"/>
        <pt x="380" y="356" on="0"/>
        <pt x="359" y="390" on="0"/>
        <pt x="326" y="405" on="0"/>
        <pt x="304" y="405" on="1"/>
        <pt x="235" y="405" on="0"/>
        <pt x="183" y="332" on="1"/>
        <pt x="158" y="295" on="0"/>
        <pt x="141" y="231" on="1"/>
        <pt x="121" y="158" on="0"/>
      </contour>
    </TTGlyph>
    <TTGlyph name="b" xMin="40" yMin="-11" xMax="422" yMax="694">
      <contour>
        <pt x="89" y="683" on="1"/>
        <pt x="90" y="683" on="0"/>
        <pt x="233" y="694" on="0"/>
        <pt x="234" y="694" on="1"/>
        <pt x="246" y="694" on="0"/>
        <pt x="246" y="676" on="0"/>
        <pt x="212" y="542" on="1"/>
        <pt x="204" y="508" on="0"/>
        <pt x="185" y="436" on="0"/>
        <pt x="180" y="418" on="1"/>
        <pt x="176" y="399" on="1"/>
        <pt x="176" y="396" on="0"/>
        <pt x="182" y="402" on="1"/>
        <pt x="216" y="430" on="0"/>
        <pt x="258" y="440" on="1"/>
        <pt x="270" y="442" on="0"/>
        <pt x="296" y="442" on="0"/>
        <pt x="308" y="440" on="1"/>
        <pt x="360" y="428" on="0"/>
        <pt x="422" y="344" on="0"/>
        <pt x="422" y="280" on="1"/>
        <pt x="422" y="168" on="0"/>
        <pt x="265" y="-11" on="0"/>
        <pt x="173" y="-11" on="1"/>
        <pt x="144" y="-11" on="0"/>
        <pt x="118" y="2" on="1"/>
        <pt x="40" y="37" on="0"/>
        <pt x="40" y="150" on="1"/>
        <pt x="40" y="179" on="0"/>
        <pt x="46" y="207" on="1"/>
        <pt x="46" y="208" on="0"/>
        <pt x="96" y="412" on="1"/>
        <pt x="147" y="616" on="1"/>
        <pt x="149" y="630" on="0"/>
        <pt x="132" y="637" on="0"/>
        <pt x="112" y="637" on="1"/>
        <pt x="105" y="637" on="0"/>
        <pt x="101" y="637" on="1"/>
        <pt x="80" y="637" on="0"/>
        <pt x="77" y="640" on="1"/>
        <pt x="71" y="645" on="0"/>
        <pt x="76" y="664" on="1"/>
        <pt x="80" y="678" on="0"/>
        <pt x="83" y="680" on="1"/>
        <pt x="86" y="683" on="0"/>
      </contour>
      <contour>
        <pt x="336" y="325" on="1"/>
        <pt x="336" y="405" on="0"/>
        <pt x="275" y="405" on="1"/>
        <pt x="273" y="405" on="0"/>
        <pt x="264" y="404" on="0"/>
        <pt x="263" y="404" on="1"/>
        <pt x="211" y="393" on="0"/>
        <pt x="165" y="332" on="1"/>
        <pt x="163" y="330" on="0"/>
        <pt x="160" y="326" on="1"/>
        <pt x="157" y="322" on="1"/>
        <pt x="157" y="321" on="0"/>
        <pt x="122" y="180" on="0"/>
        <pt x="120" y="170" on="1"/>
        <pt x="114" y="139" on="0"/>
        <pt x="114" y="114" on="1"/>
        <pt x="114" y="66" on="0"/>
        <pt x="138" y="42" on="1"/>
        <pt x="154" y="26" on="0"/>
        <pt x="178" y="26" on="1"/>
        <pt x="211" y="26" on="0"/>
        <pt x="245" y="58" on="1"/>
        <pt x="270" y="81" on="0"/>
        <pt x="301" y="148" on="0"/>
        <pt x="318" y="219" on="1"/>
        <pt x="336" y="291" on="0"/>
      </contour>
    </TTGlyph>
    <TTGlyph name="beta" xMin="23" yMin="-194" xMax="573" yMax="705">
      <contour>
        <pt x="29" y="-194" on="1"/>
        <pt x="23" y="-188" on="0"/>
        <pt x="23" y="-186" on="1"/>
        <pt x="23" y="-183" on="0"/>
        <pt x="182" y="451" on="0"/>
        <pt x="186" y="465" on="1"/>
        <pt x="213" y="549" on="0"/>
        <pt x="261" y="609" on="1"/>
        <pt x="287" y="643" on="0"/>
        <pt x="309" y="658" on="1"/>
        <pt x="354" y="696" on="0"/>
        <pt x="410" y="704" on="1"/>
        <pt x="412" y="704" on="0"/>
        <pt x="427" y="705" on="0"/>
        <pt x="431" y="705" on="1"/>
        <pt x="494" y="705" on="0"/>
        <pt x="573" y="630" on="0"/>
        <pt x="573" y="570" on="1"/>
        <pt x="573" y="521" on="0"/>
        <pt x="517" y="428" on="0"/>
        <pt x="469" y="396" on="1"/>
        <pt x="482" y="383" on="1"/>
        <pt x="533" y="332" on="0"/>
        <pt x="533" y="252" on="1"/>
        <pt x="533" y="149" on="0"/>
        <pt x="391" y="7" on="0"/>
        <pt x="294" y="-8" on="1"/>
        <pt x="284" y="-10" on="0"/>
        <pt x="257" y="-10" on="1"/>
        <pt x="168" y="-10" on="0"/>
        <pt x="130" y="59" on="1"/>
        <pt x="126" y="65" on="1"/>
        <pt x="62" y="-188" on="1"/>
        <pt x="60" y="-194" on="0"/>
        <pt x="42" y="-194" on="1"/>
      </contour>
      <contour>
        <pt x="353" y="431" on="1"/>
        <pt x="391" y="431" on="0"/>
        <pt x="427" y="419" on="1"/>
        <pt x="433" y="424" on="1"/>
        <pt x="486" y="463" on="0"/>
        <pt x="501" y="560" on="1"/>
        <pt x="503" y="569" on="0"/>
        <pt x="503" y="593" on="1"/>
        <pt x="503" y="611" on="0"/>
        <pt x="502" y="616" on="1"/>
        <pt x="488" y="667" on="0"/>
        <pt x="426" y="667" on="1"/>
        <pt x="405" y="667" on="0"/>
        <pt x="390" y="663" on="1"/>
        <pt x="338" y="649" on="0"/>
        <pt x="250" y="538" on="0"/>
        <pt x="224" y="455" on="1"/>
        <pt x="219" y="439" on="0"/>
        <pt x="153" y="177" on="0"/>
        <pt x="152" y="168" on="1"/>
        <pt x="151" y="163" on="0"/>
        <pt x="151" y="147" on="1"/>
        <pt x="151" y="91" on="0"/>
        <pt x="210" y="26" on="0"/>
        <pt x="260" y="26" on="1"/>
        <pt x="350" y="26" on="0"/>
        <pt x="452" y="169" on="0"/>
        <pt x="457" y="273" on="1"/>
        <pt x="457" y="279" on="1"/>
        <pt x="457" y="337" on="0"/>
        <pt x="422" y="372" on="1"/>
        <pt x="380" y="358" on="0"/>
        <pt x="337" y="358" on="1"/>
        <pt x="258" y="358" on="0"/>
        <pt x="258" y="389" on="1"/>
        <pt x="258" y="396" on="0"/>
        <pt x="261" y="403" on="1"/>
        <pt x="275" y="431" on="0"/>
      </contour>
    </TTGlyph>
    <TTGlyph name="c" xMin="34" yMin="-11" xMax="429" yMax="442">
      <contour>
        <pt x="406" y="121" on="1"/>
        <pt x="410" y="121" on="0"/>
        <pt x="429" y="102" on="0"/>
        <pt x="429" y="98" on="1"/>
        <pt x="429" y="89" on="0"/>
        <pt x="398" y="61" on="1"/>
        <pt x="336" y="5" on="0"/>
        <pt x="241" y="-9" on="1"/>
        <pt x="219" y="-11" on="0"/>
        <pt x="202" y="-11" on="1"/>
        <pt x="95" y="-11" on="0"/>
        <pt x="53" y="77" on="1"/>
        <pt x="34" y="114" on="0"/>
        <pt x="34" y="159" on="1"/>
        <pt x="34" y="205" on="0"/>
        <pt x="53" y="253" on="1"/>
        <pt x="82" y="328" on="0"/>
        <pt x="213" y="433" on="0"/>
        <pt x="287" y="441" on="1"/>
        <pt x="293" y="442" on="0"/>
        <pt x="306" y="442" on="1"/>
        <pt x="341" y="442" on="0"/>
        <pt x="371" y="431" on="1"/>
        <pt x="427" y="407" on="0"/>
        <pt x="427" y="355" on="1"/>
        <pt x="427" y="324" on="0"/>
        <pt x="389" y="285" on="0"/>
        <pt x="360" y="285" on="1"/>
        <pt x="341" y="285" on="0"/>
        <pt x="319" y="306" on="0"/>
        <pt x="319" y="325" on="1"/>
        <pt x="319" y="342" on="0"/>
        <pt x="339" y="374" on="0"/>
        <pt x="355" y="381" on="1"/>
        <pt x="363" y="386" on="0"/>
        <pt x="366" y="386" on="1"/>
        <pt x="370" y="386" on="0"/>
        <pt x="359" y="393" on="1"/>
        <pt x="340" y="404" on="0"/>
        <pt x="306" y="404" on="1"/>
        <pt x="276" y="404" on="0"/>
        <pt x="249" y="390" on="1"/>
        <pt x="228" y="381" on="0"/>
        <pt x="206" y="359" on="1"/>
        <pt x="180" y="333" on="0"/>
        <pt x="148" y="261" on="0"/>
        <pt x="132" y="194" on="1"/>
        <pt x="121" y="147" on="0"/>
        <pt x="121" y="119" on="1"/>
        <pt x="121" y="73" on="0"/>
        <pt x="147" y="50" on="1"/>
        <pt x="170" y="26" on="0"/>
        <pt x="209" y="26" on="1"/>
        <pt x="224" y="26" on="0"/>
        <pt x="240" y="28" on="1"/>
        <pt x="334" y="42" on="0"/>
        <pt x="394" y="111" on="1"/>
        <pt x="403" y="121" on="0"/>
      </contour>
    </TTGlyph>
    <TTGlyph name="chi" xMin="25" yMin="-204" xMax="600" yMax="442">
      <contour>
        <pt x="68" y="351" on="1"/>
        <pt x="48" y="351" on="0"/>
        <pt x="48" y="361" on="1"/>
        <pt x="48" y="365" on="0"/>
        <pt x="56" y="383" on="1"/>
        <pt x="84" y="442" on="0"/>
        <pt x="148" y="442" on="1"/>
        <pt x="224" y="442" on="0"/>
        <pt x="258" y="400" on="1"/>
        <pt x="269" y="385" on="0"/>
        <pt x="282" y="354" on="1"/>
        <pt x="307" y="300" on="0"/>
        <pt x="334" y="206" on="1"/>
        <pt x="340" y="180" on="0"/>
        <pt x="341" y="180" on="1"/>
        <pt x="344" y="180" on="0"/>
        <pt x="567" y="426" on="0"/>
        <pt x="573" y="429" on="1"/>
        <pt x="579" y="431" on="0"/>
        <pt x="582" y="431" on="1"/>
        <pt x="600" y="431" on="0"/>
        <pt x="600" y="414" on="1"/>
        <pt x="600" y="407" on="0"/>
        <pt x="598" y="404" on="1"/>
        <pt x="596" y="399" on="0"/>
        <pt x="474" y="266" on="1"/>
        <pt x="353" y="134" on="1"/>
        <pt x="362" y="102" on="1"/>
        <pt x="395" y="-22" on="0"/>
        <pt x="434" y="-101" on="1"/>
        <pt x="468" y="-168" on="0"/>
        <pt x="490" y="-168" on="1"/>
        <pt x="504" y="-168" on="0"/>
        <pt x="530" y="-144" on="0"/>
        <pt x="536" y="-126" on="1"/>
        <pt x="539" y="-116" on="0"/>
        <pt x="547" y="-114" on="0"/>
        <pt x="568" y="-114" on="0"/>
        <pt x="571" y="-115" on="1"/>
        <pt x="579" y="-119" on="0"/>
        <pt x="576" y="-130" on="1"/>
        <pt x="571" y="-150" on="0"/>
        <pt x="537" y="-188" on="0"/>
        <pt x="518" y="-196" on="1"/>
        <pt x="502" y="-204" on="0"/>
        <pt x="487" y="-204" on="1"/>
        <pt x="476" y="-204" on="1"/>
        <pt x="394" y="-204" on="0"/>
        <pt x="363" y="-157" on="1"/>
        <pt x="334" y="-111" on="0"/>
        <pt x="293" y="26" on="1"/>
        <pt x="284" y="59" on="1"/>
        <pt x="280" y="53" on="0"/>
        <pt x="58" y="-188" on="0"/>
        <pt x="53" y="-191" on="1"/>
        <pt x="49" y="-194" on="0"/>
        <pt x="43" y="-194" on="1"/>
        <pt x="36" y="-194" on="0"/>
        <pt x="25" y="-183" on="0"/>
        <pt x="25" y="-177" on="1"/>
        <pt x="25" y="-172" on="0"/>
        <pt x="28" y="-167" on="1"/>
        <pt x="29" y="-163" on="0"/>
        <pt x="151" y="-30" on="1"/>
        <pt x="272" y="102" on="1"/>
        <pt x="265" y="131" on="1"/>
        <pt x="227" y="269" on="0"/>
        <pt x="191" y="340" on="1"/>
        <pt x="166" y="389" on="0"/>
        <pt x="149" y="400" on="1"/>
        <pt x="142" y="405" on="0"/>
        <pt x="128" y="405" on="0"/>
        <pt x="121" y="402" on="1"/>
        <pt x="99" y="392" on="0"/>
        <pt x="87" y="358" on="1"/>
        <pt x="86" y="351" on="0"/>
      </contour>
    </TTGlyph>
    <TTGlyph name="d" xMin="33" yMin="-10" xMax="523" yMax="694">
      <contour>
        <pt x="438" y="688" on="1"/>
        <pt x="453" y="689" on="0"/>
        <pt x="491" y="692" on="0"/>
        <pt x="510" y="694" on="0"/>
        <pt x="511" y="694" on="1"/>
        <pt x="523" y="694" on="0"/>
        <pt x="523" y="686" on="1"/>
        <pt x="523" y="679" on="0"/>
        <pt x="376" y="88" on="0"/>
        <pt x="374" y="78" on="0"/>
        <pt x="374" y="68" on="1"/>
        <pt x="374" y="26" on="0"/>
        <pt x="402" y="26" on="1"/>
        <pt x="411" y="27" on="0"/>
        <pt x="422" y="35" on="1"/>
        <pt x="443" y="55" on="0"/>
        <pt x="463" y="131" on="1"/>
        <pt x="469" y="151" on="0"/>
        <pt x="473" y="152" on="1"/>
        <pt x="475" y="153" on="0"/>
        <pt x="483" y="153" on="1"/>
        <pt x="487" y="153" on="1"/>
        <pt x="506" y="153" on="0"/>
        <pt x="506" y="145" on="1"/>
        <pt x="506" y="141" on="0"/>
        <pt x="503" y="129" on="1"/>
        <pt x="481" y="45" on="0"/>
        <pt x="449" y="13" on="1"/>
        <pt x="436" y="0" on="0"/>
        <pt x="417" y="-8" on="1"/>
        <pt x="409" y="-10" on="0"/>
        <pt x="393" y="-10" on="1"/>
        <pt x="330" y="-10" on="0"/>
        <pt x="305" y="39" on="1"/>
        <pt x="300" y="52" on="0"/>
        <pt x="300" y="51" on="1"/>
        <pt x="299" y="52" on="0"/>
        <pt x="296" y="50" on="1"/>
        <pt x="294" y="48" on="0"/>
        <pt x="292" y="46" on="1"/>
        <pt x="244" y="1" on="0"/>
        <pt x="197" y="-9" on="1"/>
        <pt x="191" y="-10" on="0"/>
        <pt x="172" y="-10" on="1"/>
        <pt x="106" y="-10" on="0"/>
        <pt x="63" y="45" on="1"/>
        <pt x="33" y="89" on="0"/>
        <pt x="33" y="157" on="1"/>
        <pt x="33" y="250" on="0"/>
        <pt x="101" y="341" on="1"/>
        <pt x="163" y="417" on="0"/>
        <pt x="239" y="436" on="1"/>
        <pt x="260" y="442" on="0"/>
        <pt x="280" y="442" on="1"/>
        <pt x="335" y="442" on="0"/>
        <pt x="364" y="400" on="1"/>
        <pt x="369" y="394" on="0"/>
        <pt x="369" y="396" on="1"/>
        <pt x="370" y="400" on="0"/>
        <pt x="423" y="611" on="0"/>
        <pt x="424" y="616" on="1"/>
        <pt x="424" y="628" on="0"/>
        <pt x="418" y="632" on="1"/>
        <pt x="407" y="636" on="0"/>
        <pt x="378" y="637" on="1"/>
        <pt x="357" y="637" on="1"/>
        <pt x="351" y="643" on="0"/>
        <pt x="350" y="647" on="0"/>
        <pt x="353" y="664" on="1"/>
        <pt x="358" y="683" on="0"/>
        <pt x="366" y="683" on="1"/>
        <pt x="367" y="683" on="0"/>
        <pt x="386" y="685" on="0"/>
        <pt x="421" y="687" on="0"/>
      </contour>
      <contour>
        <pt x="352" y="326" on="1"/>
        <pt x="330" y="405" on="0"/>
        <pt x="277" y="405" on="1"/>
        <pt x="237" y="405" on="0"/>
        <pt x="176" y="337" on="0"/>
        <pt x="160" y="293" on="1"/>
        <pt x="131" y="214" on="0"/>
        <pt x="119" y="129" on="1"/>
        <pt x="119" y="126" on="0"/>
        <pt x="118" y="110" on="0"/>
        <pt x="118" y="106" on="1"/>
        <pt x="118" y="70" on="0"/>
        <pt x="149" y="26" on="0"/>
        <pt x="179" y="26" on="1"/>
        <pt x="232" y="26" on="0"/>
        <pt x="290" y="98" on="1"/>
        <pt x="298" y="109" on="1"/>
        <pt x="307" y="145" on="0"/>
        <pt x="343" y="290" on="0"/>
      </contour>
    </TTGlyph>
    <TTGlyph name="delta" xMin="36" yMin="-10" xMax="451" yMax="717">
      <contour>
        <pt x="451" y="662" on="1"/>
        <pt x="451" y="643" on="0"/>
        <pt x="424" y="612" on="0"/>
        <pt x="403" y="612" on="1"/>
        <pt x="392" y="612" on="0"/>
        <pt x="388" y="614" on="1"/>
        <pt x="374" y="619" on="0"/>
        <pt x="353" y="637" on="1"/>
        <pt x="320" y="665" on="0"/>
        <pt x="300" y="670" on="1"/>
        <pt x="296" y="671" on="0"/>
        <pt x="288" y="671" on="1"/>
        <pt x="258" y="671" on="0"/>
        <pt x="243" y="650" on="1"/>
        <pt x="235" y="639" on="0"/>
        <pt x="235" y="628" on="1"/>
        <pt x="235" y="584" on="0"/>
        <pt x="334" y="463" on="1"/>
        <pt x="369" y="419" on="0"/>
        <pt x="401" y="347" on="0"/>
        <pt x="401" y="292" on="1"/>
        <pt x="401" y="194" on="0"/>
        <pt x="358" y="110" on="1"/>
        <pt x="319" y="35" on="0"/>
        <pt x="261" y="4" on="1"/>
        <pt x="232" y="-10" on="0"/>
        <pt x="205" y="-10" on="1"/>
        <pt x="198" y="-10" on="1"/>
        <pt x="156" y="-10" on="0"/>
        <pt x="122" y="8" on="1"/>
        <pt x="84" y="27" on="0"/>
        <pt x="37" y="103" on="0"/>
        <pt x="36" y="153" on="1"/>
        <pt x="36" y="181" on="0"/>
        <pt x="41" y="206" on="1"/>
        <pt x="60" y="307" on="0"/>
        <pt x="151" y="382" on="1"/>
        <pt x="191" y="413" on="0"/>
        <pt x="252" y="434" on="1"/>
        <pt x="250" y="438" on="0"/>
        <pt x="242" y="455" on="0"/>
        <pt x="239" y="462" on="1"/>
        <pt x="202" y="540" on="0"/>
        <pt x="196" y="593" on="1"/>
        <pt x="195" y="598" on="0"/>
        <pt x="195" y="609" on="1"/>
        <pt x="195" y="650" on="0"/>
        <pt x="242" y="705" on="0"/>
        <pt x="279" y="715" on="1"/>
        <pt x="287" y="717" on="0"/>
        <pt x="302" y="717" on="1"/>
        <pt x="319" y="716" on="0"/>
        <pt x="421" y="694" on="0"/>
        <pt x="433" y="690" on="1"/>
        <pt x="451" y="682" on="0"/>
      </contour>
      <contour>
        <pt x="112" y="130" on="1"/>
        <pt x="112" y="83" on="0"/>
        <pt x="160" y="27" on="0"/>
        <pt x="204" y="27" on="1"/>
        <pt x="231" y="27" on="0"/>
        <pt x="252" y="48" on="1"/>
        <pt x="278" y="74" on="0"/>
        <pt x="316" y="179" on="0"/>
        <pt x="316" y="232" on="1"/>
        <pt x="316" y="266" on="0"/>
        <pt x="301" y="328" on="0"/>
        <pt x="289" y="358" on="0"/>
        <pt x="269" y="400" on="1"/>
        <pt x="259" y="396" on="1"/>
        <pt x="167" y="364" on="0"/>
        <pt x="132" y="239" on="1"/>
        <pt x="112" y="171" on="0"/>
      </contour>
    </TTGlyph>
    <TTGlyph name="e" xMin="39" yMin="-11" xMax="429" yMax="442">
      <contour>
        <pt x="406" y="121" on="1"/>
        <pt x="410" y="121" on="0"/>
        <pt x="429" y="102" on="0"/>
        <pt x="429" y="98" on="1"/>
        <pt x="429" y="89" on="0"/>
        <pt x="398" y="61" on="1"/>
        <pt x="316" y="-11" on="0"/>
        <pt x="205" y="-11" on="1"/>
        <pt x="150" y="-11" on="0"/>
        <pt x="112" y="16" on="1"/>
        <pt x="90" y="28" on="0"/>
        <pt x="72" y="55" on="1"/>
        <pt x="39" y="105" on="0"/>
        <pt x="39" y="168" on="1"/>
        <pt x="39" y="206" on="0"/>
        <pt x="47" y="243" on="1"/>
        <pt x="68" y="321" on="0"/>
        <pt x="199" y="431" on="0"/>
        <pt x="291" y="441" on="1"/>
        <pt x="292" y="442" on="0"/>
        <pt x="307" y="442" on="1"/>
        <pt x="310" y="442" on="1"/>
        <pt x="352" y="442" on="0"/>
        <pt x="411" y="405" on="0"/>
        <pt x="420" y="373" on="1"/>
        <pt x="421" y="369" on="0"/>
        <pt x="421" y="355" on="1"/>
        <pt x="421" y="337" on="0"/>
        <pt x="419" y="330" on="1"/>
        <pt x="398" y="259" on="0"/>
        <pt x="310" y="237" on="1"/>
        <pt x="261" y="224" on="0"/>
        <pt x="176" y="223" on="1"/>
        <pt x="139" y="223" on="0"/>
        <pt x="138" y="221" on="1"/>
        <pt x="138" y="220" on="0"/>
        <pt x="136" y="208" on="1"/>
        <pt x="125" y="159" on="0"/>
        <pt x="125" y="128" on="1"/>
        <pt x="125" y="81" on="0"/>
        <pt x="167" y="26" on="0"/>
        <pt x="209" y="26" on="1"/>
        <pt x="321" y="26" on="0"/>
        <pt x="394" y="111" on="1"/>
        <pt x="403" y="121" on="0"/>
      </contour>
      <contour>
        <pt x="373" y="353" on="1"/>
        <pt x="367" y="405" on="0"/>
        <pt x="305" y="405" on="1"/>
        <pt x="270" y="405" on="0"/>
        <pt x="233" y="385" on="1"/>
        <pt x="184" y="356" on="0"/>
        <pt x="160" y="294" on="1"/>
        <pt x="149" y="264" on="0"/>
        <pt x="149" y="261" on="1"/>
        <pt x="149" y="260" on="0"/>
        <pt x="169" y="260" on="1"/>
        <pt x="202" y="260" on="0"/>
        <pt x="230" y="262" on="1"/>
        <pt x="289" y="267" on="0"/>
        <pt x="347" y="291" on="0"/>
        <pt x="366" y="319" on="1"/>
        <pt x="373" y="334" on="0"/>
      </contour>
    </TTGlyph>
    <TTGlyph name="epsilon" xMin="27" yMin="-22" xMax="428" yMax="452">
      <contour>
        <pt x="68" y="112" on="1"/>
        <pt x="68" y="39" on="0"/>
        <pt x="201" y="39" on="1"/>
        <pt x="315" y="39" on="0"/>
        <pt x="348" y="99" on="1"/>
        <pt x="351" y="105" on="0"/>
        <pt x="362" y="105" on="1"/>
        <pt x="376" y="103" on="0"/>
        <pt x="376" y="88" on="1"/>
        <pt x="376" y="81" on="0"/>
        <pt x="372" y="73" on="1"/>
        <pt x="350" y="29" on="0"/>
        <pt x="254" y="-22" on="0"/>
        <pt x="190" y="-22" on="1"/>
        <pt x="136" y="-22" on="0"/>
        <pt x="99" y="-2" on="1"/>
        <pt x="67" y="12" on="0"/>
        <pt x="27" y="68" on="0"/>
        <pt x="27" y="107" on="1"/>
        <pt x="27" y="150" on="0"/>
        <pt x="59" y="194" on="1"/>
        <pt x="72" y="211" on="0"/>
        <pt x="97" y="232" on="1"/>
        <pt x="107" y="239" on="1"/>
        <pt x="99" y="248" on="1"/>
        <pt x="76" y="273" on="0"/>
        <pt x="76" y="304" on="1"/>
        <pt x="76" y="338" on="0"/>
        <pt x="97" y="364" on="1"/>
        <pt x="123" y="399" on="0"/>
        <pt x="219" y="447" on="0"/>
        <pt x="275" y="452" on="1"/>
        <pt x="290" y="452" on="1"/>
        <pt x="359" y="452" on="0"/>
        <pt x="405" y="421" on="1"/>
        <pt x="428" y="406" on="0"/>
        <pt x="428" y="378" on="0"/>
        <pt x="404" y="356" on="0"/>
        <pt x="391" y="356" on="1"/>
        <pt x="382" y="356" on="0"/>
        <pt x="369" y="365" on="1"/>
        <pt x="333" y="392" on="0"/>
        <pt x="283" y="392" on="1"/>
        <pt x="198" y="392" on="0"/>
        <pt x="149" y="359" on="1"/>
        <pt x="116" y="339" on="0"/>
        <pt x="116" y="308" on="1"/>
        <pt x="116" y="289" on="0"/>
        <pt x="133" y="272" on="1"/>
        <pt x="142" y="263" on="0"/>
        <pt x="148" y="261" on="0"/>
        <pt x="157" y="264" on="1"/>
        <pt x="188" y="278" on="0"/>
        <pt x="238" y="278" on="1"/>
        <pt x="256" y="278" on="0"/>
        <pt x="275" y="277" on="0"/>
        <pt x="298" y="271" on="0"/>
        <pt x="308" y="258" on="0"/>
        <pt x="308" y="247" on="1"/>
        <pt x="308" y="225" on="0"/>
        <pt x="287" y="215" on="1"/>
        <pt x="270" y="206" on="0"/>
        <pt x="176" y="206" on="0"/>
        <pt x="142" y="219" on="1"/>
        <pt x="132" y="212" on="1"/>
        <pt x="68" y="169" on="0"/>
      </contour>
    </TTGlyph>
    <TTGlyph name="eta" xMin="21" yMin="-216" xMax="503" yMax="442">
      <contour>
        <pt x="108" y="-11" on="1"/>
        <pt x="94" y="-11" on="0"/>
        <pt x="74" y="4" on="0"/>
        <pt x="74" y="30" on="0"/>
        <pt x="154" y="348" on="0"/>
        <pt x="154" y="366" on="1"/>
        <pt x="154" y="405" on="0"/>
        <pt x="128" y="405" on="1"/>
        <pt x="117" y="405" on="0"/>
        <pt x="109" y="398" on="1"/>
        <pt x="85" y="379" on="0"/>
        <pt x="61" y="287" on="1"/>
        <pt x="61" y="286" on="0"/>
        <pt x="59" y="281" on="0"/>
        <pt x="58" y="280" on="0"/>
        <pt x="56" y="278" on="0"/>
        <pt x="51" y="278" on="0"/>
        <pt x="47" y="278" on="0"/>
        <pt x="41" y="278" on="1"/>
        <pt x="27" y="278" on="1"/>
        <pt x="21" y="284" on="0"/>
        <pt x="21" y="287" on="1"/>
        <pt x="21" y="295" on="0"/>
        <pt x="34" y="334" on="1"/>
        <pt x="53" y="392" on="0"/>
        <pt x="79" y="418" on="1"/>
        <pt x="103" y="442" on="0"/>
        <pt x="132" y="442" on="1"/>
        <pt x="195" y="442" on="0"/>
        <pt x="220" y="397" on="1"/>
        <pt x="231" y="378" on="0"/>
        <pt x="231" y="369" on="1"/>
        <pt x="231" y="367" on="0"/>
        <pt x="232" y="367" on="1"/>
        <pt x="243" y="378" on="1"/>
        <pt x="305" y="442" on="0"/>
        <pt x="382" y="442" on="1"/>
        <pt x="437" y="442" on="0"/>
        <pt x="503" y="388" on="0"/>
        <pt x="503" y="336" on="1"/>
        <pt x="503" y="313" on="0"/>
        <pt x="500" y="298" on="1"/>
        <pt x="496" y="274" on="0"/>
        <pt x="439" y="53" on="1"/>
        <pt x="381" y="-182" on="0"/>
        <pt x="377" y="-189" on="1"/>
        <pt x="364" y="-216" on="0"/>
        <pt x="332" y="-216" on="1"/>
        <pt x="318" y="-216" on="0"/>
        <pt x="300" y="-199" on="0"/>
        <pt x="299" y="-186" on="1"/>
        <pt x="299" y="-179" on="0"/>
        <pt x="420" y="307" on="1"/>
        <pt x="423" y="322" on="0"/>
        <pt x="423" y="345" on="1"/>
        <pt x="423" y="404" on="0"/>
        <pt x="374" y="404" on="1"/>
        <pt x="356" y="404" on="0"/>
        <pt x="348" y="402" on="1"/>
        <pt x="278" y="387" on="0"/>
        <pt x="229" y="303" on="1"/>
        <pt x="222" y="291" on="1"/>
        <pt x="189" y="157" on="1"/>
        <pt x="156" y="26" on="0"/>
        <pt x="151" y="16" on="1"/>
        <pt x="138" y="-11" on="0"/>
      </contour>
    </TTGlyph>
    <TTGlyph name="f" xMin="55" yMin="-205" xMax="550" yMax="705">
      <contour>
        <pt x="118" y="-162" on="1"/>
        <pt x="145" y="-168" on="0"/>
        <pt x="147" y="-168" on="1"/>
        <pt x="170" y="-168" on="0"/>
        <pt x="187" y="-126" on="1"/>
        <pt x="199" y="-93" on="0"/>
        <pt x="260" y="230" on="1"/>
        <pt x="288" y="381" on="0"/>
        <pt x="289" y="382" on="1"/>
        <pt x="289" y="385" on="1"/>
        <pt x="242" y="385" on="1"/>
        <pt x="195" y="385" on="0"/>
        <pt x="192" y="387" on="1"/>
        <pt x="185" y="391" on="0"/>
        <pt x="190" y="409" on="1"/>
        <pt x="194" y="424" on="0"/>
        <pt x="195" y="425" on="1"/>
        <pt x="197" y="430" on="0"/>
        <pt x="210" y="431" on="0"/>
        <pt x="250" y="431" on="1"/>
        <pt x="298" y="431" on="0"/>
        <pt x="298" y="432" on="1"/>
        <pt x="298" y="434" on="0"/>
        <pt x="316" y="530" on="0"/>
        <pt x="319" y="540" on="1"/>
        <pt x="340" y="635" on="0"/>
        <pt x="382" y="672" on="1"/>
        <pt x="422" y="705" on="0"/>
        <pt x="465" y="705" on="1"/>
        <pt x="501" y="703" on="0"/>
        <pt x="550" y="663" on="0"/>
        <pt x="550" y="630" on="1"/>
        <pt x="550" y="601" on="0"/>
        <pt x="514" y="561" on="0"/>
        <pt x="487" y="561" on="1"/>
        <pt x="443" y="561" on="0"/>
        <pt x="443" y="603" on="1"/>
        <pt x="443" y="640" on="0"/>
        <pt x="478" y="657" on="1"/>
        <pt x="487" y="662" on="1"/>
        <pt x="469" y="668" on="0"/>
        <pt x="457" y="668" on="1"/>
        <pt x="428" y="668" on="0"/>
        <pt x="419" y="630" on="1"/>
        <pt x="411" y="600" on="0"/>
        <pt x="393" y="499" on="1"/>
        <pt x="380" y="433" on="1"/>
        <pt x="380" y="431" on="0"/>
        <pt x="435" y="431" on="1"/>
        <pt x="480" y="431" on="0"/>
        <pt x="498" y="429" on="0"/>
        <pt x="498" y="423" on="1"/>
        <pt x="498" y="412" on="0"/>
        <pt x="491" y="391" on="1"/>
        <pt x="489" y="386" on="0"/>
        <pt x="474" y="385" on="0"/>
        <pt x="428" y="385" on="1"/>
        <pt x="372" y="385" on="1"/>
        <pt x="349" y="263" on="1"/>
        <pt x="312" y="72" on="0"/>
        <pt x="303" y="32" on="1"/>
        <pt x="269" y="-119" on="0"/>
        <pt x="212" y="-173" on="1"/>
        <pt x="175" y="-205" on="0"/>
        <pt x="103" y="-205" on="0"/>
        <pt x="55" y="-165" on="0"/>
        <pt x="55" y="-132" on="1"/>
        <pt x="55" y="-102" on="0"/>
        <pt x="91" y="-61" on="0"/>
        <pt x="118" y="-61" on="1"/>
        <pt x="162" y="-61" on="0"/>
        <pt x="162" y="-103" on="1"/>
        <pt x="162" y="-140" on="0"/>
        <pt x="127" y="-157" on="1"/>
      </contour>
    </TTGlyph>
    <TTGlyph name="g" xMin="10" yMin="-205" xMax="480" yMax="442">
      <contour>
        <pt x="74" y="-71" on="1"/>
        <pt x="92" y="-71" on="0"/>
        <pt x="116" y="-93" on="0"/>
        <pt x="116" y="-111" on="1"/>
        <pt x="116" y="-138" on="0"/>
        <pt x="96" y="-157" on="1"/>
        <pt x="89" y="-164" on="0"/>
        <pt x="91" y="-164" on="1"/>
        <pt x="101" y="-167" on="0"/>
        <pt x="151" y="-167" on="1"/>
        <pt x="189" y="-167" on="0"/>
        <pt x="211" y="-155" on="1"/>
        <pt x="234" y="-144" on="0"/>
        <pt x="274" y="-99" on="0"/>
        <pt x="282" y="-75" on="1"/>
        <pt x="288" y="-56" on="0"/>
        <pt x="298" y="-13" on="1"/>
        <pt x="311" y="35" on="0"/>
        <pt x="311" y="43" on="1"/>
        <pt x="275" y="13" on="0"/>
        <pt x="231" y="2" on="1"/>
        <pt x="219" y="0" on="0"/>
        <pt x="206" y="0" on="1"/>
        <pt x="141" y="0" on="0"/>
        <pt x="66" y="91" on="0"/>
        <pt x="66" y="160" on="1"/>
        <pt x="66" y="223" on="0"/>
        <pt x="95" y="281" on="1"/>
        <pt x="141" y="377" on="0"/>
        <pt x="227" y="420" on="1"/>
        <pt x="273" y="442" on="0"/>
        <pt x="314" y="442" on="1"/>
        <pt x="360" y="442" on="0"/>
        <pt x="401" y="394" on="1"/>
        <pt x="403" y="396" on="0"/>
        <pt x="405" y="399" on="1"/>
        <pt x="419" y="422" on="0"/>
        <pt x="447" y="422" on="1"/>
        <pt x="460" y="422" on="0"/>
        <pt x="480" y="406" on="0"/>
        <pt x="480" y="394" on="1"/>
        <pt x="480" y="379" on="0"/>
        <pt x="366" y="-75" on="0"/>
        <pt x="363" y="-80" on="1"/>
        <pt x="344" y="-134" on="0"/>
        <pt x="225" y="-205" on="0"/>
        <pt x="151" y="-205" on="1"/>
        <pt x="36" y="-205" on="0"/>
        <pt x="15" y="-161" on="1"/>
        <pt x="10" y="-152" on="0"/>
        <pt x="10" y="-137" on="1"/>
        <pt x="10" y="-111" on="0"/>
        <pt x="46" y="-71" on="0"/>
      </contour>
      <contour>
        <pt x="384" y="328" on="1"/>
        <pt x="376" y="354" on="0"/>
        <pt x="361" y="382" on="0"/>
        <pt x="329" y="405" on="0"/>
        <pt x="306" y="405" on="1"/>
        <pt x="304" y="405" on="0"/>
        <pt x="295" y="404" on="0"/>
        <pt x="294" y="404" on="1"/>
        <pt x="252" y="394" on="0"/>
        <pt x="221" y="352" on="1"/>
        <pt x="193" y="315" on="0"/>
        <pt x="168" y="217" on="1"/>
        <pt x="151" y="149" on="0"/>
        <pt x="151" y="117" on="1"/>
        <pt x="151" y="38" on="0"/>
        <pt x="213" y="38" on="1"/>
        <pt x="270" y="38" on="0"/>
        <pt x="323" y="108" on="1"/>
        <pt x="331" y="118" on="1"/>
        <pt x="367" y="258" on="0"/>
      </contour>
    </TTGlyph>
    <TTGlyph name="gamma" xMin="11" yMin="-216" xMax="543" yMax="441">
      <contour>
        <pt x="348" y="100" on="1"/>
        <pt x="348" y="355" on="0"/>
        <pt x="196" y="355" on="1"/>
        <pt x="148" y="355" on="0"/>
        <pt x="67" y="302" on="0"/>
        <pt x="51" y="260" on="1"/>
        <pt x="49" y="251" on="0"/>
        <pt x="47" y="251" on="1"/>
        <pt x="45" y="249" on="0"/>
        <pt x="31" y="249" on="1"/>
        <pt x="11" y="249" on="0"/>
        <pt x="11" y="258" on="1"/>
        <pt x="11" y="261" on="0"/>
        <pt x="16" y="278" on="1"/>
        <pt x="38" y="343" on="0"/>
        <pt x="136" y="433" on="0"/>
        <pt x="194" y="441" on="1"/>
        <pt x="206" y="441" on="1"/>
        <pt x="233" y="441" on="0"/>
        <pt x="239" y="440" on="1"/>
        <pt x="287" y="429" on="0"/>
        <pt x="349" y="343" on="0"/>
        <pt x="371" y="255" on="1"/>
        <pt x="385" y="195" on="0"/>
        <pt x="385" y="170" on="1"/>
        <pt x="385" y="166" on="0"/>
        <pt x="386" y="166" on="1"/>
        <pt x="391" y="177" on="0"/>
        <pt x="398" y="193" on="1"/>
        <pt x="435" y="288" on="0"/>
        <pt x="486" y="390" on="1"/>
        <pt x="507" y="429" on="0"/>
        <pt x="508" y="430" on="1"/>
        <pt x="510" y="431" on="0"/>
        <pt x="524" y="431" on="1"/>
        <pt x="537" y="431" on="1"/>
        <pt x="543" y="425" on="0"/>
        <pt x="543" y="422" on="1"/>
        <pt x="543" y="421" on="0"/>
        <pt x="525" y="383" on="1"/>
        <pt x="444" y="224" on="0"/>
        <pt x="391" y="71" on="1"/>
        <pt x="385" y="54" on="0"/>
        <pt x="383" y="41" on="1"/>
        <pt x="375" y="-28" on="0"/>
        <pt x="357" y="-100" on="1"/>
        <pt x="332" y="-204" on="0"/>
        <pt x="312" y="-213" on="1"/>
        <pt x="308" y="-216" on="0"/>
        <pt x="303" y="-216" on="1"/>
        <pt x="286" y="-216" on="0"/>
        <pt x="286" y="-188" on="1"/>
        <pt x="286" y="-178" on="0"/>
        <pt x="287" y="-172" on="1"/>
        <pt x="296" y="-110" on="0"/>
        <pt x="340" y="32" on="1"/>
        <pt x="346" y="51" on="1"/>
        <pt x="347" y="69" on="1"/>
        <pt x="348" y="79" on="0"/>
      </contour>
    </TTGlyph>
    <TTGlyph name="h" xMin="48" yMin="-11" xMax="555" yMax="694">
      <contour>
        <pt x="414" y="-10" on="1"/>
        <pt x="375" y="-10" on="0"/>
        <pt x="325" y="37" on="0"/>
        <pt x="325" y="74" on="1"/>
        <pt x="325" y="90" on="0"/>
        <pt x="335" y="118" on="1"/>
        <pt x="382" y="239" on="0"/>
        <pt x="395" y="307" on="1"/>
        <pt x="398" y="322" on="0"/>
        <pt x="398" y="345" on="1"/>
        <pt x="398" y="404" on="0"/>
        <pt x="349" y="404" on="1"/>
        <pt x="331" y="404" on="0"/>
        <pt x="323" y="402" on="1"/>
        <pt x="256" y="388" on="0"/>
        <pt x="205" y="306" on="1"/>
        <pt x="198" y="293" on="1"/>
        <pt x="164" y="158" on="1"/>
        <pt x="132" y="28" on="0"/>
        <pt x="127" y="16" on="1"/>
        <pt x="114" y="-11" on="0"/>
        <pt x="83" y="-11" on="1"/>
        <pt x="71" y="-11" on="0"/>
        <pt x="48" y="4" on="0"/>
        <pt x="48" y="28" on="0"/>
        <pt x="195" y="616" on="1"/>
        <pt x="195" y="628" on="0"/>
        <pt x="189" y="632" on="1"/>
        <pt x="178" y="636" on="0"/>
        <pt x="149" y="637" on="1"/>
        <pt x="128" y="637" on="1"/>
        <pt x="122" y="643" on="0"/>
        <pt x="121" y="647" on="0"/>
        <pt x="124" y="664" on="1"/>
        <pt x="129" y="683" on="0"/>
        <pt x="137" y="683" on="1"/>
        <pt x="138" y="683" on="0"/>
        <pt x="281" y="694" on="0"/>
        <pt x="282" y="694" on="1"/>
        <pt x="294" y="694" on="0"/>
        <pt x="294" y="685" on="1"/>
        <pt x="294" y="674" on="0"/>
        <pt x="258" y="534" on="1"/>
        <pt x="220" y="386" on="0"/>
        <pt x="220" y="383" on="1"/>
        <pt x="220" y="381" on="0"/>
        <pt x="227" y="388" on="1"/>
        <pt x="286" y="442" on="0"/>
        <pt x="357" y="442" on="1"/>
        <pt x="412" y="442" on="0"/>
        <pt x="478" y="388" on="0"/>
        <pt x="478" y="336" on="1"/>
        <pt x="478" y="313" on="0"/>
        <pt x="475" y="298" on="1"/>
        <pt x="466" y="247" on="0"/>
        <pt x="420" y="121" on="1"/>
        <pt x="402" y="72" on="0"/>
        <pt x="402" y="50" on="1"/>
        <pt x="403" y="36" on="0"/>
        <pt x="411" y="26" on="0"/>
        <pt x="422" y="26" on="1"/>
        <pt x="450" y="26" on="0"/>
        <pt x="499" y="87" on="0"/>
        <pt x="513" y="138" on="1"/>
        <pt x="516" y="149" on="0"/>
        <pt x="522" y="153" on="0"/>
        <pt x="535" y="153" on="1"/>
        <pt x="554" y="150" on="0"/>
        <pt x="555" y="145" on="1"/>
        <pt x="555" y="144" on="0"/>
        <pt x="551" y="130" on="1"/>
        <pt x="535" y="71" on="0"/>
        <pt x="500" y="33" on="1"/>
        <pt x="466" y="-10" on="0"/>
      </contour>
    </TTGlyph>
    <TTGlyph name="i" xMin="21" yMin="-11" xMax="302" yMax="661">
      <contour>
        <pt x="184" y="600" on="1"/>
        <pt x="184" y="623" on="0"/>
        <pt x="222" y="661" on="0"/>
        <pt x="247" y="661" on="1"/>
        <pt x="265" y="661" on="0"/>
        <pt x="290" y="637" on="0"/>
        <pt x="290" y="619" on="1"/>
        <pt x="290" y="597" on="0"/>
        <pt x="250" y="557" on="0"/>
        <pt x="226" y="557" on="1"/>
        <pt x="208" y="557" on="0"/>
        <pt x="184" y="581" on="0"/>
      </contour>
      <contour>
        <pt x="161" y="-11" on="1"/>
        <pt x="122" y="-11" on="0"/>
        <pt x="74" y="35" on="0"/>
        <pt x="74" y="74" on="1"/>
        <pt x="74" y="91" on="0"/>
        <pt x="76" y="97" on="1"/>
        <pt x="76" y="99" on="0"/>
        <pt x="168" y="342" on="0"/>
        <pt x="168" y="344" on="1"/>
        <pt x="173" y="360" on="0"/>
        <pt x="173" y="380" on="1"/>
        <pt x="173" y="404" on="0"/>
        <pt x="156" y="404" on="1"/>
        <pt x="154" y="404" on="1"/>
        <pt x="130" y="404" on="0"/>
        <pt x="108" y="381" on="1"/>
        <pt x="76" y="348" on="0"/>
        <pt x="61" y="287" on="1"/>
        <pt x="61" y="286" on="0"/>
        <pt x="59" y="281" on="0"/>
        <pt x="58" y="280" on="0"/>
        <pt x="56" y="278" on="0"/>
        <pt x="51" y="278" on="0"/>
        <pt x="47" y="278" on="0"/>
        <pt x="41" y="278" on="1"/>
        <pt x="27" y="278" on="1"/>
        <pt x="21" y="284" on="0"/>
        <pt x="21" y="290" on="0"/>
        <pt x="24" y="301" on="1"/>
        <pt x="50" y="387" on="0"/>
        <pt x="100" y="421" on="1"/>
        <pt x="127" y="442" on="0"/>
        <pt x="158" y="442" on="1"/>
        <pt x="198" y="442" on="0"/>
        <pt x="250" y="396" on="0"/>
        <pt x="250" y="357" on="1"/>
        <pt x="250" y="344" on="0"/>
        <pt x="245" y="327" on="1"/>
        <pt x="244" y="325" on="0"/>
        <pt x="199" y="204" on="1"/>
        <pt x="154" y="83" on="1"/>
        <pt x="149" y="61" on="0"/>
        <pt x="149" y="51" on="1"/>
        <pt x="149" y="26" on="0"/>
        <pt x="166" y="26" on="1"/>
        <pt x="180" y="26" on="0"/>
        <pt x="191" y="32" on="1"/>
        <pt x="235" y="53" on="0"/>
        <pt x="260" y="137" on="1"/>
        <pt x="263" y="149" on="0"/>
        <pt x="268" y="153" on="0"/>
        <pt x="282" y="153" on="1"/>
        <pt x="291" y="153" on="0"/>
        <pt x="298" y="152" on="0"/>
        <pt x="302" y="148" on="0"/>
        <pt x="302" y="143" on="1"/>
        <pt x="302" y="139" on="0"/>
        <pt x="299" y="130" on="1"/>
        <pt x="280" y="73" on="0"/>
        <pt x="209" y="-11" on="0"/>
      </contour>
    </TTGlyph>
    <TTGlyph name="iota" xMin="48" yMin="-10" xMax="332" yMax="442">
      <contour>
        <pt x="313" y="153" on="1"/>
        <pt x="326" y="153" on="0"/>
        <pt x="332" y="151" on="0"/>
        <pt x="332" y="143" on="1"/>
        <pt x="332" y="123" on="0"/>
        <pt x="308" y="86" on="1"/>
        <pt x="276" y="36" on="0"/>
        <pt x="221" y="9" on="1"/>
        <pt x="182" y="-10" on="0"/>
        <pt x="145" y="-10" on="1"/>
        <pt x="139" y="-10" on="1"/>
        <pt x="99" y="-10" on="0"/>
        <pt x="72" y="14" on="1"/>
        <pt x="48" y="40" on="0"/>
        <pt x="48" y="74" on="1"/>
        <pt x="48" y="90" on="0"/>
        <pt x="58" y="118" on="1"/>
        <pt x="92" y="206" on="0"/>
        <pt x="135" y="375" on="1"/>
        <pt x="145" y="410" on="0"/>
        <pt x="147" y="415" on="1"/>
        <pt x="160" y="442" on="0"/>
        <pt x="190" y="442" on="1"/>
        <pt x="206" y="442" on="0"/>
        <pt x="225" y="424" on="0"/>
        <pt x="225" y="410" on="1"/>
        <pt x="225" y="404" on="0"/>
        <pt x="216" y="369" on="1"/>
        <pt x="174" y="206" on="0"/>
        <pt x="137" y="107" on="1"/>
        <pt x="126" y="76" on="0"/>
        <pt x="126" y="54" on="1"/>
        <pt x="126" y="38" on="0"/>
        <pt x="131" y="27" on="0"/>
        <pt x="141" y="27" on="1"/>
        <pt x="147" y="27" on="1"/>
        <pt x="206" y="27" on="0"/>
        <pt x="255" y="78" on="1"/>
        <pt x="280" y="106" on="0"/>
        <pt x="290" y="136" on="1"/>
        <pt x="293" y="144" on="0"/>
        <pt x="294" y="148" on="0"/>
        <pt x="300" y="153" on="0"/>
        <pt x="305" y="153" on="0"/>
      </contour>
    </TTGlyph>
    <TTGlyph name="j" xMin="-12" yMin="-204" xMax="403" yMax="661">
      <contour>
        <pt x="297" y="596" on="1"/>
        <pt x="297" y="622" on="0"/>
        <pt x="335" y="661" on="0"/>
        <pt x="361" y="661" on="1"/>
        <pt x="378" y="661" on="0"/>
        <pt x="401" y="640" on="0"/>
        <pt x="403" y="623" on="1"/>
        <pt x="403" y="596" on="0"/>
        <pt x="367" y="557" on="0"/>
        <pt x="340" y="557" on="1"/>
        <pt x="322" y="557" on="0"/>
        <pt x="298" y="578" on="0"/>
      </contour>
      <contour>
        <pt x="288" y="376" on="1"/>
        <pt x="288" y="405" on="0"/>
        <pt x="262" y="405" on="1"/>
        <pt x="251" y="405" on="0"/>
        <pt x="239" y="401" on="1"/>
        <pt x="212" y="392" on="0"/>
        <pt x="161" y="334" on="0"/>
        <pt x="144" y="292" on="1"/>
        <pt x="143" y="289" on="0"/>
        <pt x="139" y="281" on="0"/>
        <pt x="139" y="280" on="0"/>
        <pt x="133" y="278" on="0"/>
        <pt x="128" y="278" on="0"/>
        <pt x="121" y="278" on="1"/>
        <pt x="107" y="278" on="1"/>
        <pt x="99" y="286" on="0"/>
        <pt x="105" y="299" on="1"/>
        <pt x="135" y="371" on="0"/>
        <pt x="183" y="409" on="1"/>
        <pt x="217" y="436" on="0"/>
        <pt x="252" y="441" on="1"/>
        <pt x="253" y="441" on="0"/>
        <pt x="267" y="442" on="0"/>
        <pt x="272" y="442" on="1"/>
        <pt x="296" y="441" on="0"/>
        <pt x="316" y="432" on="1"/>
        <pt x="342" y="416" on="0"/>
        <pt x="367" y="381" on="0"/>
        <pt x="367" y="348" on="1"/>
        <pt x="367" y="332" on="1"/>
        <pt x="318" y="133" on="1"/>
        <pt x="267" y="-67" on="0"/>
        <pt x="264" y="-75" on="1"/>
        <pt x="248" y="-118" on="0"/>
        <pt x="171" y="-185" on="0"/>
        <pt x="124" y="-198" on="1"/>
        <pt x="99" y="-204" on="0"/>
        <pt x="75" y="-204" on="1"/>
        <pt x="36" y="-204" on="0"/>
        <pt x="-12" y="-170" on="0"/>
        <pt x="-12" y="-137" on="1"/>
        <pt x="-12" y="-109" on="0"/>
        <pt x="28" y="-71" on="0"/>
        <pt x="53" y="-71" on="1"/>
        <pt x="72" y="-71" on="0"/>
        <pt x="95" y="-93" on="0"/>
        <pt x="95" y="-112" on="1"/>
        <pt x="95" y="-148" on="0"/>
        <pt x="63" y="-167" on="1"/>
        <pt x="68" y="-168" on="0"/>
        <pt x="77" y="-168" on="1"/>
        <pt x="111" y="-168" on="0"/>
        <pt x="168" y="-110" on="0"/>
        <pt x="182" y="-74" on="1"/>
        <pt x="193" y="-32" on="1"/>
        <pt x="204" y="11" on="0"/>
        <pt x="235" y="134" on="0"/>
        <pt x="267" y="260" on="0"/>
        <pt x="289" y="357" on="0"/>
        <pt x="289" y="365" on="1"/>
        <pt x="289" y="372" on="0"/>
      </contour>
    </TTGlyph>
    <TTGlyph name="k" xMin="48" yMin="-11" xMax="503" yMax="694">
      <contour>
        <pt x="137" y="683" on="1"/>
        <pt x="138" y="683" on="0"/>
        <pt x="281" y="694" on="0"/>
        <pt x="282" y="694" on="1"/>
        <pt x="294" y="694" on="0"/>
        <pt x="294" y="686" on="1"/>
        <pt x="294" y="679" on="0"/>
        <pt x="244" y="477" on="1"/>
        <pt x="194" y="279" on="0"/>
        <pt x="194" y="272" on="1"/>
        <pt x="213" y="284" on="0"/>
        <pt x="237" y="301" on="0"/>
        <pt x="251" y="314" on="0"/>
        <pt x="278" y="340" on="1"/>
        <pt x="338" y="400" on="0"/>
        <pt x="362" y="415" on="1"/>
        <pt x="402" y="442" on="0"/>
        <pt x="438" y="442" on="1"/>
        <pt x="468" y="442" on="0"/>
        <pt x="503" y="402" on="0"/>
        <pt x="503" y="369" on="1"/>
        <pt x="503" y="333" on="0"/>
        <pt x="469" y="288" on="0"/>
        <pt x="438" y="288" on="1"/>
        <pt x="419" y="288" on="0"/>
        <pt x="394" y="310" on="0"/>
        <pt x="394" y="328" on="1"/>
        <pt x="394" y="353" on="0"/>
        <pt x="428" y="388" on="0"/>
        <pt x="451" y="391" on="1"/>
        <pt x="458" y="393" on="1"/>
        <pt x="446" y="405" on="0"/>
        <pt x="434" y="405" on="1"/>
        <pt x="400" y="405" on="0"/>
        <pt x="354" y="371" on="1"/>
        <pt x="335" y="356" on="0"/>
        <pt x="296" y="317" on="1"/>
        <pt x="267" y="288" on="0"/>
        <pt x="228" y="255" on="1"/>
        <pt x="275" y="244" on="0"/>
        <pt x="292" y="238" on="1"/>
        <pt x="340" y="219" on="0"/>
        <pt x="356" y="186" on="1"/>
        <pt x="365" y="168" on="0"/>
        <pt x="365" y="147" on="1"/>
        <pt x="365" y="134" on="0"/>
        <pt x="354" y="74" on="0"/>
        <pt x="354" y="66" on="1"/>
        <pt x="354" y="26" on="0"/>
        <pt x="381" y="26" on="1"/>
        <pt x="399" y="26" on="0"/>
        <pt x="414" y="41" on="1"/>
        <pt x="439" y="66" on="0"/>
        <pt x="459" y="145" on="1"/>
        <pt x="461" y="153" on="0"/>
        <pt x="479" y="153" on="1"/>
        <pt x="493" y="153" on="0"/>
        <pt x="495" y="151" on="1"/>
        <pt x="501" y="147" on="0"/>
        <pt x="496" y="130" on="1"/>
        <pt x="469" y="39" on="0"/>
        <pt x="427" y="7" on="1"/>
        <pt x="402" y="-11" on="0"/>
        <pt x="378" y="-11" on="1"/>
        <pt x="332" y="-11" on="0"/>
        <pt x="277" y="44" on="0"/>
        <pt x="277" y="90" on="1"/>
        <pt x="277" y="99" on="0"/>
        <pt x="283" y="137" on="0"/>
        <pt x="283" y="145" on="1"/>
        <pt x="283" y="158" on="0"/>
        <pt x="277" y="170" on="1"/>
        <pt x="264" y="195" on="0"/>
        <pt x="228" y="209" on="1"/>
        <pt x="195" y="220" on="0"/>
        <pt x="182" y="220" on="1"/>
        <pt x="180" y="220" on="1"/>
        <pt x="167" y="171" on="0"/>
        <pt x="144" y="79" on="0"/>
        <pt x="133" y="33" on="0"/>
        <pt x="129" y="21" on="1"/>
        <pt x="124" y="8" on="0"/>
        <pt x="98" y="-11" on="0"/>
        <pt x="83" y="-11" on="1"/>
        <pt x="71" y="-11" on="0"/>
        <pt x="48" y="4" on="0"/>
        <pt x="48" y="16" on="1"/>
        <pt x="48" y="26" on="0"/>
        <pt x="122" y="326" on="0"/>
        <pt x="158" y="471" on="1"/>
        <pt x="195" y="616" on="1"/>
        <pt x="197" y="630" on="0"/>
        <pt x="180" y="637" on="0"/>
        <pt x="160" y="637" on="1"/>
        <pt x="153" y="637" on="0"/>
        <pt x="149" y="637" on="1"/>
        <pt x="128" y="637" on="0"/>
        <pt x="125" y="640" on="1"/>
        <pt x="119" y="645" on="0"/>
        <pt x="124" y="664" on="1"/>
        <pt x="128" y="678" on="0"/>
        <pt x="131" y="680" on="1"/>
        <pt x="134" y="683" on="0"/>
      </contour>
    </TTGlyph>
    <TTGlyph name="kappa" xMin="49" yMin="-11" xMax="554" yMax="442">
      <contour>
        <pt x="83" y="-11" on="1"/>
        <pt x="69" y="-11" on="0"/>
        <pt x="49" y="4" on="0"/>
        <pt x="49" y="30" on="0"/>
        <pt x="143" y="405" on="0"/>
        <pt x="147" y="414" on="1"/>
        <pt x="159" y="442" on="0"/>
        <pt x="193" y="442" on="1"/>
        <pt x="206" y="441" on="0"/>
        <pt x="225" y="425" on="0"/>
        <pt x="225" y="412" on="1"/>
        <pt x="225" y="401" on="0"/>
        <pt x="208" y="337" on="1"/>
        <pt x="192" y="270" on="1"/>
        <pt x="193" y="269" on="0"/>
        <pt x="223" y="285" on="0"/>
        <pt x="235" y="292" on="1"/>
        <pt x="265" y="314" on="0"/>
        <pt x="314" y="354" on="1"/>
        <pt x="357" y="390" on="0"/>
        <pt x="386" y="406" on="1"/>
        <pt x="431" y="431" on="0"/>
        <pt x="467" y="431" on="1"/>
        <pt x="512" y="431" on="0"/>
        <pt x="512" y="391" on="1"/>
        <pt x="512" y="366" on="0"/>
        <pt x="476" y="327" on="0"/>
        <pt x="449" y="327" on="1"/>
        <pt x="430" y="327" on="0"/>
        <pt x="405" y="350" on="0"/>
        <pt x="405" y="368" on="1"/>
        <pt x="405" y="372" on="0"/>
        <pt x="407" y="380" on="1"/>
        <pt x="397" y="375" on="1"/>
        <pt x="368" y="360" on="0"/>
        <pt x="315" y="315" on="1"/>
        <pt x="308" y="309" on="0"/>
        <pt x="253" y="266" on="1"/>
        <pt x="240" y="257" on="1"/>
        <pt x="245" y="257" on="1"/>
        <pt x="247" y="257" on="0"/>
        <pt x="267" y="255" on="1"/>
        <pt x="398" y="241" on="0"/>
        <pt x="419" y="173" on="1"/>
        <pt x="422" y="163" on="0"/>
        <pt x="422" y="137" on="0"/>
        <pt x="417" y="117" on="1"/>
        <pt x="411" y="87" on="0"/>
        <pt x="411" y="67" on="1"/>
        <pt x="411" y="45" on="0"/>
        <pt x="422" y="26" on="0"/>
        <pt x="437" y="26" on="1"/>
        <pt x="453" y="26" on="0"/>
        <pt x="469" y="40" on="1"/>
        <pt x="494" y="65" on="0"/>
        <pt x="513" y="137" on="1"/>
        <pt x="516" y="149" on="0"/>
        <pt x="522" y="153" on="0"/>
        <pt x="535" y="153" on="1"/>
        <pt x="544" y="153" on="0"/>
        <pt x="550" y="152" on="0"/>
        <pt x="554" y="148" on="0"/>
        <pt x="554" y="144" on="1"/>
        <pt x="554" y="143" on="0"/>
        <pt x="552" y="133" on="1"/>
        <pt x="531" y="54" on="0"/>
        <pt x="494" y="17" on="1"/>
        <pt x="467" y="-10" on="0"/>
        <pt x="431" y="-10" on="1"/>
        <pt x="385" y="-10" on="0"/>
        <pt x="333" y="44" on="0"/>
        <pt x="333" y="90" on="1"/>
        <pt x="333" y="99" on="0"/>
        <pt x="339" y="138" on="0"/>
        <pt x="339" y="146" on="1"/>
        <pt x="339" y="163" on="0"/>
        <pt x="327" y="178" on="1"/>
        <pt x="299" y="213" on="0"/>
        <pt x="198" y="221" on="1"/>
        <pt x="182" y="222" on="0"/>
        <pt x="180" y="221" on="1"/>
        <pt x="179" y="220" on="0"/>
        <pt x="156" y="125" on="0"/>
        <pt x="129" y="23" on="0"/>
        <pt x="126" y="16" on="1"/>
        <pt x="113" y="-11" on="0"/>
      </contour>
    </TTGlyph>
    <TTGlyph name="l" xMin="38" yMin="-11" xMax="266" yMax="694">
      <contour>
        <pt x="137" y="-11" on="1"/>
        <pt x="92" y="-11" on="0"/>
        <pt x="38" y="40" on="0"/>
        <pt x="38" y="85" on="1"/>
        <pt x="38" y="97" on="0"/>
        <pt x="39" y="102" on="1"/>
        <pt x="167" y="616" on="1"/>
        <pt x="168" y="619" on="0"/>
        <pt x="166" y="625" on="0"/>
        <pt x="166" y="629" on="0"/>
        <pt x="162" y="632" on="0"/>
        <pt x="159" y="634" on="0"/>
        <pt x="153" y="635" on="0"/>
        <pt x="149" y="636" on="0"/>
        <pt x="140" y="637" on="0"/>
        <pt x="135" y="637" on="0"/>
        <pt x="125" y="637" on="0"/>
        <pt x="122" y="637" on="1"/>
        <pt x="98" y="637" on="0"/>
        <pt x="94" y="644" on="1"/>
        <pt x="93" y="647" on="0"/>
        <pt x="96" y="661" on="1"/>
        <pt x="101" y="680" on="0"/>
        <pt x="105" y="682" on="1"/>
        <pt x="108" y="683" on="0"/>
        <pt x="251" y="694" on="0"/>
        <pt x="254" y="694" on="1"/>
        <pt x="266" y="694" on="0"/>
        <pt x="266" y="686" on="1"/>
        <pt x="266" y="675" on="0"/>
        <pt x="120" y="97" on="0"/>
        <pt x="118" y="83" on="1"/>
        <pt x="118" y="81" on="0"/>
        <pt x="117" y="68" on="0"/>
        <pt x="117" y="65" on="1"/>
        <pt x="117" y="36" on="0"/>
        <pt x="131" y="28" on="1"/>
        <pt x="135" y="26" on="0"/>
        <pt x="151" y="27" on="0"/>
        <pt x="155" y="29" on="1"/>
        <pt x="183" y="45" on="0"/>
        <pt x="205" y="131" on="1"/>
        <pt x="211" y="151" on="0"/>
        <pt x="215" y="152" on="1"/>
        <pt x="217" y="153" on="0"/>
        <pt x="225" y="153" on="1"/>
        <pt x="229" y="153" on="1"/>
        <pt x="247" y="148" on="0"/>
        <pt x="248" y="144" on="1"/>
        <pt x="248" y="137" on="0"/>
        <pt x="232" y="82" on="0"/>
        <pt x="225" y="66" on="1"/>
        <pt x="197" y="1" on="0"/>
        <pt x="153" y="-9" on="1"/>
        <pt x="143" y="-11" on="0"/>
      </contour>
    </TTGlyph>
    <TTGlyph name="lambda" xMin="47" yMin="-12" xMax="556" yMax="694">
      <contour>
        <pt x="166" y="674" on="1"/>
        <pt x="166" y="686" on="0"/>
        <pt x="183" y="694" on="1"/>
        <pt x="202" y="694" on="1"/>
        <pt x="292" y="691" on="0"/>
        <pt x="316" y="644" on="1"/>
        <pt x="317" y="641" on="0"/>
        <pt x="523" y="69" on="0"/>
        <pt x="524" y="67" on="1"/>
        <pt x="540" y="19" on="0"/>
        <pt x="552" y="6" on="1"/>
        <pt x="556" y="2" on="0"/>
        <pt x="556" y="-2" on="1"/>
        <pt x="556" y="-5" on="0"/>
        <pt x="550" y="-11" on="1"/>
        <pt x="482" y="-11" on="1"/>
        <pt x="457" y="3" on="0"/>
        <pt x="448" y="20" on="1"/>
        <pt x="354" y="275" on="0"/>
        <pt x="354" y="277" on="1"/>
        <pt x="294" y="208" on="1"/>
        <pt x="234" y="139" on="0"/>
        <pt x="174" y="70" on="1"/>
        <pt x="113" y="0" on="1"/>
        <pt x="101" y="-12" on="0"/>
        <pt x="83" y="-12" on="1"/>
        <pt x="47" y="-12" on="0"/>
        <pt x="47" y="20" on="1"/>
        <pt x="47" y="34" on="0"/>
        <pt x="55" y="46" on="1"/>
        <pt x="60" y="53" on="0"/>
        <pt x="201" y="190" on="0"/>
        <pt x="270" y="256" on="1"/>
        <pt x="338" y="322" on="1"/>
        <pt x="338" y="323" on="0"/>
        <pt x="238" y="601" on="0"/>
        <pt x="234" y="612" on="1"/>
        <pt x="214" y="657" on="0"/>
        <pt x="183" y="657" on="1"/>
        <pt x="166" y="657" on="0"/>
      </contour>
    </TTGlyph>
    <TTGlyph name="m" xMin="21" yMin="-11" xMax="857" yMax="442">
      <contour>
        <pt x="108" y="-11" on="1"/>
        <pt x="94" y="-11" on="0"/>
        <pt x="74" y="4" on="0"/>
        <pt x="74" y="30" on="0"/>
        <pt x="112" y="181" on="1"/>
        <pt x="151" y="335" on="0"/>
        <pt x="151" y="342" on="1"/>
        <pt x="154" y="357" on="0"/>
        <pt x="154" y="369" on="1"/>
        <pt x="154" y="405" on="0"/>
        <pt x="129" y="405" on="1"/>
        <pt x="120" y="405" on="0"/>
        <pt x="109" y="398" on="1"/>
        <pt x="85" y="379" on="0"/>
        <pt x="61" y="287" on="1"/>
        <pt x="61" y="286" on="0"/>
        <pt x="59" y="281" on="0"/>
        <pt x="58" y="280" on="0"/>
        <pt x="56" y="278" on="0"/>
        <pt x="51" y="278" on="0"/>
        <pt x="47" y="278" on="0"/>
        <pt x="41" y="278" on="1"/>
        <pt x="27" y="278" on="1"/>
        <pt x="21" y="284" on="0"/>
        <pt x="21" y="287" on="1"/>
        <pt x="21" y="300" on="0"/>
        <pt x="35" y="337" on="1"/>
        <pt x="55" y="395" on="0"/>
        <pt x="79" y="418" on="1"/>
        <pt x="103" y="442" on="0"/>
        <pt x="132" y="442" on="1"/>
        <pt x="195" y="442" on="0"/>
        <pt x="220" y="397" on="1"/>
        <pt x="231" y="378" on="0"/>
        <pt x="231" y="369" on="1"/>
        <pt x="231" y="367" on="0"/>
        <pt x="232" y="367" on="1"/>
        <pt x="243" y="378" on="1"/>
        <pt x="304" y="442" on="0"/>
        <pt x="384" y="442" on="1"/>
        <pt x="481" y="442" on="0"/>
        <pt x="501" y="360" on="1"/>
        <pt x="502" y="357" on="1"/>
        <pt x="510" y="367" on="1"/>
        <pt x="547" y="411" on="0"/>
        <pt x="596" y="431" on="1"/>
        <pt x="627" y="442" on="0"/>
        <pt x="659" y="442" on="1"/>
        <pt x="714" y="442" on="0"/>
        <pt x="780" y="388" on="0"/>
        <pt x="780" y="336" on="1"/>
        <pt x="780" y="313" on="0"/>
        <pt x="777" y="298" on="1"/>
        <pt x="768" y="247" on="0"/>
        <pt x="722" y="121" on="1"/>
        <pt x="704" y="73" on="0"/>
        <pt x="704" y="50" on="1"/>
        <pt x="705" y="36" on="0"/>
        <pt x="713" y="26" on="0"/>
        <pt x="724" y="26" on="1"/>
        <pt x="752" y="26" on="0"/>
        <pt x="801" y="87" on="0"/>
        <pt x="815" y="138" on="1"/>
        <pt x="818" y="149" on="0"/>
        <pt x="824" y="153" on="0"/>
        <pt x="837" y="153" on="1"/>
        <pt x="856" y="150" on="0"/>
        <pt x="857" y="145" on="1"/>
        <pt x="857" y="144" on="0"/>
        <pt x="853" y="130" on="1"/>
        <pt x="827" y="37" on="0"/>
        <pt x="759" y="-1" on="1"/>
        <pt x="741" y="-10" on="0"/>
        <pt x="716" y="-10" on="1"/>
        <pt x="678" y="-10" on="0"/>
        <pt x="651" y="14" on="1"/>
        <pt x="627" y="42" on="0"/>
        <pt x="627" y="73" on="1"/>
        <pt x="627" y="92" on="0"/>
        <pt x="641" y="129" on="1"/>
        <pt x="685" y="246" on="0"/>
        <pt x="697" y="307" on="1"/>
        <pt x="700" y="322" on="0"/>
        <pt x="700" y="345" on="1"/>
        <pt x="700" y="404" on="0"/>
        <pt x="651" y="404" on="1"/>
        <pt x="633" y="404" on="0"/>
        <pt x="625" y="402" on="1"/>
        <pt x="555" y="387" on="0"/>
        <pt x="506" y="303" on="1"/>
        <pt x="499" y="291" on="1"/>
        <pt x="466" y="157" on="1"/>
        <pt x="433" y="26" on="0"/>
        <pt x="428" y="16" on="1"/>
        <pt x="415" y="-11" on="0"/>
        <pt x="385" y="-11" on="1"/>
        <pt x="361" y="-11" on="0"/>
        <pt x="353" y="9" on="1"/>
        <pt x="352" y="12" on="1"/>
        <pt x="350" y="16" on="0"/>
        <pt x="350" y="18" on="1"/>
        <pt x="350" y="29" on="0"/>
        <pt x="384" y="161" on="1"/>
        <pt x="392" y="193" on="0"/>
        <pt x="409" y="262" on="0"/>
        <pt x="420" y="305" on="0"/>
        <pt x="420" y="307" on="1"/>
        <pt x="423" y="322" on="0"/>
        <pt x="423" y="345" on="1"/>
        <pt x="423" y="404" on="0"/>
        <pt x="374" y="404" on="1"/>
        <pt x="356" y="404" on="0"/>
        <pt x="348" y="402" on="1"/>
        <pt x="278" y="387" on="0"/>
        <pt x="229" y="303" on="1"/>
        <pt x="222" y="291" on="1"/>
        <pt x="189" y="157" on="1"/>
        <pt x="156" y="26" on="0"/>
        <pt x="151" y="16" on="1"/>
        <pt x="138" y="-11" on="0"/>
      </contour>
    </TTGlyph>
</ttFont>
